<svg xmlns="http://www.w3.org/2000/svg" viewBox="0 0 313.75 283.84"><defs><style>.cls-1{fill:#FF639A;}</style></defs><g id="Layer_2" data-name="Layer 2"><g id="Layer_1-2" data-name="Layer 1"><path class="cls-1" d="M312.75,274.33c-.26-.43-1.47-1.28-1.72-1.72-2.12-1.8-4.71-2.74-7.66-3.77-8.39-2.93-7.69-3.43-13.33-6.7a60.89,60.89,0,0,1-11.77-8.65c-1.1-1-5.24-5.91-6.16-7.93-2-4.66-1.61-3.83-3.57-8.68-.5-1.24-2-6.58-2.51-7.77-3.13-7.89-3.59-10.87-6.33-19-.56-1.65-3.81-12.15-3.77-13.36a45.68,45.68,0,0,0-1.32-11c-.33-1-.1-2.88-.48-3.91s-1.39-3.14-2.34-3.79c-1.33-.9-1.29-.56-2.43-1.89s-2-2.62-3.69-3.5c-.53-.29-8.65-3-11-3.81-1.31-.65-10.89-3.29-12.74-3.83-5.75-1.68-4.16-.86-6.45-1.5A72.1,72.1,0,0,0,203.89,161c-5.29-2.05-11.07-2.56-14.42-3-1.53-.18-3.43-.1-4.08-.51-.24-.16-.49-.46-.23-.75,1.44-1.55,14.7-16.56,16.84-20.12,1.85-3.07,5-7.71,5.65-9.54a19.37,19.37,0,0,1,4.12-6.12,21.18,21.18,0,0,0,7.2-11.2,7.81,7.81,0,0,0-.92-6.71,23.34,23.34,0,0,0-3.21-4.37c-1.49-1.48-17.69-18.19-29.54-23-2.31-1-3.73-.73-5.21-2.33-.63-.67-3.35-1.72-4.09-2.28-2.46-1.86-10.82-5.08-12.37-6h0L163.5,65a51.32,51.32,0,0,1-4.31-3,75.63,75.63,0,0,0-8.3-5.57c-5.92-3.75-6-3.15-12.31-6.4A35.43,35.43,0,0,1,134,47.32c-4-2.74-14.31-8.56-17-10.68-10.14-7.93-2.88-2.44-25.15-19-3.91-2.9-4.48-2.54-9.38-5.55A74.46,74.46,0,0,1,76,7.73C74.87,7,63,.14,60.79,0s-5.2.43-5.21,2.76c0,.75-.22,4.46.26,6,1.11,3.52.61,3.11,2.21,6.18.38.73,3,5.42,3,5.42,4.64,4.5,4.15,4.79,9,9.09.57.5,1.44.64,1.78,1.35.85,1.8-.23.58-2.11.05s-2.76-.31-4.69-1c-9.08-3-4.5-1.51-13.53-4.67-3.91-1.37-5.11-1.72-9-3.2C37.1,20,36,19.91,27.9,16.9c-4.82-1.79-7.95-3.44-13-4.4-5.63-1.08-9.23.25-10,4.71A18.42,18.42,0,0,0,6,27.22C8.66,33.28,9.3,36.1,13.74,41c5.5,6.06,9.29,10.2,16.81,13,3.83,1.41,3.77,2.22,10,4.65a33.23,33.23,0,0,1,3.69,1.52c5.47,3,8.26,1.83,15.26,4.24,1.14.39,5,1,6.74,2.08,1.1.68-5.8-.22-6.93-.19-5.24.12-4.85.55-10.07.19-4.27-.3-13.9-2-18.17-2.41-5.63-.5-13.27-.75-18.66.15s-9,3.81-7.11,9.18a31.47,31.47,0,0,0,6.22,10.32A54.53,54.53,0,0,0,22,92.09C26.84,95.3,32,98,38,99c6.65,1.13,13.16,3.22,19.81,4.37,5.26.91,7.92,1,13.18,2a70.74,70.74,0,0,0,9.4-.09c.72-.07,3.2-.35,3.19.41s-1.32.66-2,1.06a37.49,37.49,0,0,1-4.67.46c-3.43.24-6.62.19-10,.6-4.49.53-9,.26-13.43,1-2.88.51-5.87,2.67-8.65,3.55-4,1.28-5.52,4.47-4.13,8.39,2.27,6.4,7.43,10.39,12.82,13.68,4.49,2.74,9.63,4.64,15.24,3.95a6,6,0,0,1,2.35.35c5.37,1.5,14.51-1,20-1.6,1.2-.13,3.17-.74,4.38-.51a1.3,1.3,0,0,1,.87.85c0,.26-.44.73-.79.88-1.88.77-4.52,2.35-6.39,3.13-3.43,1.44-6.88,1.29-10.19,3-2.42,1.22-8.63,4.36-7.54,6.87,1.42,3.3,9.54,6.9,12.81,7.64,6.24,1.42,13,2,19.21,3.07,3.84.7,11.13,2.33,15.36,1.44,7-1.48,17.44-5.67,25.91-6.73,5-.62,7.47-.26,8.1,0,2.26.73-1.33,1.92-2.86,2.55a41.39,41.39,0,0,1-4.18,1.42c-.51.16-3,1.89-3.94,2.35-1.86.9-4.28,2.44-4.29,2.41-5.57,5.81-7.77,7.72-10.69,13.55a78.49,78.49,0,0,1-5.7,9.72c-2.41,3.66-5,8.16-7.26,11.88A198,198,0,0,1,103,217.76c-.67,1-1.17,3-2.17,2.12s-2.06-1.61-3.06-2.43a23.62,23.62,0,0,0-4.66-2.8c-5-2.48-10.08-3.31-15.5-4.89-2.93-.79-13.4-2.14-16.5-2.64a20.4,20.4,0,0,1-6.9-2.16c-1.33-.7-2.64-1-3.89-1.82-1.82-1.17-.88-.15-3-2.12a25.83,25.83,0,0,0-5.77-4.17c-2.53-1.46-4.65-2-7.17-1.56a11.38,11.38,0,0,0-5.95,2.79c-1.41,1.28-4.12,6.16-5.87,7.62-.41.34-5.19,4.89-7.35,7.19-3.52,3.88-6.78,5.41-9.24,10-2.72,5-3,3.8-4.6,9.06-1,3.29-2.88,9.12,1.09,11.61,1.91,1.2,3.27,1.88,5.58.5,2.53-1.51,5.34-3.07,7.3-5.09s2.36-3.58,4.89-5c4.08-2.38,7.52-5.4,11.6-7.64,2.55-1.4,3.07-2.75,7.49-3.79,1.62-.38,1.83-.75,3.41-.27s3,1.86,4.69,2.71c8.76,4.3,5,4.1,12.14,7.55,4.65,2.25,17.13,6.29,21.82,8.45a20.32,20.32,0,0,1,4.06,2.63c2.61,2.15,7.18,3,10.16,3.8,1,.19,2,.77,3,.94a5.32,5.32,0,0,0,3.35-.36c1.49-.83,2.9-.57,4.53-.8a17.32,17.32,0,0,0,5.26-1.58,62.05,62.05,0,0,1,6.55-2.73,23.94,23.94,0,0,0,6-3.16c1.2-.82,8.91-6.19,9.62-6.81,7.28-6.34,16.14-15.41,18.42-18.76,3.37-5.14,8.21-8.86,11.35-14.11a5.11,5.11,0,0,0,.21-4.87,4.93,4.93,0,0,1-.48-1.23c-.14-.89,1.09.36,3,.73,6.21,1.16,6.7,2.69,13.79,3.3.67,0,2.71.19,3.34.25,6.51.46,14.89,1,16.54,1.07,2.83.12,5.45.17,8.91.32a72.12,72.12,0,0,0,8.86,0c4.2-.46,5.62-.4,6.55-.55,1.5-.25,4.7-.66,5.73-.08.23.74-.3,1.47-.32,2.15-.11,1.39-.11,4.09-.13,5.18-.06,2.54.68,8.46,1,10.76.2,1.73,4.13,8.64,5,10.17a88.79,88.79,0,0,0,10.29,14.08c3.37,4,3,5.47,4.93,8.26.87,1.25,1.28,3.55,1.46,5.92A45.92,45.92,0,0,1,252,262c-.09.41-.57,2.57-.56,2.91a9.71,9.71,0,0,0,2.16,5.57c2.31,2.74,3.82,3.22,8.16,4.84a31.13,31.13,0,0,0,6.4,1.06c3.13.2,9.71.67,12.39,1.91,1.14.45,8.85,4.24,12.66,4.88,4.92.81,5.23.74,11,.46,2.12-.1,7.79-2.2,8.33-3A5.25,5.25,0,0,0,312.75,274.33Z"/></g></g></svg>