<svg width="97" height="96" viewBox="0 0 97 96" fill="none" xmlns="http://www.w3.org/2000/svg">
<path d="M68.9204 70.8489L66.8613 71.2545L64.2505 71.0534L62.4664 70.4914L59.4947 68.5423L56.8633 67.3667L51.4905 66.2048L50.595 64.7318L50.2323 60.6377L50.2065 59.5687L50.4231 56.6193L50.7222 55.7994L51.9098 55.9387L52.4031 57.1916L52.74 58.9929L53.8898 61.7721L55.6172 64.0134L58.3655 64.9501L69.3209 65.2612L72.4851 66.1893L74.2296 68.147L76.2045 70.7836L80.0098 79.3894L80.3673 83.0314L77.9782 81.5447L75.407 79.7692L72.5384 78.8617L70.4896 79.2278L70.4019 78.9786L68.9204 70.8489Z" fill="#FF639A"/>
<path d="M48.2095 78.5128L46.3704 77.4987L44.5004 75.6683L43.4949 74.0887L42.4723 70.6856L41.2107 68.0937L37.8419 63.7504L38.1032 62.0471L40.4562 58.6783L41.1247 57.8413L43.1873 55.7221L43.9418 55.2855L44.7616 56.1569L44.3354 57.434L43.4348 59.029L42.529 61.8959L42.4104 64.7249L43.916 67.2103L52.1076 74.4892L53.9346 77.2341L54.0137 79.8552L53.8315 83.1449L51.2139 92.1821L49.1462 95.2037L48.2731 92.5293L47.4446 89.5146L45.8307 86.976L44.026 85.9396L44.1188 85.6921L48.2095 78.5128Z" fill="#FF639A"/>
<path d="M27.4159 71.0706L26.6614 69.1112L26.4053 66.5073L26.6494 64.651L28.0536 61.3854L28.7531 58.5907L28.9645 53.0975L30.2587 51.9597L34.2274 50.8924L35.2775 50.681L38.22 50.3819L39.0777 50.5331L39.1464 51.7294L37.9983 52.4324L36.283 53.0752L33.7461 54.6908L31.8383 56.7808L31.3931 59.6512L32.9898 70.4948L32.6238 73.7707L30.9995 75.8298L28.7462 78.2326L20.9328 83.4731L17.4076 84.458L18.456 81.8472L19.7589 79.0061L20.1559 76.024L19.4392 74.0698L19.6695 73.9392L27.4159 71.0706Z" fill="#FF639A"/>
<path d="M16.2732 52.0027L16.9538 50.0176L18.432 47.8571L19.8121 46.5921L22.9849 44.9936L25.319 43.3024L29.0109 39.2289L30.7348 39.1911L34.4611 40.9236L35.4012 41.4375L37.847 43.0996L38.4074 43.7664L37.6906 44.7272L36.3603 44.5278L34.633 43.9177L31.6509 43.5241L28.8459 43.8988L26.6596 45.8118L20.9121 55.1446L18.5265 57.4202L15.9587 57.9531L12.6879 58.3449L3.33439 57.336L0 55.8252L2.48189 54.5001L5.3058 53.1612L7.52644 51.1313L8.23457 49.1736L8.4941 49.2218L16.2732 52.0027Z" fill="#FF639A"/>
<path d="M19.9926 30.2347L21.7904 29.1501L24.3101 28.4454L26.1801 28.3647L29.64 29.1794L32.5154 29.3839L37.9622 28.6362L39.3062 29.7156L41.0473 33.4384L41.4375 34.4353L42.2419 37.2816V38.153L41.0766 38.428L40.1862 37.4191L39.253 35.8413L37.2231 33.6241L34.8323 32.1081L31.9276 32.1683L21.5274 35.623L18.2377 35.8327L15.9277 34.59L13.1708 32.787L6.65157 26.0031L5.07031 22.7014L7.82376 23.2823L10.8471 24.0712L13.8532 23.944L15.6527 22.899L15.8211 23.1035L19.9926 30.2347Z" fill="#FF639A"/>
<path d="M36.8348 15.9501L38.9093 16.2749L41.2932 17.3543L42.7765 18.4939L44.9026 21.3418L46.9737 23.3459L51.6264 26.2764L51.9633 27.9659L50.9045 31.9363L50.5625 32.952L49.349 35.6488L48.7887 36.3157L47.7197 35.7777L47.6853 34.4336L47.9861 32.6255L47.8554 29.6211L46.9995 26.9226L44.7359 25.1025L34.5471 21.0634L31.8916 19.1092L30.9222 16.672L29.9666 13.5198L29.3358 4.13364L30.245 0.586121L31.981 2.8016L33.7908 5.35052L36.1748 7.18443L38.227 7.54021L38.2235 7.8049L36.8348 15.9501Z" fill="#FF639A"/>
<path d="M58.9191 16.0034L60.2992 17.5863L61.4302 19.9462L61.8341 21.7732L61.633 25.3225L61.9303 28.1876L63.6113 33.423L62.7828 34.9338L59.4192 37.2953L58.5048 37.8522L55.8425 39.1396L54.9848 39.2908L54.5105 38.1908L55.3492 37.1372L56.7414 35.9461L58.5736 33.5605L59.6513 30.9445L59.0875 28.0948L53.878 18.4509L53.1011 15.2471L53.9244 12.7566L55.2186 9.72817L60.7702 2.13126L63.7453 0L63.6525 2.81189L63.3999 5.928L64.0478 8.86535L65.3902 10.4569L65.2166 10.658L58.9191 16.0034Z" fill="#FF639A"/>
<path d="M75.9106 29.9373L75.9518 32.0376L75.3004 34.5711L74.4359 36.2314L72.0021 38.8199L70.3865 41.2072L68.3102 46.2982L66.7049 46.9221L62.6091 46.5697L61.5521 46.4082L58.6852 45.6829L57.929 45.248L58.2744 44.1016L59.5927 43.8335L61.4249 43.8146L64.3605 43.1649L66.8699 41.8535L68.269 39.308L70.4776 28.5726L71.942 25.6181L74.1729 24.2396L77.1103 22.7529L86.2455 20.5013L89.8961 20.7798L88.0175 22.8749L85.821 25.099L84.4288 27.7665L84.4339 29.8479L84.1727 29.8909L75.9106 29.9373Z" fill="#FF639A"/>
<path d="M79.8621 51.6659L78.5438 53.3004L76.416 54.8233L74.6869 55.54L71.1566 55.9576L68.3859 56.7483L63.5236 59.3126L61.8907 58.7592L58.9809 55.8562L58.2745 55.0536L56.5437 52.6542L56.2463 51.8343L57.2467 51.1778L58.4292 51.8206L59.8454 52.9842L62.5112 54.3747L65.2767 54.9814L67.9855 53.9312L76.5758 47.1267L79.5974 45.8049L82.191 46.1831L85.3999 46.9324L93.8442 51.0798L96.4601 53.6407L93.6757 54.0378L90.563 54.33L87.7821 55.4781L86.4483 57.0748L86.2215 56.9408L79.8621 51.6659Z" fill="#FF639A"/>
</svg>
