<svg width="306" height="123" viewBox="0 0 306 123" fill="none" xmlns="http://www.w3.org/2000/svg">
<path d="M224.155 75.7908L224.733 80.6927L224.491 85.7634L221.897 88.8681L217.294 90.8599L212.109 90.9951L201.217 89.2324L187.912 89.0706L169.325 83.8005L169.704 76.5092L169.415 76.4113L168.933 77.2057L168.48 79.2747L164.264 87.7282L158.739 92.7811L146.247 103.348L144.722 106.805L145.028 109.833L139.311 116.123L130.909 119.177L123.46 120.268L121.511 119.278L122.398 117.45L127.856 113.864L135.004 107.996L140.132 102.149L141.88 98.6347L147.059 85.6388L152.916 77.1667L154.553 72.5204L159.422 65.8634L168.303 64.4876L182.234 65.7669L191.453 67.7035L195.343 67.2348L197.259 65.4977L204.849 52.7801L213.337 45.539L223.272 33.9086L226.122 31.044L230.643 25.5078L237.31 15.8808L244.258 8.13044L255.073 3.21204L255.521 4.41968L253.321 13.5036L253.278 18.8281L248.612 25.4683L248.74 32.8625L245.126 37.6443L242.885 42.1421L238.823 44.99L233.026 50.2468L224.247 53.2474L233.017 52.0614L248.07 41.3848L259.117 29.8233L275.184 21.6452L286.18 16.1708L294.775 10.8148L303.023 6.97028L303.431 8.5095L299.521 24.4527L295.028 32.7976L291.359 49.4705L286.292 52.5876L287.495 61.3461L283.263 67.1495L283.247 69.2773L281.45 71.5405L274.95 72.1089L272.91 74.5578L260.311 74.4563L253.576 77.9259L237.83 77.7028L222.156 73.5698L219.627 72.4005L216.82 71.1L219.821 74.2341L224.155 75.7908Z" fill="#FF639A"/>
<path d="M235.071 104.981L238.932 102.277L244.466 100.317L248.642 99.8553L256.508 101.166L262.973 101.196L275.052 98.7038L278.226 100.924L282.683 109.022L283.705 111.204L285.933 117.474L286.064 119.433L283.5 120.223L281.352 118.094L279.03 114.689L274.149 110.013L268.57 106.967L262.079 107.535L239.317 116.854L231.983 117.817L226.625 115.372L220.182 111.738L204.57 97.4758L200.532 90.3008L206.782 91.1887L213.672 92.5092L220.381 91.7737L224.254 89.1566L224.66 89.5919L235.071 104.981Z" fill="#FF639A"/>
<path d="M112.142 88.0494C113.966 88.0494 115.582 88.3694 116.99 89.0094C118.398 89.6174 119.486 90.4814 120.254 91.6014C121.022 92.7214 121.406 93.9854 121.406 95.3934C121.406 97.2494 120.846 98.9454 119.726 100.481C118.606 102.017 117.102 103.201 115.214 104.033C116.59 104.673 117.678 105.617 118.478 106.865C119.278 108.081 119.678 109.457 119.678 110.993C119.678 113.041 119.07 114.833 117.854 116.369C116.67 117.873 115.07 119.025 113.054 119.825C111.07 120.625 108.91 121.025 106.574 121.025H87.8062L94.6702 88.0494H112.142ZM107.246 100.865C108.526 100.865 109.566 100.545 110.366 99.9054C111.166 99.2334 111.566 98.3854 111.566 97.3614C111.534 96.8174 111.31 96.4334 110.894 96.2094C110.478 95.9854 109.806 95.8734 108.878 95.8734H102.302L101.294 100.865H107.246ZM106.046 113.201C107.358 113.201 108.43 112.865 109.262 112.193C110.126 111.521 110.558 110.641 110.558 109.553C110.558 108.977 110.334 108.561 109.886 108.305C109.438 108.049 108.718 107.921 107.726 107.921H99.8062L98.7022 113.201H106.046Z" fill="#FF639A"/>
<path d="M70.9101 121.601C68.1901 121.601 65.8221 121.089 63.8061 120.065C61.7901 119.009 60.2381 117.569 59.1501 115.745C58.0621 113.889 57.5181 111.761 57.5181 109.361C57.5181 108.209 57.6301 107.089 57.8541 106.001L61.5981 88.0494H70.9101L67.1181 106.289C66.9581 107.089 66.8781 107.761 66.8781 108.305C66.8781 109.809 67.2781 110.993 68.0781 111.857C68.9101 112.721 70.0461 113.153 71.4861 113.153C73.4701 113.153 75.2781 112.417 76.9101 110.945C78.5741 109.473 79.6301 107.665 80.0781 105.521L83.6781 88.0494H92.9901L89.1021 106.769C88.4941 109.713 87.3261 112.305 85.5981 114.545C83.8701 116.785 81.7261 118.529 79.1661 119.777C76.6061 120.993 73.8541 121.601 70.9101 121.601Z" fill="#FF639A"/>
<path d="M42.3093 112.721H57.5733L55.8453 121.025H31.1733L38.0373 88.0494H47.3493L42.3093 112.721Z" fill="#FF639A"/>
<path d="M15.8961 121.601C13.2081 121.601 10.7121 120.945 8.40807 119.633C6.10407 118.321 4.26407 116.529 2.88807 114.257C1.54407 111.985 0.87207 109.473 0.87207 106.721C0.87207 103.425 1.84807 100.305 3.80007 97.3614C5.75207 94.3854 8.31207 92.0014 11.4801 90.2094C14.6801 88.3854 18.0241 87.4734 21.5121 87.4734C24.2321 87.4734 26.7441 88.0334 29.0481 89.1534C31.3521 90.2734 33.1921 91.7294 34.5681 93.5214L26.8881 98.9934C26.3441 98.0654 25.5601 97.3294 24.5361 96.7854C23.5441 96.2094 22.3921 95.9214 21.0801 95.9214C19.2881 95.9214 17.5601 96.4334 15.8961 97.4574C14.2321 98.4814 12.8881 99.8094 11.8641 101.441C10.8401 103.073 10.3281 104.769 10.3281 106.529C10.3281 107.873 10.6161 109.057 11.1921 110.081C11.8001 111.073 12.5841 111.841 13.5441 112.385C14.5041 112.897 15.5281 113.153 16.6161 113.153C17.8641 113.153 19.2081 112.817 20.6481 112.145C22.0881 111.441 23.3041 110.561 24.2961 109.505L30.2001 116.033C28.3761 117.665 26.1361 119.009 23.4801 120.065C20.8241 121.089 18.2961 121.601 15.8961 121.601Z" fill="#FF639A"/>
<path d="M78.217 47.0494H87.433L96.601 64.7134L100.393 47.0494H109.705L102.841 80.0254H93.673L84.457 62.3614L80.665 80.0254H71.353L78.217 47.0494Z" fill="#FF639A"/>
<path d="M54.4569 80.6014C51.7369 80.6014 49.3689 80.0894 47.3529 79.0654C45.3369 78.0094 43.7849 76.5694 42.6969 74.7454C41.6089 72.8894 41.0649 70.7614 41.0649 68.3614C41.0649 67.2094 41.1769 66.0894 41.4009 65.0014L45.1449 47.0494H54.4569L50.6649 65.2894C50.5049 66.0894 50.4249 66.7614 50.4249 67.3054C50.4249 68.8094 50.8249 69.9934 51.6249 70.8574C52.4569 71.7214 53.5929 72.1534 55.0329 72.1534C57.0169 72.1534 58.8249 71.4174 60.4569 69.9454C62.1209 68.4734 63.1769 66.6654 63.6249 64.5214L67.2249 47.0494H76.5369L72.6489 65.7694C72.0409 68.7134 70.8729 71.3054 69.1449 73.5454C67.4169 75.7854 65.2729 77.5294 62.7129 78.7774C60.1529 79.9934 57.4009 80.6014 54.4569 80.6014Z" fill="#FF639A"/>
<path d="M41.6973 56.6494C41.6973 59.5294 40.8653 62.0734 39.2013 64.2814C37.5693 66.4894 35.3933 68.0894 32.6733 69.0814L39.2973 80.0254H28.9293L22.9293 70.0894H20.0973L17.9853 80.0254H8.67334L15.5373 47.0494H31.0413C33.1533 47.0494 35.0093 47.4494 36.6093 48.2494C38.2413 49.0494 39.4893 50.1854 40.3533 51.6574C41.2493 53.0974 41.6973 54.7614 41.6973 56.6494ZM21.8253 61.6414H27.2493C28.0493 61.6414 28.8333 61.4334 29.6013 61.0174C30.3693 60.6014 30.9933 60.0734 31.4733 59.4334C31.9533 58.7614 32.1933 58.0894 32.1933 57.4174C32.1933 56.8094 31.9213 56.3454 31.3773 56.0254C30.8653 55.6734 30.1133 55.4974 29.1213 55.4974H23.1213L21.8253 61.6414Z" fill="#FF639A"/>
<path d="M209.388 14.3534H199.644L201.372 6.04938H230.172L228.444 14.3534H218.7L213.564 39.0254H204.252L209.388 14.3534Z" fill="#FF639A"/>
<path d="M179.819 39.6014C177.099 39.6014 174.731 39.0894 172.715 38.0654C170.699 37.0094 169.147 35.5694 168.059 33.7454C166.971 31.8894 166.427 29.7614 166.427 27.3614C166.427 26.2094 166.539 25.0894 166.763 24.0014L170.507 6.04938H179.819L176.027 24.2894C175.867 25.0894 175.787 25.7614 175.787 26.3054C175.787 27.8094 176.187 28.9934 176.987 29.8574C177.819 30.7214 178.955 31.1534 180.395 31.1534C182.379 31.1534 184.187 30.4174 185.819 28.9454C187.483 27.4734 188.539 25.6654 188.987 23.5214L192.587 6.04938H201.899L198.011 24.7694C197.403 27.7134 196.235 30.3054 194.507 32.5454C192.779 34.7854 190.635 36.5294 188.075 37.7774C185.515 38.9934 182.763 39.6014 179.819 39.6014Z" fill="#FF639A"/>
<path d="M151.368 39.6014C148.424 39.6014 145.656 39.0894 143.064 38.0654C140.472 37.0414 138.312 35.6174 136.584 33.7934L142.632 28.0814C143.976 29.3294 145.48 30.2734 147.144 30.9134C148.808 31.5534 150.44 31.8734 152.04 31.8734C153.768 31.8734 155.112 31.5374 156.072 30.8654C157.064 30.1934 157.56 29.4574 157.56 28.6574C157.56 28.3374 157.464 28.0974 157.272 27.9374C157.08 27.7454 156.696 27.5694 156.12 27.4094C155.544 27.2174 154.84 27.0254 154.008 26.8334L152.856 26.5454C150.2 25.8734 148.136 25.2494 146.664 24.6734C145.192 24.0974 143.976 23.2494 143.016 22.1294C142.088 20.9774 141.624 19.4414 141.624 17.5214C141.624 15.2814 142.248 13.2494 143.496 11.4254C144.776 9.56936 146.568 8.11336 148.872 7.05736C151.176 6.00136 153.816 5.47336 156.792 5.47336C159.32 5.47336 161.688 5.87336 163.896 6.67336C166.136 7.47336 168.072 8.64136 169.704 10.1774L164.136 16.3214C162.888 15.2334 161.512 14.4494 160.008 13.9694C158.536 13.4574 157.176 13.2014 155.928 13.2014C154.456 13.2014 153.288 13.5374 152.424 14.2094C151.56 14.8814 151.128 15.6174 151.128 16.4174C151.128 16.8014 151.272 17.1054 151.56 17.3294C151.848 17.5534 152.28 17.7614 152.856 17.9534C153.432 18.1134 154.44 18.3534 155.88 18.6734C158.632 19.3134 160.792 19.9854 162.36 20.6894C163.928 21.3614 165.096 22.2414 165.864 23.3294C166.632 24.3854 167.016 25.7774 167.016 27.5054C167.016 29.9054 166.328 32.0174 164.952 33.8414C163.576 35.6654 161.688 37.0894 159.288 38.1134C156.92 39.1054 154.28 39.6014 151.368 39.6014Z" fill="#FF639A"/>
<path d="M114.084 6.04938H123.396L120.9 17.7134L133.764 6.04938H145.62L130.212 20.0654L139.188 39.0254H128.58L122.772 26.5454L118.5 30.2894L116.532 39.0254H107.22L114.084 6.04938Z" fill="#FF639A"/>
<path d="M89.0439 39.6014C86.1639 39.6014 83.5559 38.9774 81.2199 37.7294C78.8839 36.4494 77.0439 34.7214 75.6999 32.5454C74.3879 30.3374 73.7319 27.8734 73.7319 25.1534C73.7319 21.6014 74.6759 18.3214 76.5639 15.3134C78.4839 12.3054 81.0599 9.92136 84.2919 8.16136C87.5559 6.36936 91.1079 5.47336 94.9479 5.47336C97.8279 5.47336 100.436 6.11336 102.772 7.39336C105.108 8.64136 106.948 10.3694 108.292 12.5774C109.636 14.7534 110.308 17.1854 110.308 19.8734C110.308 23.4254 109.348 26.7214 107.428 29.7614C105.54 32.7694 102.964 35.1694 99.6999 36.9614C96.4359 38.7214 92.8839 39.6014 89.0439 39.6014ZM89.6199 31.1534C91.6039 31.1534 93.4439 30.6574 95.1399 29.6654C96.8679 28.6734 98.2279 27.3454 99.2199 25.6814C100.212 23.9854 100.708 22.1614 100.708 20.2094C100.708 18.4174 100.1 16.9294 98.8839 15.7454C97.6999 14.5294 96.2119 13.9214 94.4199 13.9214C92.4359 13.9214 90.5799 14.4174 88.8519 15.4094C87.1559 16.4014 85.8119 17.7454 84.8199 19.4414C83.8279 21.1054 83.3319 22.9134 83.3319 24.8654C83.3319 26.6574 83.9239 28.1614 85.1079 29.3774C86.3239 30.5614 87.8279 31.1534 89.6199 31.1534Z" fill="#FF639A"/>
<path d="M55.4921 39.6014C52.7721 39.6014 50.4041 39.0894 48.3881 38.0654C46.3721 37.0094 44.8201 35.5694 43.7321 33.7454C42.6441 31.8894 42.1001 29.7614 42.1001 27.3614C42.1001 26.2094 42.2121 25.0894 42.4361 24.0014L46.1801 6.04938H55.4921L51.7001 24.2894C51.5401 25.0894 51.4601 25.7614 51.4601 26.3054C51.4601 27.8094 51.8601 28.9934 52.6601 29.8574C53.4921 30.7214 54.6281 31.1534 56.0681 31.1534C58.0521 31.1534 59.8601 30.4174 61.4921 28.9454C63.1561 27.4734 64.2121 25.6654 64.6601 23.5214L68.2601 6.04938H77.5721L73.6841 24.7694C73.0761 27.7134 71.9081 30.3054 70.1801 32.5454C68.4521 34.7854 66.3081 36.5294 63.7481 37.7774C61.1881 38.9934 58.4361 39.6014 55.4921 39.6014Z" fill="#FF639A"/>
<path d="M26.8429 39.6014C24.5069 39.6014 22.3149 39.0574 20.2669 37.9694C18.2509 36.8494 16.7949 35.4734 15.8989 33.8414L22.7629 28.6094C23.0189 29.4094 23.4669 30.0334 24.1069 30.4814C24.7469 30.9294 25.4349 31.1534 26.1709 31.1534C27.4189 31.1534 28.5549 30.7374 29.5789 29.9054C30.6349 29.0734 31.2909 28.0814 31.5469 26.9294L35.8669 6.04938H45.1789L40.4749 28.6574C40.0269 30.8334 39.1469 32.7534 37.8349 34.4174C36.5549 36.0494 34.9549 37.3294 33.0349 38.2574C31.1469 39.1534 29.0829 39.6014 26.8429 39.6014Z" fill="#FF639A"/>
</svg>
