<svg width="148" height="147" viewBox="0 0 148 147" fill="none" xmlns="http://www.w3.org/2000/svg">
<g clip-path="url(#clip0_355_4)">
<path d="M40.8289 128.145C40.7111 126.835 40.6868 125.518 40.7561 124.204C40.8089 122.673 40.7689 120.853 40.7561 119.335C40.7288 116.282 40.6597 115.591 40.8816 112.218C40.9089 111.814 40.6997 111.121 41.1417 111.188C41.6182 111.278 42.0511 111.293 42.4894 111.357C43.1184 111.425 43.753 111.42 44.3809 111.342C46.3142 111.17 47.9747 110.491 49.868 109.972C50.8829 109.676 54.233 108.169 55.2424 107.752C56.0123 107.402 56.8384 107.194 57.6813 107.137C58.2033 107.104 58.6525 106.954 59.1672 106.971C59.9184 106.987 59.4546 106.855 60.4567 107.046C61.2673 107.224 62.0984 107.289 62.9266 107.239C63.9396 107.212 64.678 107.002 65.3346 106.394C65.9346 105.895 66.3733 105.228 66.595 104.478C66.7768 103.839 66.7023 101.889 66.9587 101.134C67.0187 100.951 67.6117 98.7289 67.8335 97.6461C68.1755 95.8463 68.8648 94.7946 68.772 92.9893C68.6702 91.0012 68.9866 91.303 68.4919 89.4483C68.1827 88.2887 67.6953 86.1999 66.0657 86.1816C65.2782 86.1816 64.7526 86.2164 64.3179 87.0504C63.8414 87.965 63.2903 88.9417 63.0757 89.9037C62.852 90.9006 63.023 91.3999 62.5301 92.3034C61.7517 93.7539 61.2788 95.2866 60.4749 96.6931C59.9711 97.5766 60.0621 98.0741 58.9399 99.1916C58.527 99.6013 58.5325 99.7513 57.976 99.8921C57.4194 100.033 56.7629 99.8775 56.0917 99.9397C52.7143 100.254 53.8547 99.6361 51.1193 99.9031C49.3315 100.086 44.8956 101.151 43.1169 101.366C42.5569 101.418 41.9927 101.403 41.4363 101.321C40.2705 101.158 38.7592 101.738 37.7316 102.052C37.3969 102.18 37.0041 102.18 36.6549 102.327C36.3057 102.473 35.9274 102.692 35.7255 103.044C35.4345 103.563 34.9689 103.744 34.5269 104.108C34.0299 104.515 33.6001 104.999 33.2538 105.542C33.1356 105.714 32.2462 107.089 31.7988 107.554C31.2532 108.147 30.944 108.875 30.5912 109.592C30.3839 110.056 29.0707 113.067 28.9707 113.378C27.9613 116.597 26.9701 120.921 26.9101 122.34C26.8428 124.489 26.0807 126.483 26.0989 128.621C26.0807 129.21 26.0243 129.881 26.4954 130.176C26.75 130.358 28.345 129.481 29.78 129.16C31.837 128.703 34.4706 127.331 37.0368 127.229C39.0701 127.132 40.8925 128.906 40.8289 128.145Z" fill="#FF639A"/>
<path d="M12.2986 93.5721C13.0466 92.492 13.8701 91.467 14.763 90.5048C15.7815 89.3671 16.9146 87.9441 17.8749 86.7735C19.8064 84.4195 20.1956 83.8471 22.52 81.4053C22.8 81.1126 23.0765 80.4469 23.3766 80.7834C23.6858 81.1602 24.0022 81.4474 24.3023 81.7839C24.74 82.2423 25.2282 82.6491 25.7573 82.9965C27.3487 84.1141 29.0529 84.6683 30.8352 85.4932C31.8028 85.9212 35.333 86.9327 36.3733 87.2655C37.1859 87.493 37.9515 87.8646 38.634 88.363C39.0541 88.6739 39.4906 88.855 39.878 89.197C40.4418 89.6945 40.1726 89.2921 40.8183 90.0877C41.3263 90.7472 41.921 91.3342 42.5861 91.8327C43.3809 92.4655 44.0793 92.7819 44.9705 92.7472C45.7463 92.7501 46.5056 92.5223 47.153 92.0924C47.6986 91.7266 48.888 90.1792 49.5664 89.764C49.7247 89.6671 51.6034 88.3429 52.4655 87.6588C53.8769 86.4992 55.079 86.1407 56.1612 84.6976C57.3543 83.1081 57.4034 83.5453 58.2091 81.804C58.7129 80.7066 59.675 78.8007 58.4383 77.7326C57.8399 77.2186 57.4107 76.9113 56.5431 77.268C55.5974 77.6576 54.5425 78.0545 53.7677 78.6508C52.9602 79.2708 52.7729 79.7646 51.8235 80.1432C50.3012 80.7505 48.959 81.6193 47.4422 82.1808C46.491 82.532 46.2418 82.9709 44.6686 83.0953C44.0902 83.1447 44.0011 83.2618 43.4828 83.0112C42.9644 82.7606 42.5625 82.2156 42.0078 81.8278C39.2196 79.8854 40.4891 80.1487 38.2229 78.5867C36.7425 77.5643 32.6594 75.5176 31.1572 74.5281C30.6949 74.2059 30.2724 73.8295 29.8986 73.4069C29.1111 72.529 27.5815 71.9967 26.5994 71.565C26.2611 71.4462 25.9628 71.1992 25.5991 71.0804C25.2251 70.9366 24.815 70.918 24.4296 71.0273C23.8731 71.2377 23.402 71.0767 22.831 71.0694C22.19 71.0594 21.5515 71.152 20.9395 71.3437C20.7376 71.4004 19.1771 71.8778 18.5442 71.9473C17.7494 72.0516 17.0437 72.4064 16.3162 72.7283C15.8597 72.9496 12.9334 74.4019 12.6551 74.5811C9.82333 76.3937 6.30588 79.0696 5.35104 80.1122C3.92515 81.7144 2.0664 82.7478 0.713252 84.3994C0.324042 84.8384 -0.148815 85.314 0.0239649 85.8462C0.107627 86.1443 1.88452 86.5101 3.18856 87.1924C5.05822 88.1691 7.95004 88.8239 9.98157 90.4024C11.6002 91.6589 11.8621 94.1958 12.2986 93.5721Z" fill="#FF639A"/>
<path d="M12.5416 48.6431C13.8052 48.3011 15.0912 48.0487 16.39 47.8877C17.8978 47.6737 19.6638 47.3188 21.1588 47.0408C24.1433 46.4921 24.8071 46.2982 28.1482 45.9306C28.5501 45.8867 29.1867 45.5648 29.2012 46.0092C29.2012 46.4976 29.2558 46.9238 29.2703 47.3737C29.3131 48.0086 29.4284 48.6365 29.6141 49.2448C30.1179 51.1306 31.0691 52.656 31.9075 54.4411C32.3749 55.394 34.4337 58.4504 35.0157 59.3795C35.4926 60.0815 35.84 60.864 36.0415 61.6896C36.1652 62.1999 36.3834 62.6188 36.4616 63.1309C36.5762 63.8771 36.6253 63.3943 36.6126 64.4222C36.5798 65.2554 36.66 66.0891 36.8509 66.9005C37.0546 67.8992 37.3965 68.5942 38.0967 69.1393C38.6906 69.6457 39.4202 69.9639 40.1937 70.0538C40.8521 70.127 42.7399 69.7081 43.5293 69.8288C43.7111 69.8563 45.9991 70.0575 47.0976 70.0886C48.9164 70.1142 50.0695 70.6172 51.8264 70.2111C53.756 69.7648 53.5141 70.1306 55.2456 69.3185C56.3277 68.8101 58.2865 67.9651 58.0228 66.3464C57.8937 65.5672 57.7609 65.0532 56.8679 64.7661C55.8931 64.4533 54.8382 64.0783 53.8597 64.0344C52.843 63.9851 52.3847 64.243 51.4153 63.9192C49.8603 63.4016 48.278 63.1986 46.7575 62.6389C45.8027 62.2932 45.3316 62.4688 44.044 61.5524C43.5693 61.2141 43.4256 61.247 43.1892 60.7202C42.9527 60.1935 42.9927 59.5149 42.8254 58.8601C41.9306 55.5678 42.7345 56.5921 41.9979 53.9217C41.5159 52.1823 39.6954 47.9736 39.177 46.2397C39.0302 45.694 38.9472 45.133 38.9297 44.568C38.8878 43.3846 38.0585 41.989 37.5802 41.0233C37.3983 40.7142 37.3292 40.3283 37.1255 40.0063C36.9301 39.6541 36.6272 39.3745 36.2616 39.2089C35.7014 39.0113 35.4432 38.5834 35.0103 38.2066C34.5254 37.7854 33.9772 37.444 33.3861 37.1951C33.1952 37.1073 31.6947 36.4635 31.1655 36.1086C30.4907 35.6752 29.7232 35.4923 28.9593 35.2673C28.4683 35.1411 25.2982 34.3619 24.9708 34.3199C21.6425 33.8791 17.2376 33.6541 15.8408 33.8333C13.7237 34.1406 11.6395 33.7309 9.54792 34.1223C8.96775 34.2064 8.30209 34.265 8.09293 34.7844C7.96562 35.0661 9.09505 36.4946 9.65704 37.8609C10.4646 39.818 12.2615 42.1884 12.8089 44.7125C13.229 46.7262 11.8068 48.8388 12.5416 48.6431Z" fill="#FF639A"/>
<path d="M41.4452 14.386C42.6319 14.9397 43.7782 15.5772 44.8753 16.2937C46.1666 17.1058 47.7544 17.9801 49.0693 18.7282C51.7102 20.2317 52.3431 20.517 55.133 22.3863C55.4695 22.6131 56.1679 22.7722 55.8914 23.127C55.575 23.4928 55.3458 23.8586 55.0712 24.2244C54.6982 24.7385 54.3851 25.2939 54.1382 25.8797C53.3197 27.6502 53.0742 29.4354 52.5741 31.3431C52.3231 32.3747 51.9448 36.0474 51.8011 37.1338C51.7156 37.9794 51.4816 38.8031 51.11 39.5664C50.8772 40.0365 50.7771 40.4993 50.5098 40.9437C50.1206 41.5894 50.4661 41.251 49.8005 42.0302C49.2422 42.6467 48.7704 43.3372 48.3982 44.0824C47.9163 44.9786 47.7289 45.7285 47.9217 46.6028C48.0523 47.3753 48.408 48.0915 48.9439 48.6604C49.3985 49.1415 51.1263 50.045 51.6429 50.645C51.7647 50.784 53.387 52.4155 54.2091 53.1507C55.5877 54.3469 56.1479 55.4754 57.7484 56.2967C59.5125 57.2112 59.0942 57.3264 60.9384 57.8221C62.0915 58.133 64.134 58.7513 64.9651 57.3411C65.3653 56.6607 65.5908 56.1814 65.0906 55.3858C64.545 54.5152 63.9757 53.5458 63.2555 52.8764C62.508 52.1832 61.9824 52.0844 61.4568 51.2101C60.5965 49.8072 59.5144 48.6293 58.7014 47.2246C58.1903 46.343 57.7174 46.1729 57.3173 44.6384C57.17 44.0732 57.0391 44.0037 57.1955 43.4495C57.3519 42.8953 57.8138 42.3978 58.0958 41.7832C59.5144 38.683 59.478 39.9871 60.6147 37.4704C61.3567 35.8242 62.6517 31.4345 63.361 29.7683C63.5962 29.2547 63.8911 28.7709 64.2395 28.327C64.967 27.3942 65.2198 25.7865 65.4708 24.7402C65.5271 24.3744 65.7217 24.0452 65.7726 23.6648C65.8236 23.2843 65.8254 22.8454 65.6199 22.496C65.318 21.9839 65.3944 21.4882 65.3016 20.9212C65.2004 20.2836 64.999 19.6662 64.705 19.0922C64.6141 18.9093 63.8757 17.446 63.6975 16.826C63.4574 16.0578 62.9882 15.4213 62.5462 14.7555C62.2498 14.3421 60.3183 11.6955 60.0964 11.4504C57.8284 8.96293 54.5983 5.94318 53.4125 5.17681C51.5938 4.04463 50.2588 2.38204 48.4073 1.33582C47.9108 1.02489 47.3616 0.640792 46.8723 0.904174C46.594 1.03769 46.5449 2.86125 46.103 4.27144C45.4701 6.28339 45.3318 9.2702 44.1387 11.5565C43.1966 13.3599 40.7523 14.0605 41.4452 14.386Z" fill="#FF639A"/>
<path d="M85.4827 6.82873C86.0384 8.02015 86.5089 9.24996 86.8904 10.5088C87.3633 11.972 88.0199 13.6602 88.5473 15.0814C89.6113 17.9401 89.9113 18.5657 90.8498 21.8104C90.9626 22.2 91.3954 22.7743 90.9553 22.8676C90.477 22.9462 90.0714 23.0798 89.6313 23.173C89.017 23.3268 88.4221 23.5501 87.858 23.8388C86.1011 24.6655 84.7661 25.8745 83.1693 27.014C82.3163 27.6414 79.6809 30.2112 78.8752 30.9501C78.2693 31.5429 77.5636 32.0228 76.791 32.3676C76.3126 32.5761 75.9398 32.867 75.4505 33.0334C74.7394 33.2748 75.2214 33.2401 74.2138 33.3992C73.3917 33.5107 72.5888 33.7354 71.8276 34.0668C70.8837 34.4326 70.2635 34.8917 69.8506 35.6873C69.4578 36.3638 69.273 37.1422 69.3196 37.9243C69.3596 38.5882 70.0998 40.3916 70.118 41.1891C70.118 41.372 70.3235 43.6748 70.4817 44.7685C70.7746 46.5774 70.4817 47.8029 71.1838 49.4673C71.9567 51.2964 71.5475 51.1244 72.6515 52.6974C73.3354 53.6814 74.5048 55.4757 76.0435 54.9325C76.7855 54.6691 77.2638 54.4478 77.3911 53.515C77.5275 52.4944 77.7112 51.3842 77.5876 50.4056C77.4584 49.3905 77.1256 48.9808 77.2748 47.9657C77.513 46.3342 77.4366 44.7319 77.7112 43.1297C77.8931 42.1255 77.6312 41.6902 78.3041 40.2544C78.5515 39.7277 78.4969 39.5887 78.9716 39.2649C79.4463 38.9412 80.1174 38.8607 80.7267 38.5717C83.7931 37.1085 82.9328 38.0889 85.41 36.8963C87.0305 36.1153 90.8353 33.5839 92.4376 32.77C92.9466 32.5292 93.4819 32.3493 94.0326 32.2341C95.1839 31.9872 96.397 30.9227 97.2682 30.2825C97.5391 30.0466 97.9047 29.9167 98.1775 29.6552C98.4503 29.3936 98.7413 29.0589 98.8068 28.6602C98.905 28.073 99.2797 27.7456 99.5707 27.2481C99.8999 26.6947 100.139 26.0921 100.28 25.463C100.333 25.26 100.702 23.6632 100.958 23.0761C101.266 22.3317 101.322 21.5397 101.4 20.7459C101.437 20.2374 101.649 16.9616 101.635 16.6287C101.489 13.2578 100.944 8.85532 100.526 7.50183C99.8562 5.46062 99.8962 3.32429 99.1505 1.32149C98.9687 0.761804 98.7868 0.112496 98.2412 -0.00273356C97.9429 -0.0795533 96.7389 1.2776 95.4985 2.08055C93.7234 3.21821 91.7119 5.41122 89.3366 6.39159C87.4797 7.17259 85.1644 6.13186 85.4827 6.82873Z" fill="#FF639A"/>
<path d="M124.051 29.5084C123.715 30.7795 123.289 32.0252 122.778 33.236C122.207 34.6571 121.627 36.3801 121.121 37.8086C120.108 40.6875 119.937 41.3606 118.575 44.4535C118.413 44.8193 118.379 45.5509 117.982 45.3314C117.564 45.0827 117.169 44.9217 116.773 44.7095C116.204 44.43 115.606 44.2159 114.99 44.0712C113.113 43.5682 111.324 43.6359 109.368 43.4731C108.314 43.4018 104.652 43.667 103.563 43.7109C102.72 43.7749 101.872 43.6863 101.06 43.4493C100.56 43.3012 100.089 43.2829 99.6055 43.0945C98.9053 42.8201 99.2963 43.1055 98.4179 42.5805C97.7172 42.1345 96.959 41.7874 96.1644 41.549C95.2023 41.227 94.4366 41.1704 93.6182 41.5142C92.8851 41.7781 92.246 42.2541 91.7812 42.8823C91.3884 43.4182 90.8028 45.2784 90.3062 45.9002C90.1917 46.0466 88.8767 47.936 88.3056 48.8779C87.3726 50.4509 86.3669 51.2026 85.8394 52.9293C85.2593 54.8351 85.0646 54.44 84.8991 56.3532C84.7955 57.5494 84.5354 59.6802 86.0686 60.2582C86.7961 60.5362 87.3144 60.6771 88.0074 60.0442C88.764 59.351 89.6151 58.6194 90.1444 57.789C90.69 56.9294 90.7027 56.4008 91.4648 55.7185C92.6888 54.6211 93.6473 53.3408 94.8895 52.2964C95.6625 51.6398 95.7479 51.1423 97.1811 50.4674C97.7085 50.2241 97.754 50.0833 98.3251 50.1418C98.8962 50.2003 99.46 50.5716 100.113 50.7454C103.387 51.6105 102.114 51.8007 104.773 52.4885C106.511 52.9402 111.045 53.4578 112.793 53.8712C113.337 54.0162 113.862 54.2243 114.357 54.4912C115.396 55.04 117.014 55.0217 118.082 55.0893C118.446 55.0893 118.81 55.2174 119.188 55.2009C119.566 55.1845 120.001 55.1095 120.305 54.8461C120.756 54.4583 121.254 54.4473 121.794 54.259C122.4 54.0456 122.969 53.7369 123.478 53.3444C123.647 53.2219 124.951 52.236 125.523 51.9525C126.234 51.5867 126.776 51.0051 127.35 50.4546C127.703 50.0888 129.96 47.711 130.162 47.4531C132.205 44.7754 134.6 41.0515 135.144 39.7437C135.938 37.7464 137.326 36.1368 138.043 34.1194C138.259 33.5707 138.543 32.9634 138.199 32.5226C138.017 32.2721 136.224 32.5391 134.767 32.3397C132.679 32.0636 129.738 32.4422 127.292 31.6593C125.359 31.0576 124.249 28.764 124.051 29.5084Z" fill="#FF639A"/>
<path d="M139.101 71.8018C138.03 72.5581 136.907 73.2372 135.741 73.8339C134.397 74.5545 132.851 75.4983 131.558 76.2702C128.943 77.8194 128.381 78.2254 125.375 79.7179C125.011 79.9008 124.525 80.4276 124.358 80.0069C124.196 79.546 123.994 79.1674 123.829 78.7485C123.572 78.1649 123.251 77.6126 122.87 77.1024C121.755 75.5038 120.342 74.399 118.947 73.009C118.185 72.2774 115.21 70.1099 114.348 69.4387C113.661 68.9432 113.069 68.328 112.598 67.6225C112.309 67.1853 111.961 66.8652 111.712 66.4116C111.348 65.7495 111.468 66.2287 111.132 65.2502C110.881 64.4551 110.521 63.6987 110.064 63.0023C109.533 62.1335 108.984 61.5976 108.133 61.3269C107.402 61.0548 106.608 61.0065 105.85 61.1879C105.208 61.3452 103.57 62.3896 102.793 62.5469C102.611 62.5834 100.394 63.1815 99.352 63.5291C97.6297 64.1326 96.3784 64.0558 94.8724 65.0399C93.2101 66.1226 93.312 65.6946 91.9625 67.0518C91.1186 67.9005 89.5636 69.371 90.3638 70.7995C90.7494 71.489 91.0495 71.9244 91.9843 71.8969C93.0082 71.8567 94.1268 71.8457 95.0634 71.5512C96.0346 71.2476 96.3784 70.8489 97.3987 70.8196C99.0355 70.7739 100.592 70.4191 102.207 70.4136C103.222 70.4136 103.604 70.0825 105.128 70.5014C105.687 70.655 105.812 70.5764 106.22 70.9897C106.627 71.4031 106.814 72.0542 107.204 72.6084C109.164 75.3922 108.06 74.7082 109.657 76.9561C110.703 78.4193 113.84 81.7536 114.919 83.2004C115.243 83.6621 115.511 84.1606 115.719 84.6856C116.161 85.783 117.416 86.8091 118.192 87.5517C118.471 87.7803 118.665 88.1187 118.967 88.351C119.269 88.5833 119.647 88.8082 120.049 88.8027C120.644 88.8027 121.031 89.11 121.566 89.3149C122.165 89.5449 122.797 89.677 123.438 89.7063C123.645 89.7227 125.273 89.8106 125.893 89.9642C126.675 90.1471 127.459 90.0483 128.257 89.9971C128.761 89.9459 132.006 89.5856 132.328 89.5142C135.601 88.7826 139.821 87.4804 141.072 86.8292C142.956 85.8141 145.055 85.4812 146.892 84.3947C147.407 84.1167 148.012 83.8314 148.031 83.2735C148.054 82.9644 146.508 82.0097 145.515 80.9196C144.091 79.3576 141.596 77.748 140.225 75.566C139.108 73.8394 139.724 71.3647 139.101 71.8018Z" fill="#FF639A"/>
<path d="M123.593 113.937C122.29 113.824 120.996 113.62 119.721 113.324C118.23 113.006 116.447 112.73 114.952 112.479C111.959 111.974 111.269 111.931 108.005 111.118C107.614 111.021 106.902 111.118 107.042 110.683C107.213 110.226 107.301 109.805 107.441 109.375C107.617 108.765 107.722 108.136 107.755 107.501C107.923 105.555 107.546 103.793 107.366 101.831C107.252 100.773 106.357 97.1921 106.124 96.1221C105.914 95.2984 105.853 94.4436 105.942 93.5981C106 93.0768 105.942 92.6067 106.039 92.0982C106.186 91.3666 105.973 91.7946 106.335 90.8344C106.65 90.0625 106.859 89.2508 106.955 88.4219C107.102 87.4141 107.024 86.6477 106.546 85.8905C106.16 85.2094 105.582 84.6588 104.885 84.3084C104.293 84.0121 102.37 83.7596 101.675 83.3719C101.512 83.2823 99.4328 82.3092 98.4016 81.9087C96.6975 81.2593 95.7881 80.3924 94.0039 80.1711C92.0397 79.926 92.3907 79.6644 90.4883 79.8327C89.2988 79.9388 87.1691 80.0595 86.869 81.6709C86.7235 82.4482 86.6744 82.9768 87.4146 83.5511C88.224 84.1822 89.0897 84.8973 89.9936 85.2778C90.932 85.6728 91.4486 85.5887 92.2506 86.2252C93.5365 87.2476 94.9533 87.9829 96.1955 89.0236C96.9739 89.6748 97.4686 89.6729 98.378 90.977C98.709 91.4562 98.8545 91.4764 98.8963 92.0525C98.9381 92.6287 98.6726 93.2524 98.6162 93.9291C98.338 97.3275 97.9288 96.091 97.7069 98.8456C97.5686 100.647 97.8469 105.227 97.7469 107.029C97.7 107.592 97.587 108.149 97.4104 108.686C97.0467 109.811 97.354 111.409 97.4741 112.479C97.5414 112.834 97.4741 113.211 97.5559 113.593C97.6377 113.975 97.7851 114.381 98.1015 114.639C98.5598 115.018 98.6581 115.51 98.9363 116.011C99.2485 116.574 99.6475 117.083 100.119 117.52C100.268 117.668 101.459 118.788 101.835 119.305C102.323 119.945 102.981 120.381 103.621 120.854C104.042 121.142 106.755 122.963 107.048 123.117C110.025 124.675 114.088 126.409 115.463 126.715C117.557 127.154 119.375 128.255 121.474 128.608C122.047 128.728 122.693 128.902 123.064 128.485C123.28 128.264 122.7 126.534 122.642 125.056C122.549 122.94 121.667 120.094 122.009 117.535C122.294 115.503 124.35 114.01 123.593 113.937Z" fill="#FF639A"/>
<path d="M84.781 136.189C83.8549 135.26 82.9949 134.266 82.2075 133.215C81.269 132.008 80.0759 130.642 79.0938 129.486C77.1241 127.165 76.6275 126.678 74.6433 123.953C74.405 123.626 73.8012 123.236 74.1832 122.996C74.6069 122.757 74.9416 122.492 75.3235 122.254C75.8493 121.899 76.3327 121.485 76.764 121.019C78.1353 119.638 78.9737 118.045 80.0904 116.425C80.6779 115.541 82.2729 112.218 82.7876 111.248C83.155 110.483 83.655 109.789 84.2644 109.2C84.6427 108.834 84.8937 108.437 85.2957 108.113C85.8831 107.64 85.4412 107.839 86.3324 107.336C87.0664 106.948 87.7444 106.462 88.3475 105.889C89.1059 105.213 89.537 104.574 89.6534 103.695C89.7926 102.924 89.7021 102.129 89.3933 101.41C89.1277 100.799 87.8201 99.3597 87.5309 98.6171C87.4636 98.4342 86.4942 96.3528 85.9722 95.3797C85.0829 93.7793 84.9392 92.5264 83.7152 91.204C82.3657 89.7408 82.8058 89.7737 81.2381 88.6744C80.2596 87.9849 78.55 86.7009 77.2896 87.7416C76.6821 88.2428 76.3075 88.6159 76.5057 89.5359C76.7239 90.5419 76.9276 91.6485 77.3787 92.5246C77.8443 93.4391 78.2881 93.7043 78.5009 94.7085C78.8319 96.3235 79.4484 97.8032 79.7358 99.4018C79.9177 100.406 80.3014 100.728 80.1559 102.31C80.1032 102.89 80.2014 102.999 79.8667 103.468C79.5321 103.936 78.9264 104.241 78.4518 104.724C76.0656 107.148 76.5439 105.937 74.6215 107.909C73.3629 109.198 70.6494 112.887 69.4199 114.202C69.0236 114.604 68.5817 114.958 68.1031 115.256C67.1065 115.883 66.3189 117.304 65.726 118.202C65.5442 118.517 65.255 118.768 65.0786 119.117C64.9021 119.466 64.7494 119.871 64.8239 120.267C64.9331 120.855 64.693 121.294 64.5875 121.859C64.4663 122.492 64.446 123.14 64.5275 123.779C64.5475 123.988 64.7439 125.608 64.7093 126.256C64.673 127.061 64.8912 127.821 65.0858 128.599C65.2241 129.089 66.1389 132.239 66.2662 132.546C67.5502 135.664 69.5599 139.613 70.4129 140.74C71.7351 142.43 72.4244 144.451 73.8067 146.077C74.1704 146.54 74.5524 147.09 75.1034 147.012C75.4108 146.981 76.0765 145.283 76.9713 144.111C78.2535 142.43 79.3975 139.679 81.2945 137.94C82.7876 136.55 85.312 136.731 84.781 136.189Z" fill="#FF639A"/>
</g>
<defs>
<clipPath id="clip0_355_4">
<rect width="148" height="147" fill="white"/>
</clipPath>
</defs>
</svg>
