<svg fill="none" height="147" viewBox="0 0 148 147" width="148" xmlns="http://www.w3.org/2000/svg" xmlns:xlink="http://www.w3.org/1999/xlink"><clipPath id="a"><path d="m0 0h148v147h-148z"/></clipPath><g clip-path="url(#a)" fill="#ff639a"><path d="m40.8289 128.145c-.1178-1.31-.1421-2.627-.0728-3.941.0528-1.531.0128-3.351 0-4.869-.0273-3.053-.0964-3.744.1255-7.117.0273-.404-.1819-1.097.2601-1.03.4765.09.9094.105 1.3477.169.629.068 1.2636.063 1.8915-.015 1.9333-.172 3.5938-.851 5.4871-1.37 1.0149-.296 4.365-1.803 5.3744-2.22.7699-.35 1.596-.558 2.4389-.615.522-.033.9712-.183 1.4859-.166.7512.016.2874-.116 1.2895.075.8106.178 1.6417.243 2.4699.193 1.013-.027 1.7514-.237 2.408-.845.6-.499 1.0387-1.166 1.2604-1.916.1818-.639.1073-2.589.3637-3.344.06-.183.653-2.4051.8748-3.4879.342-1.7998 1.0313-2.8515.9385-4.6568-.1018-1.9881.2146-1.6863-.2801-3.541-.3092-1.1596-.7966-3.2484-2.4262-3.2667-.7875 0-1.3131.0348-1.7478.8688-.4765.9146-1.0276 1.8913-1.2422 2.8533-.2237.9969-.0527 1.4962-.5456 2.3997-.7784 1.4505-1.2513 2.9832-2.0552 4.3897-.5038.8835-.4128 1.381-1.535 2.4985-.4129.4097-.4074.5597-.9639.7005-.5566.1409-1.2131-.0146-1.8843.0476-3.3774.3143-2.237-.3036-4.9724-.0366-1.7878.1829-6.2237 1.2479-8.0024 1.4629-.56.052-1.1242.037-1.6806-.045-1.1658-.163-2.6771.417-3.7047.731-.3347.128-.7275.128-1.0767.275-.3492.146-.7275.365-.9294.717-.291.519-.7566.7-1.1986 1.064-.497.407-.9268.891-1.2731 1.434-.1182.172-1.0076 1.547-1.455 2.012-.5456.593-.8548 1.321-1.2076 2.038-.2073.464-1.5205 3.475-1.6205 3.786-1.0094 3.219-2.0006 7.543-2.0606 8.962-.0673 2.149-.8294 4.143-.8112 6.281-.0182.589-.0746 1.26.3965 1.555.2546.182 1.8496-.695 3.2846-1.016 2.057-.457 4.6906-1.829 7.2568-1.931 2.0333-.097 3.8557 1.677 3.7921.916z"/><path d="m12.2986 93.5721c.748-1.0801 1.5715-2.1051 2.4644-3.0673 1.0185-1.1377 2.1516-2.5607 3.1119-3.7313 1.9315-2.354 2.3207-2.9264 4.6451-5.3682.28-.2927.5565-.9584.8566-.6219.3092.3768.6256.664.9257 1.0005.4377.4584.9259.8652 1.455 1.2126 1.5914 1.1176 3.2956 1.6718 5.0779 2.4967.9676.428 4.4978 1.4395 5.5381 1.7723.8126.2275 1.5782.5991 2.2607 1.0975.4201.3109.8566.492 1.244.834.5638.4975.2946.0951.9403.8907.508.6595 1.1027 1.2465 1.7678 1.745.7948.6328 1.4932.9492 2.3844.9145.7758.0029 1.5351-.2249 2.1825-.6548.5456-.3658 1.735-1.9132 2.4134-2.3284.1583-.0969 2.037-1.4211 2.8991-2.1052 1.4114-1.1596 2.6135-1.5181 3.6957-2.9612 1.1931-1.5895 1.2422-1.1523 2.0479-2.8936.5038-1.0974 1.4659-3.0033.2292-4.0714-.5984-.514-1.0276-.8213-1.8952-.4646-.9457.3896-2.0006.7865-2.7754 1.3828-.8075.62-.9948 1.1138-1.9442 1.4924-1.5223.6073-2.8645 1.4761-4.3813 2.0376-.9512.3512-1.2004.7901-2.7736.9145-.5784.0494-.6675.1665-1.1858-.0841-.5184-.2506-.9203-.7956-1.475-1.1834-2.7882-1.9424-1.5187-1.6791-3.7849-3.2411-1.4804-1.0224-5.5635-3.0691-7.0657-4.0586-.4623-.3222-.8848-.6986-1.2586-1.1212-.7875-.8779-2.3171-1.4102-3.2992-1.8419-.3383-.1188-.6366-.3658-1.0003-.4846-.374-.1438-.7841-.1624-1.1695-.0531-.5565.2104-1.0276.0494-1.5986.0421-.641-.01-1.2795.0826-1.8915.2743-.2019.0567-1.7624.5341-2.3953.6036-.7948.1043-1.5005.4591-2.228.781-.4565.2213-3.3828 1.6736-3.6611 1.8528-2.83177 1.8126-6.34922 4.4885-7.30406 5.5311-1.42589 1.6022-3.28464 2.6356-4.637788 4.2872-.38921.439-.862067.9146-.6892871 1.4468.0836621.2981 1.8605551.6639 3.1645951 1.3462 1.86966.9767 4.76148 1.6315 6.79301 3.21 1.61863 1.2565 1.88053 3.7934 2.31703 3.1697z"/><path d="m12.5416 48.6431c1.2636-.342 2.5496-.5944 3.8484-.7554 1.5078-.214 3.2738-.5689 4.7688-.8469 2.9845-.5487 3.6483-.7426 6.9894-1.1102.4019-.0439 1.0385-.3658 1.053.0786 0 .4884.0546.9146.0691 1.3645.0428.6349.1581 1.2628.3438 1.8711.5038 1.8858 1.455 3.4112 2.2934 5.1963.4674.9529 2.5262 4.0093 3.1082 4.9384.4769.702.8243 1.4845 1.0258 2.3101.1237.5103.3419.9292.4201 1.4413.1146.7462.1637.2634.151 1.2913-.0328.8332.0474 1.6669.2383 2.4783.2037.9987.5456 1.6937 1.2458 2.2388.5939.5064 1.3235.8246 2.097.9145.6584.0732 2.5462-.3457 3.3356-.225.1818.0275 2.4698.2287 3.5683.2598 1.8188.0256 2.9719.5286 4.7288.1225 1.9296-.4463 1.6877-.0805 3.4192-.8926 1.0821-.5084 3.0409-1.3534 2.7772-2.9721-.1291-.7792-.2619-1.2932-1.1549-1.5803-.9748-.3128-2.0297-.6878-3.0082-.7317-1.0167-.0493-1.475.2086-2.4444-.1152-1.555-.5176-3.1373-.7206-4.6578-1.2803-.9548-.3457-1.4259-.1701-2.7135-1.0865-.4747-.3383-.6184-.3054-.8548-.8322-.2365-.5267-.1965-1.2053-.3638-1.8601-.8948-3.2923-.0909-2.268-.8275-4.9384-.482-1.7394-2.3025-5.9481-2.8209-7.682-.1468-.5457-.2298-1.1067-.2473-1.6717-.0419-1.1834-.8712-2.579-1.3495-3.5447-.1819-.3091-.251-.695-.4547-1.017-.1954-.3522-.4983-.6318-.8639-.7974-.5602-.1976-.8184-.6255-1.2513-1.0023-.4849-.4212-1.0331-.7626-1.6242-1.0115-.1909-.0878-1.6914-.7316-2.2206-1.0865-.6748-.4334-1.4423-.6163-2.2062-.8413-.491-.1262-3.6611-.9054-3.9885-.9474-3.3283-.4408-7.7332-.6658-9.13-.4866-2.1171.3073-4.2013-.1024-6.29288.289-.58017.0841-1.24583.1427-1.45499.6621-.12731.2817 1.00212 1.7102 1.56411 3.0765.80756 1.9571 2.60446 4.3275 3.15186 6.8516.4201 2.0137-1.0021 4.1263-.2673 3.9306z"/><path d="m41.4452 14.386c1.1867.5537 2.333 1.1912 3.4301 1.9077 1.2913.8121 2.8791 1.6864 4.194 2.4345 2.6409 1.5035 3.2738 1.7888 6.0637 3.6581.3365.2268 1.0349.3859.7584.7407-.3164.3658-.5456.7316-.8202 1.0974-.373.5141-.6861 1.0695-.933 1.6553-.8185 1.7705-1.064 3.5557-1.5641 5.4634-.251 1.0316-.6293 4.7043-.773 5.7907-.0855.8456-.3195 1.6693-.6911 2.4326-.2328.4701-.3329.9329-.6002 1.3773-.3892.6457-.0437.3073-.7093 1.0865-.5583.6165-1.0301 1.307-1.4023 2.0522-.4819.8962-.6693 1.6461-.4765 2.5204.1306.7725.4863 1.4887 1.0222 2.0576.4546.4811 2.1824 1.3846 2.699 1.9846.1218.139 1.7441 1.7705 2.5662 2.5057 1.3786 1.1962 1.9388 2.3247 3.5393 3.146 1.7641.9145 1.3458 1.0297 3.19 1.5254 1.1531.3109 3.1956.9292 4.0267-.481.4002-.6804.6257-1.1597.1255-1.9553-.5456-.8706-1.1149-1.84-1.8351-2.5094-.7475-.6932-1.2731-.792-1.7987-1.6663-.8603-1.4029-1.9424-2.5808-2.7554-3.9855-.5111-.8816-.984-1.0517-1.3841-2.5862-.1473-.5652-.2782-.6347-.1218-1.1889s.6183-1.0517.9003-1.6663c1.4186-3.1002 1.3822-1.7961 2.5189-4.3128.742-1.6462 2.037-6.0359 2.7463-7.7021.2352-.5136.5301-.9974.8785-1.4413.7275-.9328.9803-2.5405 1.2313-3.5868.0563-.3658.2509-.695.3018-1.0754.051-.3805.0528-.8194-.1527-1.1688-.3019-.5121-.2255-1.0078-.3183-1.5748-.1012-.6376-.3026-1.255-.5966-1.829-.0909-.1829-.8293-1.6462-1.0075-2.2662-.2401-.7682-.7093-1.4047-1.1513-2.0705-.2964-.4134-2.2279-3.06-2.4498-3.3051-2.268-2.48747-5.4981-5.50722-6.6839-6.27359-1.8187-1.13218-3.1537-2.79477-5.0052-3.84099-.4965-.31093-1.0457-.695028-1.535-.431646-.2783.133516-.3274 1.957076-.7693 3.367266-.6329 2.01195-.7712 4.99876-1.9643 7.28506-.9421 1.8034-3.3864 2.504-2.6935 2.8295z"/><path d="m85.4827 6.82873c.5557 1.19142 1.0262 2.42123 1.4077 3.68007.4729 1.4632 1.1295 3.1514 1.6569 4.5726 1.064 2.8587 1.364 3.4843 2.3025 6.729.1128.3896.5456.9639.1055 1.0572-.4783.0786-.8839.2122-1.324.3054-.6143.1538-1.2092.3771-1.7733.6658-1.7569.8267-3.0919 2.0357-4.6887 3.1752-.853.6274-3.4884 3.1972-4.2941 3.9361-.6059.5928-1.3116 1.0727-2.0842 1.4175-.4784.2085-.8512.4994-1.3405.6658-.7111.2414-.2291.2067-1.2367.3658-.8221.1115-1.625.3362-2.3862.6676-.9439.3658-1.5641.8249-1.977 1.6205-.3928.6765-.5776 1.4549-.531 2.237.04.6639.7802 2.4673.7984 3.2648 0 .1829.2055 2.4857.3637 3.5794.2929 1.8089 0 3.0344.7021 4.6988.7729 1.8291.3637 1.6571 1.4677 3.2301.6839.984 1.8533 2.7783 3.392 2.2351.742-.2634 1.2203-.4847 1.3476-1.4175.1364-1.0206.3201-2.1308.1965-3.1094-.1292-1.0151-.462-1.4248-.3128-2.4399.2382-1.6315.1618-3.2338.4364-4.836.1819-1.0042-.08-1.4395.5929-2.8753.2474-.5267.1928-.6657.6675-.9895.4747-.3237 1.1458-.4042 1.7551-.6932 3.0664-1.4632 2.2061-.4828 4.6833-1.6754 1.6205-.781 5.4253-3.3124 7.0276-4.1263.509-.2408 1.0443-.4207 1.595-.5359 1.1513-.2469 2.3644-1.3114 3.2356-1.9516.2709-.2359.6365-.3658.9093-.6273.2728-.2616.5638-.5963.6293-.995.0982-.5872.4729-.9146.7639-1.4121.3292-.5534.5683-1.156.7093-1.7851.053-.203.422-1.7998.678-2.3869.308-.7444.364-1.5364.442-2.3302.037-.5085.249-3.7843.235-4.1172-.146-3.3709-.691-7.77338-1.109-9.12687-.6698-2.04121-.6298-4.17754-1.3755-6.18034-.1818-.559686-.3637-1.208994-.9093-1.32422356-.2983-.07681974-1.5023 1.28033356-2.7427 2.08328356-1.7751 1.13766-3.7866 3.33067-6.1619 4.31104-1.8569.781-4.1722-.25973-3.8539.43714z"/><path d="m124.051 29.5084c-.336 1.2711-.762 2.5168-1.273 3.7276-.571 1.4211-1.151 3.1441-1.657 4.5726-1.013 2.8789-1.184 3.552-2.546 6.6449-.162.3658-.196 1.0974-.593.8779-.418-.2487-.813-.4097-1.209-.6219-.569-.2795-1.167-.4936-1.783-.6383-1.877-.503-3.666-.4353-5.622-.5981-1.054-.0713-4.716.1939-5.805.2378-.843.064-1.691-.0246-2.503-.2616-.5-.1481-.971-.1664-1.4545-.3548-.7002-.2744-.3092.011-1.1876-.514-.7007-.446-1.4589-.7931-2.2535-1.0315-.9621-.322-1.7278-.3786-2.5462-.0348-.7331.2639-1.3722.7399-1.837 1.3681-.3928.5359-.9784 2.3961-1.475 3.0179-.1145.1464-1.4295 2.0358-2.0006 2.9777-.933 1.573-1.9387 2.3247-2.4662 4.0514-.5801 1.9058-.7748 1.5107-.9403 3.4239-.1036 1.1962-.3637 3.327 1.1695 3.905.7275.278 1.2458.4189 1.9388-.214.7566-.6932 1.6077-1.4248 2.137-2.2552.5456-.8596.5583-1.3882 1.3204-2.0705 1.224-1.0974 2.1825-2.3777 3.4247-3.4221.773-.6566.8584-1.1541 2.2916-1.829.5274-.2433.5729-.3841 1.144-.3256s1.1349.4298 1.7879.6036c3.274.8651 2.001 1.0553 4.66 1.7431 1.738.4517 6.272.9693 8.02 1.3827.544.145 1.069.3531 1.564.62 1.039.5488 2.657.5305 3.725.5981.364 0 .728.1281 1.106.1116.378-.0164.813-.0914 1.117-.3548.451-.3878.949-.3988 1.489-.5871.606-.2134 1.175-.5221 1.684-.9146.169-.1225 1.473-1.1084 2.045-1.3919.711-.3658 1.253-.9474 1.827-1.4979.353-.3658 2.61-2.7436 2.812-3.0015 2.043-2.6777 4.438-6.4016 4.982-7.7094.794-1.9973 2.182-3.6069 2.899-5.6243.216-.5487.5-1.156.156-1.5968-.182-.2505-1.975.0165-3.432-.1829-2.088-.2761-5.029.1025-7.475-.6804-1.933-.6017-3.043-2.8953-3.241-2.1509z"/><path d="m139.101 71.8018c-1.071.7563-2.194 1.4354-3.36 2.0321-1.344.7206-2.89 1.6644-4.183 2.4363-2.615 1.5492-3.177 1.9552-6.183 3.4477-.364.1829-.85.7097-1.017.289-.162-.4609-.364-.8395-.529-1.2584-.257-.5836-.578-1.1359-.959-1.6461-1.115-1.5986-2.528-2.7034-3.923-4.0934-.762-.7316-3.737-2.8991-4.599-3.5703-.687-.4955-1.279-1.1107-1.75-1.8162-.289-.4372-.637-.7573-.886-1.2109-.364-.6621-.244-.1829-.58-1.1614-.251-.7951-.611-1.5515-1.068-2.2479-.531-.8688-1.08-1.4047-1.931-1.6754-.731-.2721-1.525-.3204-2.283-.139-.642.1573-2.28 1.2017-3.057 1.359-.182.0365-2.399.6346-3.441.9822-1.7223.6035-2.9736.5267-4.4796 1.5108-1.6623 1.0827-1.5604.6547-2.9099 2.0119-.8439.8487-2.3989 2.3192-1.5987 3.7477.3856.6895.6857 1.1249 1.6205 1.0974 1.0239-.0402 2.1425-.0512 3.0791-.3457.9712-.3036 1.315-.7023 2.3353-.7316 1.6368-.0457 3.1933-.4005 4.8083-.406 1.015 0 1.397-.3311 2.921.0878.559.1536.684.075 1.092.4883.407.4134.594 1.0645.984 1.6187 1.96 2.7838.856 2.0998 2.453 4.3477 1.046 1.4632 4.183 4.7975 5.262 6.2443.324.4617.592.9602.8 1.4852.442 1.0974 1.697 2.1235 2.473 2.8661.279.2286.473.567.775.7993s.68.4572 1.082.4517c.595 0 .982.3073 1.517.5122.599.23 1.231.3621 1.872.3914.207.0164 1.835.1043 2.455.2579.782.1829 1.566.0841 2.364.0329.504-.0512 3.749-.4115 4.071-.4829 3.273-.7316 7.493-2.0338 8.744-2.685 1.884-1.0151 3.983-1.348 5.82-2.4345.515-.278 1.12-.5633 1.139-1.1212.023-.3091-1.523-1.2638-2.516-2.3539-1.424-1.562-3.919-3.1716-5.29-5.3536-1.117-1.7266-.501-4.2013-1.124-3.7642z"/><path d="m123.593 113.937c-1.303-.113-2.597-.317-3.872-.613-1.491-.318-3.274-.594-4.769-.845-2.993-.505-3.683-.548-6.947-1.361-.391-.097-1.103 0-.963-.435.171-.457.259-.878.399-1.308.176-.61.281-1.239.314-1.874.168-1.946-.209-3.708-.389-5.67-.114-1.058-1.009-4.6389-1.242-5.7089-.21-.8237-.271-1.6785-.182-2.524.058-.5213 0-.9914.097-1.4999.147-.7316-.066-.3036.296-1.2638.315-.7719.524-1.5836.62-2.4125.147-1.0078.069-1.7742-.409-2.5314-.386-.6811-.964-1.2317-1.661-1.5821-.592-.2963-2.515-.5488-3.21-.9365-.163-.0896-2.2422-1.0627-3.2734-1.4632-1.7041-.6494-2.6135-1.5163-4.3977-1.7376-1.9642-.2451-1.6132-.5067-3.5156-.3384-1.1895.1061-3.3192.2268-3.6193 1.8382-.1455.7773-.1946 1.3059.5456 1.8802.8094.6311 1.6751 1.3462 2.579 1.7267.9384.395 1.455.3109 2.257.9474 1.2859 1.0224 2.7027 1.7577 3.9449 2.7984.7784.6512 1.2731.6493 2.1825 1.9534.331.4792.4765.4994.5183 1.0755.0418.5762-.2237 1.1999-.2801 1.8766-.2782 3.3984-.6874 2.1619-.9093 4.9165-.1383 1.8014.14 6.3814.04 8.1834-.0469.563-.1599 1.12-.3365 1.657-.3637 1.125-.0564 2.723.0637 3.793.0673.355 0 .732.0818 1.114s.2292.788.5456 1.046c.4583.379.5566.871.8348 1.372.3122.563.7112 1.072 1.1827 1.509.149.148 1.34 1.268 1.716 1.785.488.64 1.146 1.076 1.786 1.549.421.288 3.134 2.109 3.427 2.263 2.977 1.558 7.04 3.292 8.415 3.598 2.094.439 3.912 1.54 6.011 1.893.573.12 1.219.294 1.59-.123.216-.221-.364-1.951-.422-3.429-.093-2.116-.975-4.962-.633-7.521.285-2.032 2.341-3.525 1.584-3.598z"/><path d="m84.781 136.189c-.9261-.929-1.7861-1.923-2.5735-2.974-.9385-1.207-2.1316-2.573-3.1137-3.729-1.9697-2.321-2.4663-2.808-4.4505-5.533-.2383-.327-.8421-.717-.4601-.957.4237-.239.7584-.504 1.1403-.742.5258-.355 1.0092-.769 1.4405-1.235 1.3713-1.381 2.2097-2.974 3.3264-4.594.5875-.884 2.1825-4.207 2.6972-5.177.3674-.765.8674-1.459 1.4768-2.048.3783-.366.6293-.763 1.0313-1.087.5874-.473.1455-.274 1.0367-.777.734-.388 1.412-.874 2.0151-1.447.7584-.676 1.1895-1.315 1.3059-2.194.1392-.771.0487-1.566-.2601-2.285-.2656-.611-1.5732-2.0503-1.8624-2.7929-.0673-.1829-1.0367-2.2643-1.5587-3.2374-.8893-1.6004-1.033-2.8533-2.257-4.1757-1.3495-1.4632-.9094-1.4303-2.4771-2.5296-.9785-.6895-2.6881-1.9735-3.9485-.9328-.6075.5012-.9821.8743-.7839 1.7943.2182 1.006.4219 2.1126.873 2.9887.4656.9145.9094 1.1797 1.1222 2.1839.331 1.615.9475 3.0947 1.2349 4.6933.1819 1.0042.5656 1.3262.4201 2.9082-.0527.58.0455.689-.2892 1.158-.3346.468-.9403.773-1.4149 1.256-2.3862 2.424-1.9079 1.213-3.8303 3.185-1.2586 1.289-3.9721 4.978-5.2016 6.293-.3963.402-.8382.756-1.3168 1.054-.9966.627-1.7842 2.048-2.3771 2.946-.1818.315-.471.566-.6474.915-.1765.349-.3292.754-.2547 1.15.1092.588-.1309 1.027-.2364 1.592-.1212.633-.1415 1.281-.06 1.92.02.209.2164 1.829.1818 2.477-.0363.805.1819 1.565.3765 2.343.1383.49 1.0531 3.64 1.1804 3.947 1.284 3.118 3.2937 7.067 4.1467 8.194 1.3222 1.69 2.0115 3.711 3.3938 5.337.3637.463.7457 1.013 1.2967.935.3074-.031.9731-1.729 1.8679-2.901 1.2822-1.681 2.4262-4.432 4.3232-6.171 1.4931-1.39 4.0175-1.209 3.4865-1.751z"/></g></svg>