<svg width="54" height="50" viewBox="0 0 54 50" fill="none" xmlns="http://www.w3.org/2000/svg">
<path d="M53.3426 47.4169C53.2987 47.3425 53.0942 47.1988 53.052 47.1244C52.6937 46.8217 52.2544 46.6628 51.7576 46.4886C50.3399 45.9931 50.4582 45.9069 49.5051 45.3557C48.7863 44.9486 48.1186 44.4569 47.5163 43.8913C47.3304 43.7222 46.6309 42.8936 46.4754 42.552C46.1374 41.764 46.2033 41.9027 45.8721 41.0842C45.7876 40.8746 45.5342 39.9716 45.448 39.7687C44.9191 38.4345 44.8414 37.9306 44.3784 36.5643C44.2838 36.2869 43.7346 34.5114 43.7413 34.3068C43.7427 33.68 43.6678 33.0554 43.5183 32.4467C43.4625 32.2776 43.5014 31.9597 43.4372 31.7856C43.373 31.6114 43.2023 31.2546 43.0418 31.1447C42.817 30.9908 42.8238 31.05 42.6312 30.8234C42.4385 30.5968 42.2932 30.3803 42.0076 30.2332C41.9181 30.1825 40.546 29.7259 40.1387 29.589C39.9191 29.4791 38.3003 29.0309 37.986 28.9396C37.016 28.6572 37.2847 28.7959 36.8977 28.6877C36.261 28.4862 35.6088 28.3375 34.9477 28.2429C34.0539 27.9047 33.0772 27.8117 32.5111 27.7356C32.2526 27.7052 31.9315 27.7171 31.8217 27.6477C31.7811 27.6224 31.7389 27.5699 31.7828 27.5226C32.0261 27.2588 34.2668 24.7206 34.6284 24.1203C34.941 23.6012 35.4733 22.8149 35.5831 22.5055C35.7468 22.1191 35.9831 21.7677 36.2793 21.4706C36.8776 20.9872 37.3043 20.3236 37.4959 19.5784C37.5568 19.3894 37.5745 19.1892 37.5475 18.9925C37.5206 18.7958 37.4499 18.6077 37.3405 18.442C37.189 18.1755 37.0069 17.9275 36.7981 17.7031C36.5463 17.4528 33.8088 14.6289 31.8065 13.8138C31.4144 13.6447 31.1762 13.6921 30.9261 13.4215C30.8196 13.3065 30.36 13.129 30.235 13.036C29.8193 12.7198 28.4066 12.177 28.1447 12.0214L28.1227 12.0095C27.8708 11.8532 27.6272 11.6838 27.3928 11.5022C27.0548 11.2013 26.362 10.7937 25.9919 10.5604C24.9916 9.92627 24.9781 10.026 23.9118 9.47815C23.6419 9.34184 23.3826 9.18526 23.1362 9.00975C22.4603 8.54642 20.7182 7.56228 20.2636 7.2021C18.5502 5.86285 19.777 6.7895 16.0138 3.98924C15.3531 3.49886 15.2568 3.55973 14.4288 3.04906C14.0527 2.82096 13.6889 2.57317 13.3389 2.30672C13.1513 2.17651 11.1422 1.02495 10.7722 1.00297C10.4021 0.980984 9.89348 1.07568 9.89179 1.47137C9.89179 1.59819 9.85462 2.22386 9.93573 2.48596C10.1233 3.08287 10.0388 3.01185 10.3092 3.53268C10.3734 3.65443 10.8161 4.44749 10.8161 4.44749C11.6001 5.21012 11.5173 5.25747 12.3369 5.98459C12.4332 6.07083 12.5802 6.09281 12.6377 6.21287C12.7813 6.51894 12.5988 6.31095 12.2811 6.22302C11.9634 6.13509 11.8147 6.1706 11.4886 6.05392C9.9543 5.54663 10.7282 5.79858 9.20235 5.26254C8.54165 5.03088 8.33887 4.97169 7.68155 4.72312C6.77076 4.37478 6.57813 4.36294 5.21449 3.85396C4.4017 3.54958 3.87281 3.27057 3.01778 3.10824C2.06644 2.9273 1.45812 3.15052 1.32801 3.90639C1.23482 4.47717 1.3021 5.06265 1.52233 5.59736C1.96505 6.61195 2.0715 7.09726 2.82345 7.92415C3.75283 8.93874 4.39326 9.64895 5.66397 10.1224C6.31116 10.3592 6.30102 10.4978 7.35375 10.9087C7.56679 10.9805 7.77504 11.0658 7.97726 11.1641C8.90157 11.6713 9.37302 11.4735 10.5559 11.8827C10.7485 11.9487 11.4007 12.0518 11.6948 12.2345C11.8806 12.3494 10.7147 12.1972 10.5238 12.2006C9.63832 12.2209 9.70421 12.2936 8.82215 12.2328C8.10062 12.1837 6.47338 11.8946 5.75184 11.8269C4.8005 11.7407 3.50782 11.6984 2.59872 11.8506C1.68962 12.0028 1.07792 12.4965 1.39729 13.4046C1.63247 14.0479 1.98932 14.6398 2.44833 15.148C2.97764 15.6944 3.57244 16.1732 4.21921 16.5735C5.04551 17.1163 5.92419 17.5763 6.92285 17.7454C8.04655 17.9381 9.1466 18.2898 10.2703 18.4843C11.1591 18.6382 11.6086 18.6534 12.4974 18.8225C13.0266 18.8518 13.5572 18.8468 14.0858 18.8073C14.2075 18.7938 14.6265 18.7464 14.6248 18.8766C14.6232 19.0068 14.4018 18.9865 14.2869 19.0457C14.0259 19.0895 13.7623 19.1161 13.4978 19.1252C12.9182 19.1641 12.3791 19.1556 11.808 19.225C11.0493 19.3163 10.2872 19.2689 9.53861 19.3941C9.05196 19.4803 8.54673 19.8439 8.07697 19.9944C7.40106 20.2108 7.14422 20.7502 7.3791 21.4131C7.76268 22.4936 8.63459 23.17 9.54369 23.7246C10.3041 24.188 11.1726 24.511 12.1206 24.401C12.2555 24.3958 12.3902 24.4159 12.5177 24.4602C13.4251 24.7156 14.9695 24.2911 15.8972 24.1897C16.1 24.1677 16.4329 24.0645 16.6374 24.1034C16.6716 24.1138 16.7028 24.1323 16.7284 24.1573C16.754 24.1824 16.7732 24.2132 16.7844 24.2472C16.7844 24.2911 16.71 24.3723 16.6509 24.396C16.3332 24.5279 15.8871 24.7933 15.5711 24.9269C14.9915 25.1687 14.4085 25.1451 13.8492 25.4342C13.4403 25.6388 12.391 26.1698 12.5752 26.5959C12.8151 27.1539 14.1872 27.7627 14.7397 27.8878C15.7942 28.1263 16.9364 28.2159 17.9858 28.4053C18.6347 28.5237 19.8665 28.801 20.5813 28.6505C21.7641 28.3985 23.5283 27.6917 24.9595 27.5124C25.8044 27.4059 26.2217 27.4685 26.3282 27.5023C26.7101 27.6274 26.1035 27.8287 25.8432 27.9352C25.6121 28.0275 25.3764 28.1077 25.1369 28.1753C25.0524 28.2024 24.63 28.4932 24.4728 28.5727C24.1585 28.7249 23.7496 28.9853 23.7479 28.9785C22.8067 29.9627 22.435 30.284 21.9416 31.2715C21.6592 31.8412 21.3374 32.3904 20.9784 32.9151C20.5712 33.534 20.1335 34.2933 19.7516 34.924C19.1859 35.9223 18.57 36.8914 17.9064 37.8274C17.7932 37.9965 17.7087 38.3246 17.5397 38.1859C17.3707 38.0472 17.1916 37.9136 17.0226 37.775C16.7789 37.5874 16.5147 37.428 16.2352 37.2998C15.3903 36.8822 14.5319 36.7401 13.616 36.4746C13.1209 36.3394 11.3517 36.1111 10.8279 36.0282C10.4207 35.9764 10.026 35.8527 9.66196 35.663C9.43722 35.5446 9.21588 35.4939 9.00466 35.3535C8.69712 35.1574 8.85596 35.3298 8.49773 34.9967C8.20641 34.7178 7.87837 34.48 7.52272 34.2899C7.09521 34.0447 6.73697 33.9517 6.31115 34.0278C5.93351 34.0796 5.58022 34.244 5.29728 34.4996C5.05903 34.7143 4.6011 35.5395 4.30539 35.7864C4.23611 35.8439 3.4284 36.6133 3.06341 37.0039C2.46861 37.66 1.91774 37.9187 1.50206 38.6864C1.04244 39.5319 0.995129 39.3273 0.724765 40.2185C0.555788 40.7748 0.238105 41.7606 0.908945 42.18C1.23169 42.3829 1.46149 42.4996 1.85183 42.2662C2.27934 42.0109 2.75418 41.7454 3.08537 41.4038C3.41657 41.0623 3.48416 40.8002 3.91168 40.5499C4.6011 40.1491 5.18238 39.6368 5.87181 39.2597C6.3027 39.0212 6.39057 38.7947 7.13745 38.6171C7.41119 38.5529 7.44668 38.4903 7.71367 38.5731C7.98065 38.656 8.22059 38.886 8.50616 39.0314C9.9864 39.7585 9.35105 39.7247 10.5576 40.3081C11.3433 40.6886 13.4521 41.3717 14.2446 41.7353C14.4895 41.8569 14.7197 42.0061 14.9307 42.18C15.3717 42.5436 16.144 42.6873 16.6475 42.8226C16.8165 42.8547 16.9855 42.9528 17.1544 42.9815C17.3446 43.0237 17.5432 43.0029 17.7205 42.9223C17.9723 42.782 18.2105 42.8243 18.486 42.7871C18.7946 42.7453 19.0947 42.6545 19.3748 42.5182C19.735 42.344 20.1044 42.1899 20.4816 42.0566C20.8435 41.9282 21.185 41.7482 21.4955 41.5222C21.6982 41.3835 23.001 40.4772 23.121 40.3723C24.3512 39.3003 25.8483 37.7665 26.2336 37.1984C26.803 36.3292 27.6209 35.7002 28.1515 34.8141C28.2255 34.6907 28.2675 34.5507 28.2737 34.4068C28.2799 34.263 28.2501 34.1199 28.187 33.9906C28.151 33.9245 28.1237 33.854 28.1059 33.7809C28.0822 33.6321 28.29 33.8418 28.6128 33.906C29.6621 34.1005 29.7449 34.3609 30.943 34.4641C31.0562 34.4641 31.4009 34.4962 31.5074 34.5063C32.6074 34.5841 34.0218 34.6754 34.3023 34.6856C34.7805 34.7076 35.2232 34.7143 35.8079 34.7397C36.3064 34.7712 36.8064 34.7712 37.305 34.7397C38.0147 34.6636 38.2546 34.672 38.4101 34.6467C38.6652 34.6061 39.206 34.5368 39.38 34.6332C39.4189 34.7583 39.3293 34.8834 39.326 34.9967C39.3074 35.2318 39.3074 35.69 39.304 35.8726C39.2938 36.3038 39.4189 37.3049 39.473 37.6921C39.5068 37.9847 40.1708 39.1548 40.3179 39.4119C40.8176 40.2614 41.4 41.0595 42.0566 41.7944C42.6261 42.4708 42.5636 42.7194 42.8897 43.1895C43.0367 43.4026 43.106 43.7915 43.1364 44.1923C43.1469 44.5655 43.1306 44.9391 43.0874 45.31C43.0722 45.3776 42.9911 45.7446 42.9928 45.8021C43.0128 46.1465 43.1405 46.476 43.3578 46.7439C43.7481 47.2056 44.0032 47.2867 44.7349 47.5607C45.0886 47.6586 45.4517 47.7187 45.8181 47.7399C46.347 47.7754 47.4588 47.8549 47.9117 48.0629C48.1043 48.1407 49.4071 48.7816 50.0509 48.8881C50.8823 49.0268 50.9347 49.0149 51.9097 48.9676C52.2679 48.949 53.226 48.5939 53.3173 48.4603C53.4313 48.3114 53.4952 48.1302 53.4997 47.9428C53.5043 47.7553 53.4493 47.5712 53.3426 47.4169Z" stroke="#FF639A" stroke-width="0.08em"/>
</svg>
