<svg width="1042" height="148" viewBox="0 0 1042 148" fill="none" xmlns="http://www.w3.org/2000/svg">
<mask id="path-1-outside-1_115_32" maskUnits="userSpaceOnUse" x="0" y="0" width="1042" height="148" fill="black">
<rect fill="#FF639A" width="1042" height="148"/>
<path d="M117.6 118.96C110.8 118.96 104 117.997 97.2 116.07C90.4 114.257 83.6567 111.933 76.97 109.1C70.2833 106.38 63.71 103.717 57.25 101.11C52.3767 103.603 47.1067 105.813 41.44 107.74C35.7733 109.78 29.88 110.913 23.76 111.14C16.28 111.14 10.7833 109.78 7.27 107.06C3.75667 104.34 2 101.11 2 97.37C2 93.63 3.75667 90.1733 7.27 87C10.7833 83.8267 15.6567 82.24 21.89 82.24C27.33 82.24 32.9967 83.4867 38.89 85.98C44.7833 88.4733 50.9033 91.3633 57.25 94.65C61.5567 91.0233 65.8067 86.9433 70 82.41C74.3067 77.7633 78.5567 72.8333 82.75 67.62C79.69 67.3933 76.4033 66.8267 72.89 65.92C69.49 64.9 66.26 63.5967 63.2 62.01C60.14 60.31 57.59 58.27 55.55 55.89C53.6233 53.3967 52.66 50.5067 52.66 47.22C52.66 43.48 53.7367 40.3067 55.89 37.7C58.0433 34.98 60.82 32.77 64.22 31.07C67.7333 29.37 71.4733 28.1233 75.44 27.33C79.52 26.4233 83.43 25.97 87.17 25.97C91.59 25.97 95.7833 26.3667 99.75 27.16C103.717 27.84 107.343 28.8033 110.63 30.05C114.71 25.0633 119.017 20.4733 123.55 16.28C128.083 11.9733 132.787 8.51667 137.66 5.91C142.647 3.30333 147.803 2 153.13 2C157.55 2 160.78 3.19 162.82 5.56999C164.973 7.83667 166.05 10.7833 166.05 14.41C166.05 18.9433 164.463 24.0433 161.29 29.71C158.23 35.3767 153.64 40.93 147.52 46.37C141.4 51.81 133.863 56.4567 124.91 60.31C116.07 64.1633 105.927 66.5433 94.48 67.45C89.9467 73.3433 85.0733 78.8967 79.86 84.11C74.76 89.3233 69.0933 93.8567 62.86 97.71C68.4133 100.543 74.0233 103.32 79.69 106.04C85.47 108.873 91.3633 111.14 97.37 112.84C103.49 114.653 109.723 115.56 116.07 115.56C119.697 115.56 123.323 115.05 126.95 114.03C130.577 113.123 133.637 111.423 136.13 108.93C138.623 106.55 139.87 103.263 139.87 99.07C139.87 95.1033 138.34 92.27 135.28 90.57C132.333 88.87 128.707 88.02 124.4 88.02C121.453 88.02 118.223 88.53 114.71 89.55C111.31 90.4567 108.363 91.8167 105.87 93.63C105.417 93.97 105.02 94.14 104.68 94.14C104.34 94.14 104.17 94.0267 104.17 93.8C104.17 92.6667 105.417 91.4767 107.91 90.23C110.403 88.87 113.35 87.7367 116.75 86.83C120.263 85.81 123.323 85.3 125.93 85.3C128.423 85.3 131.313 85.7533 134.6 86.66C137.887 87.4533 140.777 88.87 143.27 90.91C145.763 92.95 147.01 95.7833 147.01 99.41C147.01 103.943 145.48 107.627 142.42 110.46C139.36 113.407 135.563 115.56 131.03 116.92C126.61 118.28 122.133 118.96 117.6 118.96ZM96.86 64.39C107.06 63.2567 116.127 60.7067 124.06 56.74C132.107 52.7733 138.963 48.1833 144.63 42.97C150.297 37.6433 154.603 32.3167 157.55 26.99C160.497 21.6633 161.97 17.0733 161.97 13.22C161.97 10.6133 161.233 8.51666 159.76 6.93C158.4 5.34333 156.247 4.55 153.3 4.55C150.467 4.55 147.52 5.4 144.46 7.1C141.4 8.68666 138.397 10.7267 135.45 13.22C132.617 15.7133 130.01 18.2633 127.63 20.87C125.363 23.3633 123.607 25.5167 122.36 27.33L117.77 33.79C121.057 36.0567 123.833 38.6633 126.1 41.61C126.553 42.1767 126.78 42.97 126.78 43.99C126.78 44.67 126.667 45.01 126.44 45.01C126.327 45.01 126.157 44.84 125.93 44.5C123.323 41.2133 120.093 38.38 116.24 36C113.18 40.5333 110.063 45.2367 106.89 50.11C103.717 54.87 100.373 59.63 96.86 64.39ZM84.79 64.9C88.0767 60.9333 91.7033 56.0033 95.67 50.11C99.6367 44.2167 104 38.3233 108.76 32.43C101.96 29.8233 94.48 28.52 86.32 28.52C83.8267 28.52 80.9933 28.9733 77.82 29.88C74.76 30.6733 71.8133 31.92 68.98 33.62C66.26 35.2067 63.9933 37.19 62.18 39.57C60.3667 41.95 59.46 44.7267 59.46 47.9C59.46 51.5267 60.82 54.5867 63.54 57.08C66.26 59.5733 69.6033 61.4433 73.57 62.69C77.5367 63.9367 81.2767 64.6733 84.79 64.9ZM23.76 108.42C28.86 108.42 33.7333 107.513 38.38 105.7C43.0267 104 47.5033 101.677 51.81 98.73C45.9167 96.35 40.1933 94.3667 34.64 92.78C29.2 91.08 23.9867 90.23 19 90.23C14.3533 90.23 11.01 90.91 8.97 92.27C6.93 93.63 5.91 95.2733 5.91 97.2C5.91 99.6933 7.55333 102.187 10.84 104.68C14.1267 107.173 18.4333 108.42 23.76 108.42ZM190.383 40.08C188.116 40.08 186.983 39.1733 186.983 37.36C186.983 36.7933 187.153 36.17 187.493 35.49C188.059 34.13 189.023 32.94 190.383 31.92C191.856 30.7867 193.273 30.22 194.633 30.22C196.786 30.22 197.863 31.1267 197.863 32.94C197.863 34.64 197.069 36.2267 195.483 37.7C193.896 39.1733 192.196 39.9667 190.383 40.08ZM153.493 104.34C150.433 104.34 148.279 103.547 147.033 101.96C145.673 100.26 144.993 98.1633 144.993 95.67C144.993 92.3833 146.013 88.87 148.053 85.13C149.979 81.2767 152.416 77.48 155.363 73.74C158.309 69.8867 161.313 66.3167 164.373 63.03C167.433 59.63 170.096 56.8533 172.363 54.7C174.516 52.5467 176.726 50.96 178.993 49.94C181.259 48.92 183.186 48.24 184.773 47.9C186.473 47.4467 187.323 47.22 187.323 47.22C184.829 50.0533 181.429 54.0767 177.123 59.29C172.816 64.5033 168.566 70.0567 164.373 75.95C164.033 76.4033 163.239 77.5367 161.993 79.35C160.746 81.1633 159.329 83.26 157.743 85.64C156.269 88.02 154.966 90.3433 153.833 92.61C152.813 94.8767 152.303 96.69 152.303 98.05C152.303 100.203 153.436 101.28 155.703 101.28C157.403 101.28 159.216 100.657 161.143 99.41C163.183 98.1633 165.223 96.6333 167.263 94.82C169.303 93.0067 171.116 91.25 172.703 89.55C174.403 87.7367 175.706 86.2633 176.613 85.13C177.066 85.13 177.293 85.47 177.293 86.15C177.293 87.17 177.066 87.9633 176.613 88.53C172.306 93.5167 168.396 97.4267 164.883 100.26C161.483 102.98 157.686 104.34 153.493 104.34ZM171.847 104C169.127 104 167.201 103.433 166.067 102.3C164.934 101.053 164.367 99.5233 164.367 97.71C164.367 95.7833 164.821 93.6867 165.727 91.42C166.634 89.1533 167.711 86.8867 168.957 84.62C171.111 80.9933 173.774 77.3667 176.947 73.74C180.234 70.1133 183.577 66.77 186.977 63.71C190.491 60.65 193.551 58.1 196.157 56.06C198.651 53.9067 201.257 52.2067 203.977 50.96C202.504 51.0733 201.031 51.1867 199.557 51.3C198.197 51.4133 196.894 51.5267 195.647 51.64C193.267 51.7533 191.057 52.0367 189.017 52.49C187.091 52.83 185.277 53.51 183.577 54.53C184.144 52.6033 185.334 51.0167 187.147 49.77C189.074 48.41 191.001 47.6733 192.927 47.56C194.854 47.3333 197.234 47.3333 200.067 47.56C202.901 47.7867 205.507 47.9 207.887 47.9C208.567 47.9 209.361 47.8433 210.267 47.73C211.287 47.6167 212.081 47.3333 212.647 46.88C212.647 48.0133 211.797 48.9767 210.097 49.77C209.417 50.11 208.737 50.45 208.057 50.79C207.377 51.13 206.811 51.47 206.357 51.81C205.224 52.6033 204.091 53.51 202.957 54.53C201.937 55.55 200.861 56.6267 199.727 57.76C191.001 66.26 183.407 76.2333 176.947 87.68C175.927 89.4933 175.021 91.25 174.227 92.95C173.547 94.5367 173.207 95.84 173.207 96.86C173.207 98.1067 173.887 98.73 175.247 98.73C177.287 98.73 179.837 97.7667 182.897 95.84C185.957 93.9133 189.301 91.3067 192.927 88.02C196.554 84.7333 200.124 80.9933 203.637 76.8C204.884 75.3267 206.471 73.1733 208.397 70.34C210.437 67.5067 212.307 64.73 214.007 62.01C215.821 59.29 217.011 57.42 217.577 56.4C220.184 51.98 222.734 49.3167 225.227 48.41C227.834 47.39 230.214 46.9933 232.367 47.22C231.574 48.3533 230.101 50.2233 227.947 52.83C225.907 55.4367 223.471 58.3833 220.637 61.67C217.917 64.9567 215.141 68.2433 212.307 71.53C209.587 74.7033 207.094 77.5367 204.827 80.03C202.674 82.5233 201.144 84.28 200.237 85.3C197.291 88.36 194.231 91.3633 191.057 94.31C187.997 97.1433 184.824 99.4667 181.537 101.28C178.364 103.093 175.134 104 171.847 104ZM219.178 105.19C213.964 105.19 210.281 104.057 208.128 101.79C205.974 99.5233 204.898 96.4633 204.898 92.61C204.898 88.87 205.918 84.96 207.958 80.88C210.111 76.6867 212.774 72.72 215.948 68.98C217.874 66.7133 220.254 64.3333 223.088 61.84C225.921 59.3467 228.981 57.0233 232.268 54.87C235.554 52.6033 238.784 50.79 241.958 49.43C245.244 47.9567 248.134 47.22 250.628 47.22C251.988 47.22 253.234 47.56 254.368 48.24C255.501 48.8067 256.068 50.11 256.068 52.15C256.068 54.9833 254.708 57.7033 251.988 60.31C249.268 62.8033 246.208 65.1267 242.808 67.28C238.954 69.7733 234.931 71.87 230.738 73.57C226.544 75.27 222.918 76.5733 219.858 77.48C218.158 80.2 216.798 82.9767 215.778 85.81C214.758 88.6433 214.248 91.42 214.248 94.14C214.248 97.0867 214.928 99.1267 216.288 100.26C217.761 101.28 219.461 101.79 221.388 101.79C224.901 101.79 228.074 100.997 230.908 99.41C233.854 97.71 236.574 95.5567 239.068 92.95C241.561 90.3433 243.941 87.7367 246.208 85.13C246.661 85.13 246.888 85.47 246.888 86.15C246.888 87.17 246.661 87.9633 246.208 88.53C243.941 91.1367 241.448 93.7433 238.728 96.35C236.121 98.9567 233.231 101.11 230.058 102.81C226.884 104.397 223.258 105.19 219.178 105.19ZM221.898 75.1C224.844 74.08 228.301 72.6633 232.268 70.85C236.348 69.0367 239.918 67.0533 242.978 64.9C243.658 64.4467 244.848 63.54 246.548 62.18C248.248 60.7067 249.834 59.12 251.308 57.42C252.781 55.6067 253.518 54.02 253.518 52.66C253.518 50.8467 252.611 49.94 250.798 49.94C248.871 49.94 246.661 50.79 244.168 52.49C241.788 54.19 239.861 55.6633 238.388 56.91C235.668 59.4033 232.834 62.18 229.888 65.24C226.941 68.3 224.278 71.5867 221.898 75.1ZM372.434 118.96C365.634 118.96 358.834 117.997 352.034 116.07C345.234 114.257 338.491 111.933 331.804 109.1C325.117 106.38 318.544 103.717 312.084 101.11C307.211 103.603 301.941 105.813 296.274 107.74C290.607 109.78 284.714 110.913 278.594 111.14C271.114 111.14 265.617 109.78 262.104 107.06C258.591 104.34 256.834 101.11 256.834 97.37C256.834 93.63 258.591 90.1733 262.104 87C265.617 83.8267 270.491 82.24 276.724 82.24C282.164 82.24 287.831 83.4867 293.724 85.98C299.617 88.4733 305.737 91.3633 312.084 94.65C316.391 91.0233 320.641 86.9433 324.834 82.41C329.141 77.7633 333.391 72.8333 337.584 67.62C334.524 67.3933 331.237 66.8267 327.724 65.92C324.324 64.9 321.094 63.5967 318.034 62.01C314.974 60.31 312.424 58.27 310.384 55.89C308.457 53.3967 307.494 50.5067 307.494 47.22C307.494 43.48 308.571 40.3067 310.724 37.7C312.877 34.98 315.654 32.77 319.054 31.07C322.567 29.37 326.307 28.1233 330.274 27.33C334.354 26.4233 338.264 25.97 342.004 25.97C346.424 25.97 350.617 26.3667 354.584 27.16C358.551 27.84 362.177 28.8033 365.464 30.05C369.544 25.0633 373.851 20.4733 378.384 16.28C382.917 11.9733 387.621 8.51667 392.494 5.91C397.481 3.30333 402.637 2 407.964 2C412.384 2 415.614 3.19 417.654 5.56999C419.807 7.83667 420.884 10.7833 420.884 14.41C420.884 18.9433 419.297 24.0433 416.124 29.71C413.064 35.3767 408.474 40.93 402.354 46.37C396.234 51.81 388.697 56.4567 379.744 60.31C370.904 64.1633 360.761 66.5433 349.314 67.45C344.781 73.3433 339.907 78.8967 334.694 84.11C329.594 89.3233 323.927 93.8567 317.694 97.71C323.247 100.543 328.857 103.32 334.524 106.04C340.304 108.873 346.197 111.14 352.204 112.84C358.324 114.653 364.557 115.56 370.904 115.56C374.531 115.56 378.157 115.05 381.784 114.03C385.411 113.123 388.471 111.423 390.964 108.93C393.457 106.55 394.704 103.263 394.704 99.07C394.704 95.1033 393.174 92.27 390.114 90.57C387.167 88.87 383.541 88.02 379.234 88.02C376.287 88.02 373.057 88.53 369.544 89.55C366.144 90.4567 363.197 91.8167 360.704 93.63C360.251 93.97 359.854 94.14 359.514 94.14C359.174 94.14 359.004 94.0267 359.004 93.8C359.004 92.6667 360.251 91.4767 362.744 90.23C365.237 88.87 368.184 87.7367 371.584 86.83C375.097 85.81 378.157 85.3 380.764 85.3C383.257 85.3 386.147 85.7533 389.434 86.66C392.721 87.4533 395.611 88.87 398.104 90.91C400.597 92.95 401.844 95.7833 401.844 99.41C401.844 103.943 400.314 107.627 397.254 110.46C394.194 113.407 390.397 115.56 385.864 116.92C381.444 118.28 376.967 118.96 372.434 118.96ZM351.694 64.39C361.894 63.2567 370.961 60.7067 378.894 56.74C386.941 52.7733 393.797 48.1833 399.464 42.97C405.131 37.6433 409.437 32.3167 412.384 26.99C415.331 21.6633 416.804 17.0733 416.804 13.22C416.804 10.6133 416.067 8.51666 414.594 6.93C413.234 5.34333 411.081 4.55 408.134 4.55C405.301 4.55 402.354 5.4 399.294 7.1C396.234 8.68666 393.231 10.7267 390.284 13.22C387.451 15.7133 384.844 18.2633 382.464 20.87C380.197 23.3633 378.441 25.5167 377.194 27.33L372.604 33.79C375.891 36.0567 378.667 38.6633 380.934 41.61C381.387 42.1767 381.614 42.97 381.614 43.99C381.614 44.67 381.501 45.01 381.274 45.01C381.161 45.01 380.991 44.84 380.764 44.5C378.157 41.2133 374.927 38.38 371.074 36C368.014 40.5333 364.897 45.2367 361.724 50.11C358.551 54.87 355.207 59.63 351.694 64.39ZM339.624 64.9C342.911 60.9333 346.537 56.0033 350.504 50.11C354.471 44.2167 358.834 38.3233 363.594 32.43C356.794 29.8233 349.314 28.52 341.154 28.52C338.661 28.52 335.827 28.9733 332.654 29.88C329.594 30.6733 326.647 31.92 323.814 33.62C321.094 35.2067 318.827 37.19 317.014 39.57C315.201 41.95 314.294 44.7267 314.294 47.9C314.294 51.5267 315.654 54.5867 318.374 57.08C321.094 59.5733 324.437 61.4433 328.404 62.69C332.371 63.9367 336.111 64.6733 339.624 64.9ZM278.594 108.42C283.694 108.42 288.567 107.513 293.214 105.7C297.861 104 302.337 101.677 306.644 98.73C300.751 96.35 295.027 94.3667 289.474 92.78C284.034 91.08 278.821 90.23 273.834 90.23C269.187 90.23 265.844 90.91 263.804 92.27C261.764 93.63 260.744 95.2733 260.744 97.2C260.744 99.6933 262.387 102.187 265.674 104.68C268.961 107.173 273.267 108.42 278.594 108.42ZM405.034 104.85C401.747 104.85 399.424 104.057 398.064 102.47C396.591 100.77 395.854 98.6733 395.854 96.18C395.854 93.0067 396.761 89.2667 398.574 84.96C400.501 80.6533 403.051 76.29 406.224 71.87C409.397 67.45 412.967 63.37 416.934 59.63C420.901 55.7767 424.924 52.7167 429.004 50.45C433.197 48.07 437.221 46.88 441.074 46.88C443.907 46.88 445.947 47.6167 447.194 49.09C448.441 50.5633 449.064 52.49 449.064 54.87C449.064 58.0433 448.157 61.84 446.344 66.26C444.531 70.5667 442.037 74.9867 438.864 79.52C435.804 83.94 432.347 88.0767 428.494 91.93C424.754 95.7833 420.844 98.9 416.764 101.28C412.684 103.66 408.774 104.85 405.034 104.85ZM407.074 101.62C409.454 101.62 412.287 100.43 415.574 98.05C418.974 95.5567 422.431 92.3833 425.944 88.53C429.457 84.6767 432.687 80.5967 435.634 76.29C438.694 71.87 441.131 67.7333 442.944 63.88C444.871 59.9133 445.834 56.6833 445.834 54.19C445.834 51.47 444.531 50.11 441.924 50.11C439.771 50.11 437.051 51.4133 433.764 54.02C430.591 56.5133 427.247 59.7433 423.734 63.71C420.334 67.6767 417.104 71.87 414.044 76.29C410.984 80.71 408.491 84.9033 406.564 88.87C404.751 92.8367 403.844 95.9533 403.844 98.22C403.844 100.487 404.921 101.62 407.074 101.62ZM437.472 104C434.752 104 432.826 103.433 431.692 102.3C430.559 101.053 429.992 99.5233 429.992 97.71C429.992 95.7833 430.446 93.6867 431.352 91.42C432.259 89.1533 433.336 86.8867 434.582 84.62C436.736 80.9933 439.399 77.3667 442.572 73.74C445.859 70.1133 449.202 66.77 452.602 63.71C456.116 60.65 459.176 58.1 461.782 56.06C464.276 53.9067 466.882 52.2067 469.602 50.96C468.129 51.0733 466.656 51.1867 465.182 51.3C463.822 51.4133 462.519 51.5267 461.272 51.64C458.892 51.7533 456.682 52.0367 454.642 52.49C452.716 52.83 450.902 53.51 449.202 54.53C449.769 52.6033 450.959 51.0167 452.772 49.77C454.699 48.41 456.626 47.6733 458.552 47.56C460.479 47.3333 462.859 47.3333 465.692 47.56C468.526 47.7867 471.132 47.9 473.512 47.9C474.192 47.9 474.986 47.8433 475.892 47.73C476.912 47.6167 477.706 47.3333 478.272 46.88C478.272 48.0133 477.422 48.9767 475.722 49.77C475.042 50.11 474.362 50.45 473.682 50.79C473.002 51.13 472.436 51.47 471.982 51.81C470.849 52.6033 469.716 53.51 468.582 54.53C467.562 55.55 466.486 56.6267 465.352 57.76C456.626 66.26 449.032 76.2333 442.572 87.68C441.552 89.4933 440.646 91.25 439.852 92.95C439.172 94.5367 438.832 95.84 438.832 96.86C438.832 98.1067 439.512 98.73 440.872 98.73C442.912 98.73 445.462 97.7667 448.522 95.84C451.582 93.9133 454.926 91.3067 458.552 88.02C462.179 84.7333 465.749 80.9933 469.262 76.8C470.509 75.3267 472.096 73.1733 474.022 70.34C476.062 67.5067 477.932 64.73 479.632 62.01C481.446 59.29 482.636 57.42 483.202 56.4C485.809 51.98 488.359 49.3167 490.852 48.41C493.459 47.39 495.839 46.9933 497.992 47.22C497.199 48.3533 495.726 50.2233 493.572 52.83C491.532 55.4367 489.096 58.3833 486.262 61.67C483.542 64.9567 480.766 68.2433 477.932 71.53C475.212 74.7033 472.719 77.5367 470.452 80.03C468.299 82.5233 466.769 84.28 465.862 85.3C462.916 88.36 459.856 91.3633 456.682 94.31C453.622 97.1433 450.449 99.4667 447.162 101.28C443.989 103.093 440.759 104 437.472 104ZM484.803 105.19C479.589 105.19 475.906 104.057 473.753 101.79C471.599 99.5233 470.523 96.4633 470.523 92.61C470.523 88.87 471.543 84.96 473.583 80.88C475.736 76.6867 478.399 72.72 481.573 68.98C483.499 66.7133 485.879 64.3333 488.713 61.84C491.546 59.3467 494.606 57.0233 497.893 54.87C501.179 52.6033 504.409 50.79 507.583 49.43C510.869 47.9567 513.759 47.22 516.253 47.22C517.613 47.22 518.859 47.56 519.993 48.24C521.126 48.8067 521.693 50.11 521.693 52.15C521.693 54.9833 520.333 57.7033 517.613 60.31C514.893 62.8033 511.833 65.1267 508.433 67.28C504.579 69.7733 500.556 71.87 496.363 73.57C492.169 75.27 488.543 76.5733 485.483 77.48C483.783 80.2 482.423 82.9767 481.403 85.81C480.383 88.6433 479.873 91.42 479.873 94.14C479.873 97.0867 480.553 99.1267 481.913 100.26C483.386 101.28 485.086 101.79 487.013 101.79C490.526 101.79 493.699 100.997 496.533 99.41C499.479 97.71 502.199 95.5567 504.693 92.95C507.186 90.3433 509.566 87.7367 511.833 85.13C512.286 85.13 512.513 85.47 512.513 86.15C512.513 87.17 512.286 87.9633 511.833 88.53C509.566 91.1367 507.073 93.7433 504.353 96.35C501.746 98.9567 498.856 101.11 495.683 102.81C492.509 104.397 488.883 105.19 484.803 105.19ZM487.523 75.1C490.469 74.08 493.926 72.6633 497.893 70.85C501.973 69.0367 505.543 67.0533 508.603 64.9C509.283 64.4467 510.473 63.54 512.173 62.18C513.873 60.7067 515.459 59.12 516.933 57.42C518.406 55.6067 519.143 54.02 519.143 52.66C519.143 50.8467 518.236 49.94 516.423 49.94C514.496 49.94 512.286 50.79 509.793 52.49C507.413 54.19 505.486 55.6633 504.013 56.91C501.293 59.4033 498.459 62.18 495.513 65.24C492.566 68.3 489.903 71.5867 487.523 75.1ZM638.059 118.96C631.259 118.96 624.459 117.997 617.659 116.07C610.859 114.257 604.116 111.933 597.429 109.1C590.742 106.38 584.169 103.717 577.709 101.11C572.836 103.603 567.566 105.813 561.899 107.74C556.232 109.78 550.339 110.913 544.219 111.14C536.739 111.14 531.242 109.78 527.729 107.06C524.216 104.34 522.459 101.11 522.459 97.37C522.459 93.63 524.216 90.1733 527.729 87C531.242 83.8267 536.116 82.24 542.349 82.24C547.789 82.24 553.456 83.4867 559.349 85.98C565.242 88.4733 571.362 91.3633 577.709 94.65C582.016 91.0233 586.266 86.9433 590.459 82.41C594.766 77.7633 599.016 72.8333 603.209 67.62C600.149 67.3933 596.862 66.8267 593.349 65.92C589.949 64.9 586.719 63.5967 583.659 62.01C580.599 60.31 578.049 58.27 576.009 55.89C574.082 53.3967 573.119 50.5067 573.119 47.22C573.119 43.48 574.196 40.3067 576.349 37.7C578.502 34.98 581.279 32.77 584.679 31.07C588.192 29.37 591.932 28.1233 595.899 27.33C599.979 26.4233 603.889 25.97 607.629 25.97C612.049 25.97 616.242 26.3667 620.209 27.16C624.176 27.84 627.802 28.8033 631.089 30.05C635.169 25.0633 639.476 20.4733 644.009 16.28C648.542 11.9733 653.246 8.51667 658.119 5.91C663.106 3.30333 668.262 2 673.589 2C678.009 2 681.239 3.19 683.279 5.56999C685.432 7.83667 686.509 10.7833 686.509 14.41C686.509 18.9433 684.922 24.0433 681.749 29.71C678.689 35.3767 674.099 40.93 667.979 46.37C661.859 51.81 654.322 56.4567 645.369 60.31C636.529 64.1633 626.386 66.5433 614.939 67.45C610.406 73.3433 605.532 78.8967 600.319 84.11C595.219 89.3233 589.552 93.8567 583.319 97.71C588.872 100.543 594.482 103.32 600.149 106.04C605.929 108.873 611.822 111.14 617.829 112.84C623.949 114.653 630.182 115.56 636.529 115.56C640.156 115.56 643.782 115.05 647.409 114.03C651.036 113.123 654.096 111.423 656.589 108.93C659.082 106.55 660.329 103.263 660.329 99.07C660.329 95.1033 658.799 92.27 655.739 90.57C652.792 88.87 649.166 88.02 644.859 88.02C641.912 88.02 638.682 88.53 635.169 89.55C631.769 90.4567 628.822 91.8167 626.329 93.63C625.876 93.97 625.479 94.14 625.139 94.14C624.799 94.14 624.629 94.0267 624.629 93.8C624.629 92.6667 625.876 91.4767 628.369 90.23C630.862 88.87 633.809 87.7367 637.209 86.83C640.722 85.81 643.782 85.3 646.389 85.3C648.882 85.3 651.772 85.7533 655.059 86.66C658.346 87.4533 661.236 88.87 663.729 90.91C666.222 92.95 667.469 95.7833 667.469 99.41C667.469 103.943 665.939 107.627 662.879 110.46C659.819 113.407 656.022 115.56 651.489 116.92C647.069 118.28 642.592 118.96 638.059 118.96ZM617.319 64.39C627.519 63.2567 636.586 60.7067 644.519 56.74C652.566 52.7733 659.422 48.1833 665.089 42.97C670.756 37.6433 675.062 32.3167 678.009 26.99C680.956 21.6633 682.429 17.0733 682.429 13.22C682.429 10.6133 681.692 8.51666 680.219 6.93C678.859 5.34333 676.706 4.55 673.759 4.55C670.926 4.55 667.979 5.4 664.919 7.1C661.859 8.68666 658.856 10.7267 655.909 13.22C653.076 15.7133 650.469 18.2633 648.089 20.87C645.822 23.3633 644.066 25.5167 642.819 27.33L638.229 33.79C641.516 36.0567 644.292 38.6633 646.559 41.61C647.012 42.1767 647.239 42.97 647.239 43.99C647.239 44.67 647.126 45.01 646.899 45.01C646.786 45.01 646.616 44.84 646.389 44.5C643.782 41.2133 640.552 38.38 636.699 36C633.639 40.5333 630.522 45.2367 627.349 50.11C624.176 54.87 620.832 59.63 617.319 64.39ZM605.249 64.9C608.536 60.9333 612.162 56.0033 616.129 50.11C620.096 44.2167 624.459 38.3233 629.219 32.43C622.419 29.8233 614.939 28.52 606.779 28.52C604.286 28.52 601.452 28.9733 598.279 29.88C595.219 30.6733 592.272 31.92 589.439 33.62C586.719 35.2067 584.452 37.19 582.639 39.57C580.826 41.95 579.919 44.7267 579.919 47.9C579.919 51.5267 581.279 54.5867 583.999 57.08C586.719 59.5733 590.062 61.4433 594.029 62.69C597.996 63.9367 601.736 64.6733 605.249 64.9ZM544.219 108.42C549.319 108.42 554.192 107.513 558.839 105.7C563.486 104 567.962 101.677 572.269 98.73C566.376 96.35 560.652 94.3667 555.099 92.78C549.659 91.08 544.446 90.23 539.459 90.23C534.812 90.23 531.469 90.91 529.429 92.27C527.389 93.63 526.369 95.2733 526.369 97.2C526.369 99.6933 528.012 102.187 531.299 104.68C534.586 107.173 538.892 108.42 544.219 108.42ZM710.842 40.08C708.575 40.08 707.442 39.1733 707.442 37.36C707.442 36.7933 707.612 36.17 707.952 35.49C708.518 34.13 709.482 32.94 710.842 31.92C712.315 30.7867 713.732 30.22 715.092 30.22C717.245 30.22 718.322 31.1267 718.322 32.94C718.322 34.64 717.528 36.2267 715.942 37.7C714.355 39.1733 712.655 39.9667 710.842 40.08ZM673.952 104.34C670.892 104.34 668.738 103.547 667.492 101.96C666.132 100.26 665.452 98.1633 665.452 95.67C665.452 92.3833 666.472 88.87 668.512 85.13C670.438 81.2767 672.875 77.48 675.822 73.74C678.768 69.8867 681.772 66.3167 684.832 63.03C687.892 59.63 690.555 56.8533 692.822 54.7C694.975 52.5467 697.185 50.96 699.452 49.94C701.718 48.92 703.645 48.24 705.232 47.9C706.932 47.4467 707.782 47.22 707.782 47.22C705.288 50.0533 701.888 54.0767 697.582 59.29C693.275 64.5033 689.025 70.0567 684.832 75.95C684.492 76.4033 683.698 77.5367 682.452 79.35C681.205 81.1633 679.788 83.26 678.202 85.64C676.728 88.02 675.425 90.3433 674.292 92.61C673.272 94.8767 672.762 96.69 672.762 98.05C672.762 100.203 673.895 101.28 676.162 101.28C677.862 101.28 679.675 100.657 681.602 99.41C683.642 98.1633 685.682 96.6333 687.722 94.82C689.762 93.0067 691.575 91.25 693.162 89.55C694.862 87.7367 696.165 86.2633 697.072 85.13C697.525 85.13 697.752 85.47 697.752 86.15C697.752 87.17 697.525 87.9633 697.072 88.53C692.765 93.5167 688.855 97.4267 685.342 100.26C681.942 102.98 678.145 104.34 673.952 104.34ZM666.466 145.82C663.066 145.82 660.743 145.537 659.496 144.97C658.25 144.517 657.626 144.12 657.626 143.78C657.626 143.327 658.023 143.1 658.816 143.1C659.383 143.1 659.95 143.1 660.516 143.1C661.083 143.213 661.593 143.27 662.046 143.27C666.126 143.27 670.206 142.023 674.286 139.53C678.366 137.037 682.333 133.693 686.186 129.5C690.04 125.42 693.723 120.887 697.236 115.9C700.75 110.913 703.923 105.983 706.756 101.11C707.776 99.2967 709.08 96.9733 710.666 94.14C712.253 91.1933 714.01 88.02 715.936 84.62C713.783 87.1133 711.8 89.3233 709.986 91.25C708.173 93.1767 706.813 94.5933 705.906 95.5C703.413 97.7667 701.033 99.75 698.766 101.45C696.5 103.037 694.12 103.943 691.626 104.17C687.433 104.397 685.336 102.017 685.336 97.03C685.336 94.31 686.13 91.08 687.716 87.34C689.303 83.4867 691.683 79.4633 694.856 75.27C697.123 72.4367 699.9 69.4333 703.186 66.26C706.473 62.9733 710.043 59.8567 713.896 56.91C717.863 53.9633 721.886 51.5833 725.966 49.77C730.046 47.8433 734.013 46.88 737.866 46.88C739.566 46.88 740.756 47.1633 741.436 47.73C742.116 48.1833 742.57 48.6933 742.796 49.26C742.91 49.7133 742.91 50.11 742.796 50.45C746.083 48.2967 749.143 47.22 751.976 47.22C752.77 47.22 753.28 47.3333 753.506 47.56C748.746 50.5067 744.496 54.3033 740.756 58.95C737.13 63.4833 733.73 68.5833 730.556 74.25C727.383 79.9167 724.21 85.7533 721.036 91.76C717.976 97.7667 714.69 103.717 711.176 109.61C707.776 115.503 703.923 120.943 699.616 125.93C694.516 131.823 689.02 136.583 683.126 140.21C677.233 143.95 671.68 145.82 666.466 145.82ZM695.536 98.9C696.33 98.9 697.406 98.56 698.766 97.88C700.126 97.0867 701.883 95.7833 704.036 93.97C707.663 90.7967 711.346 86.9433 715.086 82.41C718.826 77.7633 722.453 73.1733 725.966 68.64C728.573 65.0133 731.236 61.5567 733.956 58.27C736.79 54.9833 739.68 52.4333 742.626 50.62C742.4 50.62 742.286 50.5633 742.286 50.45C741.833 50.2233 740.926 50.11 739.566 50.11C735.486 50.11 730.613 52.0933 724.946 56.06C719.393 59.9133 713.896 64.9567 708.456 71.19C704.603 75.4967 701.43 79.7467 698.936 83.94C696.443 88.02 694.8 91.42 694.006 94.14C693.78 95.0467 693.666 95.84 693.666 96.52C693.666 98.1067 694.29 98.9 695.536 98.9ZM752.719 104.68C750.679 104.68 749.205 104.17 748.299 103.15C747.392 102.13 746.939 100.827 746.939 99.24C746.939 97.88 747.279 95.9533 747.959 93.46C749.432 89.38 751.585 85.2433 754.419 81.05C757.252 76.7433 760.312 72.6633 763.599 68.81C766.999 64.8433 770.229 61.2733 773.289 58.1C776.349 54.8133 778.785 52.15 780.599 50.11C778.899 50.11 777.029 50.5633 774.989 51.47C773.062 52.3767 771.079 53.4533 769.039 54.7C764.165 58.1 759.235 62.1233 754.249 66.77C749.375 71.4167 744.785 76.1767 740.479 81.05C736.285 85.9233 732.715 90.4 729.769 94.48C726.822 98.56 724.952 101.733 724.159 104C722.345 104 721.439 102.867 721.439 100.6C721.439 98.6733 722.005 96.2933 723.139 93.46C724.272 90.5133 725.689 87.5667 727.389 84.62C731.242 78.16 735.945 71.19 741.499 63.71C747.165 56.1167 753.002 49.0333 759.009 42.46C764.335 36.5667 770.115 31.24 776.349 26.48C782.582 21.72 789.099 18.3767 795.899 16.45C796.919 16.11 798.109 15.8267 799.469 15.6C800.829 15.3733 802.245 15.26 803.719 15.26C806.439 15.26 808.762 15.6567 810.689 16.45C811.595 16.9033 812.502 17.5267 813.409 18.32C814.315 19 814.939 20.02 815.279 21.38C814.032 20.36 812.615 19.6233 811.029 19.17C809.442 18.6033 807.515 18.32 805.249 18.32C800.829 18.32 796.295 19.6233 791.649 22.23C787.115 24.7233 782.752 27.7833 778.559 31.41C774.479 35.0367 770.852 38.6633 767.679 42.29C764.619 45.8033 762.239 48.58 760.539 50.62C756.119 56.06 752.209 61.16 748.809 65.92C745.522 70.5667 742.745 74.5333 740.479 77.82C745.012 72.8333 749.942 67.8467 755.269 62.86C760.709 57.76 765.695 53.7367 770.229 50.79C771.702 49.77 773.232 48.92 774.819 48.24C776.405 47.56 778.049 47.22 779.749 47.22C782.809 47.22 784.339 48.41 784.339 50.79C784.339 52.6033 783.262 54.7567 781.109 57.25C777.142 61.7833 773.119 66.8267 769.039 72.38C764.959 77.82 761.502 83.26 758.669 88.7C758.215 89.4933 757.422 91.08 756.289 93.46C755.269 95.7267 754.759 97.6533 754.759 99.24C754.759 100.6 755.382 101.28 756.629 101.28C759.235 101.28 762.409 99.6367 766.149 96.35C769.889 92.95 773.515 89.21 777.029 85.13C777.482 85.13 777.709 85.47 777.709 86.15C777.709 87.17 777.482 87.9633 777.029 88.53C775.442 90.23 773.402 92.3833 770.909 94.99C768.529 97.4833 765.809 99.75 762.749 101.79C759.689 103.717 756.345 104.68 752.719 104.68ZM772.429 104.68C769.596 104.68 767.613 104 766.479 102.64C765.346 101.28 764.779 99.5233 764.779 97.37C764.779 93.63 766.139 89.38 768.859 84.62C770.446 81.9 772.599 78.7833 775.319 75.27C778.153 71.6433 781.326 67.8467 784.839 63.88C788.353 59.8 791.866 55.8333 795.379 51.98H783.989L785.859 49.6H797.589C800.763 46.3133 803.709 43.2533 806.429 40.42C809.263 37.4733 811.586 35.0933 813.399 33.28C818.386 28.2933 822.976 24.4967 827.169 21.89C831.476 19.2833 834.876 17.98 837.369 17.98C835.556 19.5667 832.893 22.06 829.379 25.46C825.979 28.86 822.183 32.6567 817.989 36.85C813.909 41.0433 809.886 45.2933 805.919 49.6H817.649L815.779 51.98H803.879C801.726 54.4733 799.686 56.7967 797.759 58.95C795.946 61.1033 794.359 63.1433 792.999 65.07C787.673 72.3233 783.366 78.2733 780.079 82.92C776.793 87.5667 774.639 91.08 773.619 93.46C772.826 95.3867 772.429 96.9733 772.429 98.22C772.429 100.373 773.449 101.45 775.489 101.45C777.189 101.45 779.003 100.883 780.929 99.75C783.763 98.1633 786.596 95.8967 789.429 92.95C792.376 89.89 794.756 87.2833 796.569 85.13C797.023 85.13 797.249 85.47 797.249 86.15C797.249 87.17 797.023 87.9633 796.569 88.53C792.263 93.5167 788.239 97.4833 784.499 100.43C780.759 103.263 776.736 104.68 772.429 104.68ZM802.186 105.19C799.919 105.19 797.709 104.963 795.556 104.51C793.516 104.057 791.703 103.263 790.116 102.13C788.869 101.223 787.849 99.9767 787.056 98.39C786.149 96.8033 785.696 94.7633 785.696 92.27C785.696 89.3233 786.433 87.0567 787.906 85.47C789.266 83.8833 790.739 83.09 792.326 83.09C793.573 81.5033 795.273 79.2933 797.426 76.46C799.579 73.5133 801.959 70.2833 804.566 66.77C807.286 63.2567 810.063 59.7433 812.896 56.23C815.729 52.6033 818.393 49.3733 820.886 46.54C822.473 44.9533 824.116 43.2533 825.816 41.44C827.629 39.6267 829.613 38.0967 831.766 36.85C834.033 35.49 836.413 34.81 838.906 34.81C840.833 34.81 842.193 35.2633 842.986 36.17C843.893 37.0767 844.346 38.1533 844.346 39.4C844.346 40.08 844.176 40.7033 843.836 41.27C842.589 41.0433 840.833 41.27 838.566 41.95C836.299 42.5167 833.806 43.5933 831.086 45.18C828.139 46.9933 825.136 49.26 822.076 51.98C821.963 53.34 821.793 55.4367 821.566 58.27C821.453 60.99 821.283 64.1067 821.056 67.62C820.829 71.02 820.433 74.4767 819.866 77.99C819.413 81.39 818.789 84.3933 817.996 87C817.429 88.8133 816.523 90.8533 815.276 93.12C814.029 95.2733 812.329 97.3133 810.176 99.24C808.136 101.053 805.586 102.3 802.526 102.98C806.606 102.98 810.006 102.357 812.726 101.11C815.446 99.8633 817.713 98.4467 819.526 96.86C821.453 95.16 822.983 93.8 824.116 92.78C825.023 91.8733 826.269 90.57 827.856 88.87C829.443 87.17 830.576 85.9233 831.256 85.13C831.709 85.13 831.936 85.47 831.936 86.15C831.936 87.17 831.709 87.9633 831.256 88.53C826.496 93.63 822.529 97.37 819.356 99.75C816.523 101.903 813.633 103.32 810.686 104C807.739 104.793 804.906 105.19 802.186 105.19ZM796.236 101.96C798.163 101.96 799.919 101.223 801.506 99.75C803.206 98.1633 804.736 96.35 806.096 94.31C807.456 92.1567 808.533 90.1733 809.326 88.36C810.573 85.64 811.876 82.1833 813.236 77.99C814.596 73.7967 815.899 69.5467 817.146 65.24C818.393 60.82 819.413 57.0233 820.206 53.85C817.033 56.91 813.859 60.2533 810.686 63.88C807.626 67.5067 804.793 70.9633 802.186 74.25C799.579 77.5367 797.426 80.2567 795.726 82.41C794.253 84.3367 793.119 86.3767 792.326 88.53C791.533 90.6833 791.136 92.7233 791.136 94.65C791.136 96.8033 791.589 98.56 792.496 99.92C793.403 101.28 794.649 101.96 796.236 101.96ZM775.65 145.14C772.59 145.14 770.04 144.8 768 144.12C767.093 143.667 766.187 143.043 765.28 142.25C764.26 141.457 763.58 140.437 763.24 139.19C764.487 140.21 765.903 140.947 767.49 141.4C769.077 141.967 771.003 142.193 773.27 142.08C779.843 142.08 786.02 140.267 791.8 136.64C797.467 133.013 802.793 128.253 807.78 122.36C812.767 116.58 817.413 110.403 821.72 103.83C828.633 93.5167 835.207 83.09 841.44 72.55C847.673 61.8967 854.19 51.64 860.99 41.78C862.577 41.8933 863.37 43.0267 863.37 45.18C863.37 48.0133 861.953 52.32 859.12 58.1C856.287 63.7667 852.377 70.4533 847.39 78.16C846.937 78.7267 846.54 79.35 846.2 80.03C845.86 80.71 845.463 81.39 845.01 82.07C848.41 78.1033 851.923 74.08 855.55 70C859.29 65.8067 862.973 62.01 866.6 58.61C870.227 55.0967 873.74 52.2633 877.14 50.11C880.54 47.9567 883.657 46.88 886.49 46.88C890.117 46.88 891.93 49.09 891.93 53.51C891.93 56.23 891.08 59.63 889.38 63.71C887.68 67.79 885.073 72.0967 881.56 76.63C879.407 79.4633 876.687 82.5233 873.4 85.81C870.227 88.9833 866.713 92.0433 862.86 94.99C859.12 97.8233 855.267 100.147 851.3 101.96C847.333 103.773 843.48 104.68 839.74 104.68C836.68 104.68 834.867 104.113 834.3 102.98C834.073 102.64 834.017 102.357 834.13 102.13C834.357 101.903 834.527 101.79 834.64 101.79C834.64 101.79 834.923 101.847 835.49 101.96C836.057 102.073 836.737 102.13 837.53 102.13C840.25 102.13 843.367 101.167 846.88 99.24C850.393 97.3133 854.077 94.7067 857.93 91.42C861.897 88.1333 865.637 84.45 869.15 80.37C873.003 76.0633 876.233 71.8133 878.84 67.62C881.447 63.3133 883.147 59.8 883.94 57.08C884.167 56.1733 884.28 55.4367 884.28 54.87C884.28 53.9633 884.053 53.2267 883.6 52.66C883.26 51.98 882.523 51.7533 881.39 51.98C878.557 52.66 875.157 54.6433 871.19 57.93C867.223 61.2167 863.087 65.1267 858.78 69.66C854.473 74.1933 850.337 78.7833 846.37 83.43C842.517 87.9633 839.117 91.93 836.17 95.33C831.977 101.677 827.217 108.193 821.89 114.88C816.45 121.68 810.67 127.687 804.55 132.9C798.317 138.227 791.8 141.91 785 143.95C782.847 144.743 779.73 145.14 775.65 145.14ZM891.242 105.19C886.029 105.19 882.345 104.057 880.192 101.79C878.039 99.5233 876.962 96.4633 876.962 92.61C876.962 88.87 877.982 84.96 880.022 80.88C882.175 76.6867 884.839 72.72 888.012 68.98C889.939 66.7133 892.319 64.3333 895.152 61.84C897.985 59.3467 901.045 57.0233 904.332 54.87C907.619 52.6033 910.849 50.79 914.022 49.43C917.309 47.9567 920.199 47.22 922.692 47.22C924.052 47.22 925.299 47.56 926.432 48.24C927.565 48.8067 928.132 50.11 928.132 52.15C928.132 54.9833 926.772 57.7033 924.052 60.31C921.332 62.8033 918.272 65.1267 914.872 67.28C911.019 69.7733 906.995 71.87 902.802 73.57C898.609 75.27 894.982 76.5733 891.922 77.48C890.222 80.2 888.862 82.9767 887.842 85.81C886.822 88.6433 886.312 91.42 886.312 94.14C886.312 97.0867 886.992 99.1267 888.352 100.26C889.825 101.28 891.525 101.79 893.452 101.79C896.965 101.79 900.139 100.997 902.972 99.41C905.919 97.71 908.639 95.5567 911.132 92.95C913.625 90.3433 916.005 87.7367 918.272 85.13C918.725 85.13 918.952 85.47 918.952 86.15C918.952 87.17 918.725 87.9633 918.272 88.53C916.005 91.1367 913.512 93.7433 910.792 96.35C908.185 98.9567 905.295 101.11 902.122 102.81C898.949 104.397 895.322 105.19 891.242 105.19ZM893.962 75.1C896.909 74.08 900.365 72.6633 904.332 70.85C908.412 69.0367 911.982 67.0533 915.042 64.9C915.722 64.4467 916.912 63.54 918.612 62.18C920.312 60.7067 921.899 59.12 923.372 57.42C924.845 55.6067 925.582 54.02 925.582 52.66C925.582 50.8467 924.675 49.94 922.862 49.94C920.935 49.94 918.725 50.79 916.232 52.49C913.852 54.19 911.925 55.6633 910.452 56.91C907.732 59.4033 904.899 62.18 901.952 65.24C899.005 68.3 896.342 71.5867 893.962 75.1ZM922.752 105.19C917.539 105.19 913.855 104.057 911.702 101.79C909.549 99.5233 908.472 96.4633 908.472 92.61C908.472 88.87 909.492 84.96 911.532 80.88C913.685 76.6867 916.349 72.72 919.522 68.98C921.449 66.7133 923.829 64.3333 926.662 61.84C929.495 59.3467 932.555 57.0233 935.842 54.87C939.129 52.6033 942.359 50.79 945.532 49.43C948.819 47.9567 951.709 47.22 954.202 47.22C955.562 47.22 956.809 47.56 957.942 48.24C959.075 48.8067 959.642 50.11 959.642 52.15C959.642 54.9833 958.282 57.7033 955.562 60.31C952.842 62.8033 949.782 65.1267 946.382 67.28C942.529 69.7733 938.505 71.87 934.312 73.57C930.119 75.27 926.492 76.5733 923.432 77.48C921.732 80.2 920.372 82.9767 919.352 85.81C918.332 88.6433 917.822 91.42 917.822 94.14C917.822 97.0867 918.502 99.1267 919.862 100.26C921.335 101.28 923.035 101.79 924.962 101.79C928.475 101.79 931.649 100.997 934.482 99.41C937.429 97.71 940.149 95.5567 942.642 92.95C945.135 90.3433 947.515 87.7367 949.782 85.13C950.235 85.13 950.462 85.47 950.462 86.15C950.462 87.17 950.235 87.9633 949.782 88.53C947.515 91.1367 945.022 93.7433 942.302 96.35C939.695 98.9567 936.805 101.11 933.632 102.81C930.459 104.397 926.832 105.19 922.752 105.19ZM925.472 75.1C928.419 74.08 931.875 72.6633 935.842 70.85C939.922 69.0367 943.492 67.0533 946.552 64.9C947.232 64.4467 948.422 63.54 950.122 62.18C951.822 60.7067 953.409 59.12 954.882 57.42C956.355 55.6067 957.092 54.02 957.092 52.66C957.092 50.8467 956.185 49.94 954.372 49.94C952.445 49.94 950.235 50.79 947.742 52.49C945.362 54.19 943.435 55.6633 941.962 56.91C939.242 59.4033 936.409 62.18 933.462 65.24C930.515 68.3 927.852 71.5867 925.472 75.1ZM944.402 104.17C940.208 104.397 938.112 102.017 938.112 97.03C938.112 94.31 938.905 91.08 940.492 87.34C942.078 83.4867 944.458 79.4633 947.632 75.27C950.125 72.0967 953.298 68.64 957.152 64.9C961.005 61.16 965.198 57.76 969.732 54.7C974.265 51.5267 978.798 49.26 983.332 47.9C984.578 47.56 985.882 47.3333 987.242 47.22C988.602 46.9933 990.245 46.88 992.172 46.88C993.985 46.88 994.892 47.1067 994.892 47.56C994.892 48.1267 994.098 48.58 992.512 48.92C991.152 49.26 989.508 49.8267 987.582 50.62C985.655 51.4133 983.898 52.2633 982.312 53.17C979.025 54.9833 975.568 57.4767 971.942 60.65C968.315 63.71 964.745 67.2233 961.232 71.19C957.378 75.4967 954.205 79.7467 951.712 83.94C949.218 88.02 947.575 91.42 946.782 94.14C946.555 95.0467 946.442 95.84 946.442 96.52C946.442 98.1067 947.065 98.9 948.312 98.9C949.105 98.9 950.182 98.56 951.542 97.88C952.902 97.0867 954.658 95.7833 956.812 93.97C961.118 90.3433 965.425 86.2067 969.732 81.56C974.152 76.9133 978.118 72.0967 981.632 67.11C984.352 63.2567 987.525 59.1767 991.152 54.87C994.778 50.45 998.575 46.2 1002.54 42.12C1006.51 37.9267 1010.36 34.13 1014.1 30.73C1017.95 27.33 1021.41 24.61 1024.47 22.57C1027.98 20.19 1030.42 18.83 1031.78 18.49C1033.25 18.15 1034.5 17.98 1035.52 17.98C1034.5 18.7733 1032.29 20.8133 1028.89 24.1C1025.6 27.2733 1021.64 31.2967 1016.99 36.17C1012.46 41.0433 1007.7 46.3133 1002.71 51.98C997.838 57.6467 993.362 63.3133 989.282 68.98C986.108 73.2867 983.105 77.7633 980.272 82.41C977.438 86.9433 975.568 90.57 974.662 93.29C974.322 94.1967 974.095 94.99 973.982 95.67C973.868 96.35 973.812 96.9733 973.812 97.54C973.812 99.3533 974.548 100.26 976.022 100.26C977.042 100.26 978.232 99.8633 979.592 99.07C981.065 98.1633 982.538 97.1433 984.012 96.01C985.938 94.4233 987.808 92.6667 989.622 90.74C991.548 88.8133 993.248 86.9433 994.722 85.13C995.175 85.13 995.402 85.47 995.402 86.15C995.402 87.17 995.175 87.9633 994.722 88.53C993.248 90.23 991.435 92.1 989.282 94.14C987.242 96.18 985.202 97.9933 983.162 99.58C981.688 100.827 979.988 101.903 978.062 102.81C976.135 103.717 974.265 104.17 972.452 104.17C969.845 104.17 967.975 103.547 966.842 102.3C965.822 101.053 965.312 99.4667 965.312 97.54C965.312 95.6133 965.708 93.5167 966.502 91.25C967.295 88.9833 968.258 86.7733 969.392 84.62C967.465 86.66 965.368 88.87 963.102 91.25C960.835 93.5167 959.362 94.9333 958.682 95.5C956.188 97.7667 953.808 99.75 951.542 101.45C949.275 103.037 946.895 103.943 944.402 104.17Z"/>
</mask>
<path d="M117.6 118.96C110.8 118.96 104 117.997 97.2 116.07C90.4 114.257 83.6567 111.933 76.97 109.1C70.2833 106.38 63.71 103.717 57.25 101.11C52.3767 103.603 47.1067 105.813 41.44 107.74C35.7733 109.78 29.88 110.913 23.76 111.14C16.28 111.14 10.7833 109.78 7.27 107.06C3.75667 104.34 2 101.11 2 97.37C2 93.63 3.75667 90.1733 7.27 87C10.7833 83.8267 15.6567 82.24 21.89 82.24C27.33 82.24 32.9967 83.4867 38.89 85.98C44.7833 88.4733 50.9033 91.3633 57.25 94.65C61.5567 91.0233 65.8067 86.9433 70 82.41C74.3067 77.7633 78.5567 72.8333 82.75 67.62C79.69 67.3933 76.4033 66.8267 72.89 65.92C69.49 64.9 66.26 63.5967 63.2 62.01C60.14 60.31 57.59 58.27 55.55 55.89C53.6233 53.3967 52.66 50.5067 52.66 47.22C52.66 43.48 53.7367 40.3067 55.89 37.7C58.0433 34.98 60.82 32.77 64.22 31.07C67.7333 29.37 71.4733 28.1233 75.44 27.33C79.52 26.4233 83.43 25.97 87.17 25.97C91.59 25.97 95.7833 26.3667 99.75 27.16C103.717 27.84 107.343 28.8033 110.63 30.05C114.71 25.0633 119.017 20.4733 123.55 16.28C128.083 11.9733 132.787 8.51667 137.66 5.91C142.647 3.30333 147.803 2 153.13 2C157.55 2 160.78 3.19 162.82 5.56999C164.973 7.83667 166.05 10.7833 166.05 14.41C166.05 18.9433 164.463 24.0433 161.29 29.71C158.23 35.3767 153.64 40.93 147.52 46.37C141.4 51.81 133.863 56.4567 124.91 60.31C116.07 64.1633 105.927 66.5433 94.48 67.45C89.9467 73.3433 85.0733 78.8967 79.86 84.11C74.76 89.3233 69.0933 93.8567 62.86 97.71C68.4133 100.543 74.0233 103.32 79.69 106.04C85.47 108.873 91.3633 111.14 97.37 112.84C103.49 114.653 109.723 115.56 116.07 115.56C119.697 115.56 123.323 115.05 126.95 114.03C130.577 113.123 133.637 111.423 136.13 108.93C138.623 106.55 139.87 103.263 139.87 99.07C139.87 95.1033 138.34 92.27 135.28 90.57C132.333 88.87 128.707 88.02 124.4 88.02C121.453 88.02 118.223 88.53 114.71 89.55C111.31 90.4567 108.363 91.8167 105.87 93.63C105.417 93.97 105.02 94.14 104.68 94.14C104.34 94.14 104.17 94.0267 104.17 93.8C104.17 92.6667 105.417 91.4767 107.91 90.23C110.403 88.87 113.35 87.7367 116.75 86.83C120.263 85.81 123.323 85.3 125.93 85.3C128.423 85.3 131.313 85.7533 134.6 86.66C137.887 87.4533 140.777 88.87 143.27 90.91C145.763 92.95 147.01 95.7833 147.01 99.41C147.01 103.943 145.48 107.627 142.42 110.46C139.36 113.407 135.563 115.56 131.03 116.92C126.61 118.28 122.133 118.96 117.6 118.96ZM96.86 64.39C107.06 63.2567 116.127 60.7067 124.06 56.74C132.107 52.7733 138.963 48.1833 144.63 42.97C150.297 37.6433 154.603 32.3167 157.55 26.99C160.497 21.6633 161.97 17.0733 161.97 13.22C161.97 10.6133 161.233 8.51666 159.76 6.93C158.4 5.34333 156.247 4.55 153.3 4.55C150.467 4.55 147.52 5.4 144.46 7.1C141.4 8.68666 138.397 10.7267 135.45 13.22C132.617 15.7133 130.01 18.2633 127.63 20.87C125.363 23.3633 123.607 25.5167 122.36 27.33L117.77 33.79C121.057 36.0567 123.833 38.6633 126.1 41.61C126.553 42.1767 126.78 42.97 126.78 43.99C126.78 44.67 126.667 45.01 126.44 45.01C126.327 45.01 126.157 44.84 125.93 44.5C123.323 41.2133 120.093 38.38 116.24 36C113.18 40.5333 110.063 45.2367 106.89 50.11C103.717 54.87 100.373 59.63 96.86 64.39ZM84.79 64.9C88.0767 60.9333 91.7033 56.0033 95.67 50.11C99.6367 44.2167 104 38.3233 108.76 32.43C101.96 29.8233 94.48 28.52 86.32 28.52C83.8267 28.52 80.9933 28.9733 77.82 29.88C74.76 30.6733 71.8133 31.92 68.98 33.62C66.26 35.2067 63.9933 37.19 62.18 39.57C60.3667 41.95 59.46 44.7267 59.46 47.9C59.46 51.5267 60.82 54.5867 63.54 57.08C66.26 59.5733 69.6033 61.4433 73.57 62.69C77.5367 63.9367 81.2767 64.6733 84.79 64.9ZM23.76 108.42C28.86 108.42 33.7333 107.513 38.38 105.7C43.0267 104 47.5033 101.677 51.81 98.73C45.9167 96.35 40.1933 94.3667 34.64 92.78C29.2 91.08 23.9867 90.23 19 90.23C14.3533 90.23 11.01 90.91 8.97 92.27C6.93 93.63 5.91 95.2733 5.91 97.2C5.91 99.6933 7.55333 102.187 10.84 104.68C14.1267 107.173 18.4333 108.42 23.76 108.42ZM190.383 40.08C188.116 40.08 186.983 39.1733 186.983 37.36C186.983 36.7933 187.153 36.17 187.493 35.49C188.059 34.13 189.023 32.94 190.383 31.92C191.856 30.7867 193.273 30.22 194.633 30.22C196.786 30.22 197.863 31.1267 197.863 32.94C197.863 34.64 197.069 36.2267 195.483 37.7C193.896 39.1733 192.196 39.9667 190.383 40.08ZM153.493 104.34C150.433 104.34 148.279 103.547 147.033 101.96C145.673 100.26 144.993 98.1633 144.993 95.67C144.993 92.3833 146.013 88.87 148.053 85.13C149.979 81.2767 152.416 77.48 155.363 73.74C158.309 69.8867 161.313 66.3167 164.373 63.03C167.433 59.63 170.096 56.8533 172.363 54.7C174.516 52.5467 176.726 50.96 178.993 49.94C181.259 48.92 183.186 48.24 184.773 47.9C186.473 47.4467 187.323 47.22 187.323 47.22C184.829 50.0533 181.429 54.0767 177.123 59.29C172.816 64.5033 168.566 70.0567 164.373 75.95C164.033 76.4033 163.239 77.5367 161.993 79.35C160.746 81.1633 159.329 83.26 157.743 85.64C156.269 88.02 154.966 90.3433 153.833 92.61C152.813 94.8767 152.303 96.69 152.303 98.05C152.303 100.203 153.436 101.28 155.703 101.28C157.403 101.28 159.216 100.657 161.143 99.41C163.183 98.1633 165.223 96.6333 167.263 94.82C169.303 93.0067 171.116 91.25 172.703 89.55C174.403 87.7367 175.706 86.2633 176.613 85.13C177.066 85.13 177.293 85.47 177.293 86.15C177.293 87.17 177.066 87.9633 176.613 88.53C172.306 93.5167 168.396 97.4267 164.883 100.26C161.483 102.98 157.686 104.34 153.493 104.34ZM171.847 104C169.127 104 167.201 103.433 166.067 102.3C164.934 101.053 164.367 99.5233 164.367 97.71C164.367 95.7833 164.821 93.6867 165.727 91.42C166.634 89.1533 167.711 86.8867 168.957 84.62C171.111 80.9933 173.774 77.3667 176.947 73.74C180.234 70.1133 183.577 66.77 186.977 63.71C190.491 60.65 193.551 58.1 196.157 56.06C198.651 53.9067 201.257 52.2067 203.977 50.96C202.504 51.0733 201.031 51.1867 199.557 51.3C198.197 51.4133 196.894 51.5267 195.647 51.64C193.267 51.7533 191.057 52.0367 189.017 52.49C187.091 52.83 185.277 53.51 183.577 54.53C184.144 52.6033 185.334 51.0167 187.147 49.77C189.074 48.41 191.001 47.6733 192.927 47.56C194.854 47.3333 197.234 47.3333 200.067 47.56C202.901 47.7867 205.507 47.9 207.887 47.9C208.567 47.9 209.361 47.8433 210.267 47.73C211.287 47.6167 212.081 47.3333 212.647 46.88C212.647 48.0133 211.797 48.9767 210.097 49.77C209.417 50.11 208.737 50.45 208.057 50.79C207.377 51.13 206.811 51.47 206.357 51.81C205.224 52.6033 204.091 53.51 202.957 54.53C201.937 55.55 200.861 56.6267 199.727 57.76C191.001 66.26 183.407 76.2333 176.947 87.68C175.927 89.4933 175.021 91.25 174.227 92.95C173.547 94.5367 173.207 95.84 173.207 96.86C173.207 98.1067 173.887 98.73 175.247 98.73C177.287 98.73 179.837 97.7667 182.897 95.84C185.957 93.9133 189.301 91.3067 192.927 88.02C196.554 84.7333 200.124 80.9933 203.637 76.8C204.884 75.3267 206.471 73.1733 208.397 70.34C210.437 67.5067 212.307 64.73 214.007 62.01C215.821 59.29 217.011 57.42 217.577 56.4C220.184 51.98 222.734 49.3167 225.227 48.41C227.834 47.39 230.214 46.9933 232.367 47.22C231.574 48.3533 230.101 50.2233 227.947 52.83C225.907 55.4367 223.471 58.3833 220.637 61.67C217.917 64.9567 215.141 68.2433 212.307 71.53C209.587 74.7033 207.094 77.5367 204.827 80.03C202.674 82.5233 201.144 84.28 200.237 85.3C197.291 88.36 194.231 91.3633 191.057 94.31C187.997 97.1433 184.824 99.4667 181.537 101.28C178.364 103.093 175.134 104 171.847 104ZM219.178 105.19C213.964 105.19 210.281 104.057 208.128 101.79C205.974 99.5233 204.898 96.4633 204.898 92.61C204.898 88.87 205.918 84.96 207.958 80.88C210.111 76.6867 212.774 72.72 215.948 68.98C217.874 66.7133 220.254 64.3333 223.088 61.84C225.921 59.3467 228.981 57.0233 232.268 54.87C235.554 52.6033 238.784 50.79 241.958 49.43C245.244 47.9567 248.134 47.22 250.628 47.22C251.988 47.22 253.234 47.56 254.368 48.24C255.501 48.8067 256.068 50.11 256.068 52.15C256.068 54.9833 254.708 57.7033 251.988 60.31C249.268 62.8033 246.208 65.1267 242.808 67.28C238.954 69.7733 234.931 71.87 230.738 73.57C226.544 75.27 222.918 76.5733 219.858 77.48C218.158 80.2 216.798 82.9767 215.778 85.81C214.758 88.6433 214.248 91.42 214.248 94.14C214.248 97.0867 214.928 99.1267 216.288 100.26C217.761 101.28 219.461 101.79 221.388 101.79C224.901 101.79 228.074 100.997 230.908 99.41C233.854 97.71 236.574 95.5567 239.068 92.95C241.561 90.3433 243.941 87.7367 246.208 85.13C246.661 85.13 246.888 85.47 246.888 86.15C246.888 87.17 246.661 87.9633 246.208 88.53C243.941 91.1367 241.448 93.7433 238.728 96.35C236.121 98.9567 233.231 101.11 230.058 102.81C226.884 104.397 223.258 105.19 219.178 105.19ZM221.898 75.1C224.844 74.08 228.301 72.6633 232.268 70.85C236.348 69.0367 239.918 67.0533 242.978 64.9C243.658 64.4467 244.848 63.54 246.548 62.18C248.248 60.7067 249.834 59.12 251.308 57.42C252.781 55.6067 253.518 54.02 253.518 52.66C253.518 50.8467 252.611 49.94 250.798 49.94C248.871 49.94 246.661 50.79 244.168 52.49C241.788 54.19 239.861 55.6633 238.388 56.91C235.668 59.4033 232.834 62.18 229.888 65.24C226.941 68.3 224.278 71.5867 221.898 75.1ZM372.434 118.96C365.634 118.96 358.834 117.997 352.034 116.07C345.234 114.257 338.491 111.933 331.804 109.1C325.117 106.38 318.544 103.717 312.084 101.11C307.211 103.603 301.941 105.813 296.274 107.74C290.607 109.78 284.714 110.913 278.594 111.14C271.114 111.14 265.617 109.78 262.104 107.06C258.591 104.34 256.834 101.11 256.834 97.37C256.834 93.63 258.591 90.1733 262.104 87C265.617 83.8267 270.491 82.24 276.724 82.24C282.164 82.24 287.831 83.4867 293.724 85.98C299.617 88.4733 305.737 91.3633 312.084 94.65C316.391 91.0233 320.641 86.9433 324.834 82.41C329.141 77.7633 333.391 72.8333 337.584 67.62C334.524 67.3933 331.237 66.8267 327.724 65.92C324.324 64.9 321.094 63.5967 318.034 62.01C314.974 60.31 312.424 58.27 310.384 55.89C308.457 53.3967 307.494 50.5067 307.494 47.22C307.494 43.48 308.571 40.3067 310.724 37.7C312.877 34.98 315.654 32.77 319.054 31.07C322.567 29.37 326.307 28.1233 330.274 27.33C334.354 26.4233 338.264 25.97 342.004 25.97C346.424 25.97 350.617 26.3667 354.584 27.16C358.551 27.84 362.177 28.8033 365.464 30.05C369.544 25.0633 373.851 20.4733 378.384 16.28C382.917 11.9733 387.621 8.51667 392.494 5.91C397.481 3.30333 402.637 2 407.964 2C412.384 2 415.614 3.19 417.654 5.56999C419.807 7.83667 420.884 10.7833 420.884 14.41C420.884 18.9433 419.297 24.0433 416.124 29.71C413.064 35.3767 408.474 40.93 402.354 46.37C396.234 51.81 388.697 56.4567 379.744 60.31C370.904 64.1633 360.761 66.5433 349.314 67.45C344.781 73.3433 339.907 78.8967 334.694 84.11C329.594 89.3233 323.927 93.8567 317.694 97.71C323.247 100.543 328.857 103.32 334.524 106.04C340.304 108.873 346.197 111.14 352.204 112.84C358.324 114.653 364.557 115.56 370.904 115.56C374.531 115.56 378.157 115.05 381.784 114.03C385.411 113.123 388.471 111.423 390.964 108.93C393.457 106.55 394.704 103.263 394.704 99.07C394.704 95.1033 393.174 92.27 390.114 90.57C387.167 88.87 383.541 88.02 379.234 88.02C376.287 88.02 373.057 88.53 369.544 89.55C366.144 90.4567 363.197 91.8167 360.704 93.63C360.251 93.97 359.854 94.14 359.514 94.14C359.174 94.14 359.004 94.0267 359.004 93.8C359.004 92.6667 360.251 91.4767 362.744 90.23C365.237 88.87 368.184 87.7367 371.584 86.83C375.097 85.81 378.157 85.3 380.764 85.3C383.257 85.3 386.147 85.7533 389.434 86.66C392.721 87.4533 395.611 88.87 398.104 90.91C400.597 92.95 401.844 95.7833 401.844 99.41C401.844 103.943 400.314 107.627 397.254 110.46C394.194 113.407 390.397 115.56 385.864 116.92C381.444 118.28 376.967 118.96 372.434 118.96ZM351.694 64.39C361.894 63.2567 370.961 60.7067 378.894 56.74C386.941 52.7733 393.797 48.1833 399.464 42.97C405.131 37.6433 409.437 32.3167 412.384 26.99C415.331 21.6633 416.804 17.0733 416.804 13.22C416.804 10.6133 416.067 8.51666 414.594 6.93C413.234 5.34333 411.081 4.55 408.134 4.55C405.301 4.55 402.354 5.4 399.294 7.1C396.234 8.68666 393.231 10.7267 390.284 13.22C387.451 15.7133 384.844 18.2633 382.464 20.87C380.197 23.3633 378.441 25.5167 377.194 27.33L372.604 33.79C375.891 36.0567 378.667 38.6633 380.934 41.61C381.387 42.1767 381.614 42.97 381.614 43.99C381.614 44.67 381.501 45.01 381.274 45.01C381.161 45.01 380.991 44.84 380.764 44.5C378.157 41.2133 374.927 38.38 371.074 36C368.014 40.5333 364.897 45.2367 361.724 50.11C358.551 54.87 355.207 59.63 351.694 64.39ZM339.624 64.9C342.911 60.9333 346.537 56.0033 350.504 50.11C354.471 44.2167 358.834 38.3233 363.594 32.43C356.794 29.8233 349.314 28.52 341.154 28.52C338.661 28.52 335.827 28.9733 332.654 29.88C329.594 30.6733 326.647 31.92 323.814 33.62C321.094 35.2067 318.827 37.19 317.014 39.57C315.201 41.95 314.294 44.7267 314.294 47.9C314.294 51.5267 315.654 54.5867 318.374 57.08C321.094 59.5733 324.437 61.4433 328.404 62.69C332.371 63.9367 336.111 64.6733 339.624 64.9ZM278.594 108.42C283.694 108.42 288.567 107.513 293.214 105.7C297.861 104 302.337 101.677 306.644 98.73C300.751 96.35 295.027 94.3667 289.474 92.78C284.034 91.08 278.821 90.23 273.834 90.23C269.187 90.23 265.844 90.91 263.804 92.27C261.764 93.63 260.744 95.2733 260.744 97.2C260.744 99.6933 262.387 102.187 265.674 104.68C268.961 107.173 273.267 108.42 278.594 108.42ZM405.034 104.85C401.747 104.85 399.424 104.057 398.064 102.47C396.591 100.77 395.854 98.6733 395.854 96.18C395.854 93.0067 396.761 89.2667 398.574 84.96C400.501 80.6533 403.051 76.29 406.224 71.87C409.397 67.45 412.967 63.37 416.934 59.63C420.901 55.7767 424.924 52.7167 429.004 50.45C433.197 48.07 437.221 46.88 441.074 46.88C443.907 46.88 445.947 47.6167 447.194 49.09C448.441 50.5633 449.064 52.49 449.064 54.87C449.064 58.0433 448.157 61.84 446.344 66.26C444.531 70.5667 442.037 74.9867 438.864 79.52C435.804 83.94 432.347 88.0767 428.494 91.93C424.754 95.7833 420.844 98.9 416.764 101.28C412.684 103.66 408.774 104.85 405.034 104.85ZM407.074 101.62C409.454 101.62 412.287 100.43 415.574 98.05C418.974 95.5567 422.431 92.3833 425.944 88.53C429.457 84.6767 432.687 80.5967 435.634 76.29C438.694 71.87 441.131 67.7333 442.944 63.88C444.871 59.9133 445.834 56.6833 445.834 54.19C445.834 51.47 444.531 50.11 441.924 50.11C439.771 50.11 437.051 51.4133 433.764 54.02C430.591 56.5133 427.247 59.7433 423.734 63.71C420.334 67.6767 417.104 71.87 414.044 76.29C410.984 80.71 408.491 84.9033 406.564 88.87C404.751 92.8367 403.844 95.9533 403.844 98.22C403.844 100.487 404.921 101.62 407.074 101.62ZM437.472 104C434.752 104 432.826 103.433 431.692 102.3C430.559 101.053 429.992 99.5233 429.992 97.71C429.992 95.7833 430.446 93.6867 431.352 91.42C432.259 89.1533 433.336 86.8867 434.582 84.62C436.736 80.9933 439.399 77.3667 442.572 73.74C445.859 70.1133 449.202 66.77 452.602 63.71C456.116 60.65 459.176 58.1 461.782 56.06C464.276 53.9067 466.882 52.2067 469.602 50.96C468.129 51.0733 466.656 51.1867 465.182 51.3C463.822 51.4133 462.519 51.5267 461.272 51.64C458.892 51.7533 456.682 52.0367 454.642 52.49C452.716 52.83 450.902 53.51 449.202 54.53C449.769 52.6033 450.959 51.0167 452.772 49.77C454.699 48.41 456.626 47.6733 458.552 47.56C460.479 47.3333 462.859 47.3333 465.692 47.56C468.526 47.7867 471.132 47.9 473.512 47.9C474.192 47.9 474.986 47.8433 475.892 47.73C476.912 47.6167 477.706 47.3333 478.272 46.88C478.272 48.0133 477.422 48.9767 475.722 49.77C475.042 50.11 474.362 50.45 473.682 50.79C473.002 51.13 472.436 51.47 471.982 51.81C470.849 52.6033 469.716 53.51 468.582 54.53C467.562 55.55 466.486 56.6267 465.352 57.76C456.626 66.26 449.032 76.2333 442.572 87.68C441.552 89.4933 440.646 91.25 439.852 92.95C439.172 94.5367 438.832 95.84 438.832 96.86C438.832 98.1067 439.512 98.73 440.872 98.73C442.912 98.73 445.462 97.7667 448.522 95.84C451.582 93.9133 454.926 91.3067 458.552 88.02C462.179 84.7333 465.749 80.9933 469.262 76.8C470.509 75.3267 472.096 73.1733 474.022 70.34C476.062 67.5067 477.932 64.73 479.632 62.01C481.446 59.29 482.636 57.42 483.202 56.4C485.809 51.98 488.359 49.3167 490.852 48.41C493.459 47.39 495.839 46.9933 497.992 47.22C497.199 48.3533 495.726 50.2233 493.572 52.83C491.532 55.4367 489.096 58.3833 486.262 61.67C483.542 64.9567 480.766 68.2433 477.932 71.53C475.212 74.7033 472.719 77.5367 470.452 80.03C468.299 82.5233 466.769 84.28 465.862 85.3C462.916 88.36 459.856 91.3633 456.682 94.31C453.622 97.1433 450.449 99.4667 447.162 101.28C443.989 103.093 440.759 104 437.472 104ZM484.803 105.19C479.589 105.19 475.906 104.057 473.753 101.79C471.599 99.5233 470.523 96.4633 470.523 92.61C470.523 88.87 471.543 84.96 473.583 80.88C475.736 76.6867 478.399 72.72 481.573 68.98C483.499 66.7133 485.879 64.3333 488.713 61.84C491.546 59.3467 494.606 57.0233 497.893 54.87C501.179 52.6033 504.409 50.79 507.583 49.43C510.869 47.9567 513.759 47.22 516.253 47.22C517.613 47.22 518.859 47.56 519.993 48.24C521.126 48.8067 521.693 50.11 521.693 52.15C521.693 54.9833 520.333 57.7033 517.613 60.31C514.893 62.8033 511.833 65.1267 508.433 67.28C504.579 69.7733 500.556 71.87 496.363 73.57C492.169 75.27 488.543 76.5733 485.483 77.48C483.783 80.2 482.423 82.9767 481.403 85.81C480.383 88.6433 479.873 91.42 479.873 94.14C479.873 97.0867 480.553 99.1267 481.913 100.26C483.386 101.28 485.086 101.79 487.013 101.79C490.526 101.79 493.699 100.997 496.533 99.41C499.479 97.71 502.199 95.5567 504.693 92.95C507.186 90.3433 509.566 87.7367 511.833 85.13C512.286 85.13 512.513 85.47 512.513 86.15C512.513 87.17 512.286 87.9633 511.833 88.53C509.566 91.1367 507.073 93.7433 504.353 96.35C501.746 98.9567 498.856 101.11 495.683 102.81C492.509 104.397 488.883 105.19 484.803 105.19ZM487.523 75.1C490.469 74.08 493.926 72.6633 497.893 70.85C501.973 69.0367 505.543 67.0533 508.603 64.9C509.283 64.4467 510.473 63.54 512.173 62.18C513.873 60.7067 515.459 59.12 516.933 57.42C518.406 55.6067 519.143 54.02 519.143 52.66C519.143 50.8467 518.236 49.94 516.423 49.94C514.496 49.94 512.286 50.79 509.793 52.49C507.413 54.19 505.486 55.6633 504.013 56.91C501.293 59.4033 498.459 62.18 495.513 65.24C492.566 68.3 489.903 71.5867 487.523 75.1ZM638.059 118.96C631.259 118.96 624.459 117.997 617.659 116.07C610.859 114.257 604.116 111.933 597.429 109.1C590.742 106.38 584.169 103.717 577.709 101.11C572.836 103.603 567.566 105.813 561.899 107.74C556.232 109.78 550.339 110.913 544.219 111.14C536.739 111.14 531.242 109.78 527.729 107.06C524.216 104.34 522.459 101.11 522.459 97.37C522.459 93.63 524.216 90.1733 527.729 87C531.242 83.8267 536.116 82.24 542.349 82.24C547.789 82.24 553.456 83.4867 559.349 85.98C565.242 88.4733 571.362 91.3633 577.709 94.65C582.016 91.0233 586.266 86.9433 590.459 82.41C594.766 77.7633 599.016 72.8333 603.209 67.62C600.149 67.3933 596.862 66.8267 593.349 65.92C589.949 64.9 586.719 63.5967 583.659 62.01C580.599 60.31 578.049 58.27 576.009 55.89C574.082 53.3967 573.119 50.5067 573.119 47.22C573.119 43.48 574.196 40.3067 576.349 37.7C578.502 34.98 581.279 32.77 584.679 31.07C588.192 29.37 591.932 28.1233 595.899 27.33C599.979 26.4233 603.889 25.97 607.629 25.97C612.049 25.97 616.242 26.3667 620.209 27.16C624.176 27.84 627.802 28.8033 631.089 30.05C635.169 25.0633 639.476 20.4733 644.009 16.28C648.542 11.9733 653.246 8.51667 658.119 5.91C663.106 3.30333 668.262 2 673.589 2C678.009 2 681.239 3.19 683.279 5.56999C685.432 7.83667 686.509 10.7833 686.509 14.41C686.509 18.9433 684.922 24.0433 681.749 29.71C678.689 35.3767 674.099 40.93 667.979 46.37C661.859 51.81 654.322 56.4567 645.369 60.31C636.529 64.1633 626.386 66.5433 614.939 67.45C610.406 73.3433 605.532 78.8967 600.319 84.11C595.219 89.3233 589.552 93.8567 583.319 97.71C588.872 100.543 594.482 103.32 600.149 106.04C605.929 108.873 611.822 111.14 617.829 112.84C623.949 114.653 630.182 115.56 636.529 115.56C640.156 115.56 643.782 115.05 647.409 114.03C651.036 113.123 654.096 111.423 656.589 108.93C659.082 106.55 660.329 103.263 660.329 99.07C660.329 95.1033 658.799 92.27 655.739 90.57C652.792 88.87 649.166 88.02 644.859 88.02C641.912 88.02 638.682 88.53 635.169 89.55C631.769 90.4567 628.822 91.8167 626.329 93.63C625.876 93.97 625.479 94.14 625.139 94.14C624.799 94.14 624.629 94.0267 624.629 93.8C624.629 92.6667 625.876 91.4767 628.369 90.23C630.862 88.87 633.809 87.7367 637.209 86.83C640.722 85.81 643.782 85.3 646.389 85.3C648.882 85.3 651.772 85.7533 655.059 86.66C658.346 87.4533 661.236 88.87 663.729 90.91C666.222 92.95 667.469 95.7833 667.469 99.41C667.469 103.943 665.939 107.627 662.879 110.46C659.819 113.407 656.022 115.56 651.489 116.92C647.069 118.28 642.592 118.96 638.059 118.96ZM617.319 64.39C627.519 63.2567 636.586 60.7067 644.519 56.74C652.566 52.7733 659.422 48.1833 665.089 42.97C670.756 37.6433 675.062 32.3167 678.009 26.99C680.956 21.6633 682.429 17.0733 682.429 13.22C682.429 10.6133 681.692 8.51666 680.219 6.93C678.859 5.34333 676.706 4.55 673.759 4.55C670.926 4.55 667.979 5.4 664.919 7.1C661.859 8.68666 658.856 10.7267 655.909 13.22C653.076 15.7133 650.469 18.2633 648.089 20.87C645.822 23.3633 644.066 25.5167 642.819 27.33L638.229 33.79C641.516 36.0567 644.292 38.6633 646.559 41.61C647.012 42.1767 647.239 42.97 647.239 43.99C647.239 44.67 647.126 45.01 646.899 45.01C646.786 45.01 646.616 44.84 646.389 44.5C643.782 41.2133 640.552 38.38 636.699 36C633.639 40.5333 630.522 45.2367 627.349 50.11C624.176 54.87 620.832 59.63 617.319 64.39ZM605.249 64.9C608.536 60.9333 612.162 56.0033 616.129 50.11C620.096 44.2167 624.459 38.3233 629.219 32.43C622.419 29.8233 614.939 28.52 606.779 28.52C604.286 28.52 601.452 28.9733 598.279 29.88C595.219 30.6733 592.272 31.92 589.439 33.62C586.719 35.2067 584.452 37.19 582.639 39.57C580.826 41.95 579.919 44.7267 579.919 47.9C579.919 51.5267 581.279 54.5867 583.999 57.08C586.719 59.5733 590.062 61.4433 594.029 62.69C597.996 63.9367 601.736 64.6733 605.249 64.9ZM544.219 108.42C549.319 108.42 554.192 107.513 558.839 105.7C563.486 104 567.962 101.677 572.269 98.73C566.376 96.35 560.652 94.3667 555.099 92.78C549.659 91.08 544.446 90.23 539.459 90.23C534.812 90.23 531.469 90.91 529.429 92.27C527.389 93.63 526.369 95.2733 526.369 97.2C526.369 99.6933 528.012 102.187 531.299 104.68C534.586 107.173 538.892 108.42 544.219 108.42ZM710.842 40.08C708.575 40.08 707.442 39.1733 707.442 37.36C707.442 36.7933 707.612 36.17 707.952 35.49C708.518 34.13 709.482 32.94 710.842 31.92C712.315 30.7867 713.732 30.22 715.092 30.22C717.245 30.22 718.322 31.1267 718.322 32.94C718.322 34.64 717.528 36.2267 715.942 37.7C714.355 39.1733 712.655 39.9667 710.842 40.08ZM673.952 104.34C670.892 104.34 668.738 103.547 667.492 101.96C666.132 100.26 665.452 98.1633 665.452 95.67C665.452 92.3833 666.472 88.87 668.512 85.13C670.438 81.2767 672.875 77.48 675.822 73.74C678.768 69.8867 681.772 66.3167 684.832 63.03C687.892 59.63 690.555 56.8533 692.822 54.7C694.975 52.5467 697.185 50.96 699.452 49.94C701.718 48.92 703.645 48.24 705.232 47.9C706.932 47.4467 707.782 47.22 707.782 47.22C705.288 50.0533 701.888 54.0767 697.582 59.29C693.275 64.5033 689.025 70.0567 684.832 75.95C684.492 76.4033 683.698 77.5367 682.452 79.35C681.205 81.1633 679.788 83.26 678.202 85.64C676.728 88.02 675.425 90.3433 674.292 92.61C673.272 94.8767 672.762 96.69 672.762 98.05C672.762 100.203 673.895 101.28 676.162 101.28C677.862 101.28 679.675 100.657 681.602 99.41C683.642 98.1633 685.682 96.6333 687.722 94.82C689.762 93.0067 691.575 91.25 693.162 89.55C694.862 87.7367 696.165 86.2633 697.072 85.13C697.525 85.13 697.752 85.47 697.752 86.15C697.752 87.17 697.525 87.9633 697.072 88.53C692.765 93.5167 688.855 97.4267 685.342 100.26C681.942 102.98 678.145 104.34 673.952 104.34ZM666.466 145.82C663.066 145.82 660.743 145.537 659.496 144.97C658.25 144.517 657.626 144.12 657.626 143.78C657.626 143.327 658.023 143.1 658.816 143.1C659.383 143.1 659.95 143.1 660.516 143.1C661.083 143.213 661.593 143.27 662.046 143.27C666.126 143.27 670.206 142.023 674.286 139.53C678.366 137.037 682.333 133.693 686.186 129.5C690.04 125.42 693.723 120.887 697.236 115.9C700.75 110.913 703.923 105.983 706.756 101.11C707.776 99.2967 709.08 96.9733 710.666 94.14C712.253 91.1933 714.01 88.02 715.936 84.62C713.783 87.1133 711.8 89.3233 709.986 91.25C708.173 93.1767 706.813 94.5933 705.906 95.5C703.413 97.7667 701.033 99.75 698.766 101.45C696.5 103.037 694.12 103.943 691.626 104.17C687.433 104.397 685.336 102.017 685.336 97.03C685.336 94.31 686.13 91.08 687.716 87.34C689.303 83.4867 691.683 79.4633 694.856 75.27C697.123 72.4367 699.9 69.4333 703.186 66.26C706.473 62.9733 710.043 59.8567 713.896 56.91C717.863 53.9633 721.886 51.5833 725.966 49.77C730.046 47.8433 734.013 46.88 737.866 46.88C739.566 46.88 740.756 47.1633 741.436 47.73C742.116 48.1833 742.57 48.6933 742.796 49.26C742.91 49.7133 742.91 50.11 742.796 50.45C746.083 48.2967 749.143 47.22 751.976 47.22C752.77 47.22 753.28 47.3333 753.506 47.56C748.746 50.5067 744.496 54.3033 740.756 58.95C737.13 63.4833 733.73 68.5833 730.556 74.25C727.383 79.9167 724.21 85.7533 721.036 91.76C717.976 97.7667 714.69 103.717 711.176 109.61C707.776 115.503 703.923 120.943 699.616 125.93C694.516 131.823 689.02 136.583 683.126 140.21C677.233 143.95 671.68 145.82 666.466 145.82ZM695.536 98.9C696.33 98.9 697.406 98.56 698.766 97.88C700.126 97.0867 701.883 95.7833 704.036 93.97C707.663 90.7967 711.346 86.9433 715.086 82.41C718.826 77.7633 722.453 73.1733 725.966 68.64C728.573 65.0133 731.236 61.5567 733.956 58.27C736.79 54.9833 739.68 52.4333 742.626 50.62C742.4 50.62 742.286 50.5633 742.286 50.45C741.833 50.2233 740.926 50.11 739.566 50.11C735.486 50.11 730.613 52.0933 724.946 56.06C719.393 59.9133 713.896 64.9567 708.456 71.19C704.603 75.4967 701.43 79.7467 698.936 83.94C696.443 88.02 694.8 91.42 694.006 94.14C693.78 95.0467 693.666 95.84 693.666 96.52C693.666 98.1067 694.29 98.9 695.536 98.9ZM752.719 104.68C750.679 104.68 749.205 104.17 748.299 103.15C747.392 102.13 746.939 100.827 746.939 99.24C746.939 97.88 747.279 95.9533 747.959 93.46C749.432 89.38 751.585 85.2433 754.419 81.05C757.252 76.7433 760.312 72.6633 763.599 68.81C766.999 64.8433 770.229 61.2733 773.289 58.1C776.349 54.8133 778.785 52.15 780.599 50.11C778.899 50.11 777.029 50.5633 774.989 51.47C773.062 52.3767 771.079 53.4533 769.039 54.7C764.165 58.1 759.235 62.1233 754.249 66.77C749.375 71.4167 744.785 76.1767 740.479 81.05C736.285 85.9233 732.715 90.4 729.769 94.48C726.822 98.56 724.952 101.733 724.159 104C722.345 104 721.439 102.867 721.439 100.6C721.439 98.6733 722.005 96.2933 723.139 93.46C724.272 90.5133 725.689 87.5667 727.389 84.62C731.242 78.16 735.945 71.19 741.499 63.71C747.165 56.1167 753.002 49.0333 759.009 42.46C764.335 36.5667 770.115 31.24 776.349 26.48C782.582 21.72 789.099 18.3767 795.899 16.45C796.919 16.11 798.109 15.8267 799.469 15.6C800.829 15.3733 802.245 15.26 803.719 15.26C806.439 15.26 808.762 15.6567 810.689 16.45C811.595 16.9033 812.502 17.5267 813.409 18.32C814.315 19 814.939 20.02 815.279 21.38C814.032 20.36 812.615 19.6233 811.029 19.17C809.442 18.6033 807.515 18.32 805.249 18.32C800.829 18.32 796.295 19.6233 791.649 22.23C787.115 24.7233 782.752 27.7833 778.559 31.41C774.479 35.0367 770.852 38.6633 767.679 42.29C764.619 45.8033 762.239 48.58 760.539 50.62C756.119 56.06 752.209 61.16 748.809 65.92C745.522 70.5667 742.745 74.5333 740.479 77.82C745.012 72.8333 749.942 67.8467 755.269 62.86C760.709 57.76 765.695 53.7367 770.229 50.79C771.702 49.77 773.232 48.92 774.819 48.24C776.405 47.56 778.049 47.22 779.749 47.22C782.809 47.22 784.339 48.41 784.339 50.79C784.339 52.6033 783.262 54.7567 781.109 57.25C777.142 61.7833 773.119 66.8267 769.039 72.38C764.959 77.82 761.502 83.26 758.669 88.7C758.215 89.4933 757.422 91.08 756.289 93.46C755.269 95.7267 754.759 97.6533 754.759 99.24C754.759 100.6 755.382 101.28 756.629 101.28C759.235 101.28 762.409 99.6367 766.149 96.35C769.889 92.95 773.515 89.21 777.029 85.13C777.482 85.13 777.709 85.47 777.709 86.15C777.709 87.17 777.482 87.9633 777.029 88.53C775.442 90.23 773.402 92.3833 770.909 94.99C768.529 97.4833 765.809 99.75 762.749 101.79C759.689 103.717 756.345 104.68 752.719 104.68ZM772.429 104.68C769.596 104.68 767.613 104 766.479 102.64C765.346 101.28 764.779 99.5233 764.779 97.37C764.779 93.63 766.139 89.38 768.859 84.62C770.446 81.9 772.599 78.7833 775.319 75.27C778.153 71.6433 781.326 67.8467 784.839 63.88C788.353 59.8 791.866 55.8333 795.379 51.98H783.989L785.859 49.6H797.589C800.763 46.3133 803.709 43.2533 806.429 40.42C809.263 37.4733 811.586 35.0933 813.399 33.28C818.386 28.2933 822.976 24.4967 827.169 21.89C831.476 19.2833 834.876 17.98 837.369 17.98C835.556 19.5667 832.893 22.06 829.379 25.46C825.979 28.86 822.183 32.6567 817.989 36.85C813.909 41.0433 809.886 45.2933 805.919 49.6H817.649L815.779 51.98H803.879C801.726 54.4733 799.686 56.7967 797.759 58.95C795.946 61.1033 794.359 63.1433 792.999 65.07C787.673 72.3233 783.366 78.2733 780.079 82.92C776.793 87.5667 774.639 91.08 773.619 93.46C772.826 95.3867 772.429 96.9733 772.429 98.22C772.429 100.373 773.449 101.45 775.489 101.45C777.189 101.45 779.003 100.883 780.929 99.75C783.763 98.1633 786.596 95.8967 789.429 92.95C792.376 89.89 794.756 87.2833 796.569 85.13C797.023 85.13 797.249 85.47 797.249 86.15C797.249 87.17 797.023 87.9633 796.569 88.53C792.263 93.5167 788.239 97.4833 784.499 100.43C780.759 103.263 776.736 104.68 772.429 104.68ZM802.186 105.19C799.919 105.19 797.709 104.963 795.556 104.51C793.516 104.057 791.703 103.263 790.116 102.13C788.869 101.223 787.849 99.9767 787.056 98.39C786.149 96.8033 785.696 94.7633 785.696 92.27C785.696 89.3233 786.433 87.0567 787.906 85.47C789.266 83.8833 790.739 83.09 792.326 83.09C793.573 81.5033 795.273 79.2933 797.426 76.46C799.579 73.5133 801.959 70.2833 804.566 66.77C807.286 63.2567 810.063 59.7433 812.896 56.23C815.729 52.6033 818.393 49.3733 820.886 46.54C822.473 44.9533 824.116 43.2533 825.816 41.44C827.629 39.6267 829.613 38.0967 831.766 36.85C834.033 35.49 836.413 34.81 838.906 34.81C840.833 34.81 842.193 35.2633 842.986 36.17C843.893 37.0767 844.346 38.1533 844.346 39.4C844.346 40.08 844.176 40.7033 843.836 41.27C842.589 41.0433 840.833 41.27 838.566 41.95C836.299 42.5167 833.806 43.5933 831.086 45.18C828.139 46.9933 825.136 49.26 822.076 51.98C821.963 53.34 821.793 55.4367 821.566 58.27C821.453 60.99 821.283 64.1067 821.056 67.62C820.829 71.02 820.433 74.4767 819.866 77.99C819.413 81.39 818.789 84.3933 817.996 87C817.429 88.8133 816.523 90.8533 815.276 93.12C814.029 95.2733 812.329 97.3133 810.176 99.24C808.136 101.053 805.586 102.3 802.526 102.98C806.606 102.98 810.006 102.357 812.726 101.11C815.446 99.8633 817.713 98.4467 819.526 96.86C821.453 95.16 822.983 93.8 824.116 92.78C825.023 91.8733 826.269 90.57 827.856 88.87C829.443 87.17 830.576 85.9233 831.256 85.13C831.709 85.13 831.936 85.47 831.936 86.15C831.936 87.17 831.709 87.9633 831.256 88.53C826.496 93.63 822.529 97.37 819.356 99.75C816.523 101.903 813.633 103.32 810.686 104C807.739 104.793 804.906 105.19 802.186 105.19ZM796.236 101.96C798.163 101.96 799.919 101.223 801.506 99.75C803.206 98.1633 804.736 96.35 806.096 94.31C807.456 92.1567 808.533 90.1733 809.326 88.36C810.573 85.64 811.876 82.1833 813.236 77.99C814.596 73.7967 815.899 69.5467 817.146 65.24C818.393 60.82 819.413 57.0233 820.206 53.85C817.033 56.91 813.859 60.2533 810.686 63.88C807.626 67.5067 804.793 70.9633 802.186 74.25C799.579 77.5367 797.426 80.2567 795.726 82.41C794.253 84.3367 793.119 86.3767 792.326 88.53C791.533 90.6833 791.136 92.7233 791.136 94.65C791.136 96.8033 791.589 98.56 792.496 99.92C793.403 101.28 794.649 101.96 796.236 101.96ZM775.65 145.14C772.59 145.14 770.04 144.8 768 144.12C767.093 143.667 766.187 143.043 765.28 142.25C764.26 141.457 763.58 140.437 763.24 139.19C764.487 140.21 765.903 140.947 767.49 141.4C769.077 141.967 771.003 142.193 773.27 142.08C779.843 142.08 786.02 140.267 791.8 136.64C797.467 133.013 802.793 128.253 807.78 122.36C812.767 116.58 817.413 110.403 821.72 103.83C828.633 93.5167 835.207 83.09 841.44 72.55C847.673 61.8967 854.19 51.64 860.99 41.78C862.577 41.8933 863.37 43.0267 863.37 45.18C863.37 48.0133 861.953 52.32 859.12 58.1C856.287 63.7667 852.377 70.4533 847.39 78.16C846.937 78.7267 846.54 79.35 846.2 80.03C845.86 80.71 845.463 81.39 845.01 82.07C848.41 78.1033 851.923 74.08 855.55 70C859.29 65.8067 862.973 62.01 866.6 58.61C870.227 55.0967 873.74 52.2633 877.14 50.11C880.54 47.9567 883.657 46.88 886.49 46.88C890.117 46.88 891.93 49.09 891.93 53.51C891.93 56.23 891.08 59.63 889.38 63.71C887.68 67.79 885.073 72.0967 881.56 76.63C879.407 79.4633 876.687 82.5233 873.4 85.81C870.227 88.9833 866.713 92.0433 862.86 94.99C859.12 97.8233 855.267 100.147 851.3 101.96C847.333 103.773 843.48 104.68 839.74 104.68C836.68 104.68 834.867 104.113 834.3 102.98C834.073 102.64 834.017 102.357 834.13 102.13C834.357 101.903 834.527 101.79 834.64 101.79C834.64 101.79 834.923 101.847 835.49 101.96C836.057 102.073 836.737 102.13 837.53 102.13C840.25 102.13 843.367 101.167 846.88 99.24C850.393 97.3133 854.077 94.7067 857.93 91.42C861.897 88.1333 865.637 84.45 869.15 80.37C873.003 76.0633 876.233 71.8133 878.84 67.62C881.447 63.3133 883.147 59.8 883.94 57.08C884.167 56.1733 884.28 55.4367 884.28 54.87C884.28 53.9633 884.053 53.2267 883.6 52.66C883.26 51.98 882.523 51.7533 881.39 51.98C878.557 52.66 875.157 54.6433 871.19 57.93C867.223 61.2167 863.087 65.1267 858.78 69.66C854.473 74.1933 850.337 78.7833 846.37 83.43C842.517 87.9633 839.117 91.93 836.17 95.33C831.977 101.677 827.217 108.193 821.89 114.88C816.45 121.68 810.67 127.687 804.55 132.9C798.317 138.227 791.8 141.91 785 143.95C782.847 144.743 779.73 145.14 775.65 145.14ZM891.242 105.19C886.029 105.19 882.345 104.057 880.192 101.79C878.039 99.5233 876.962 96.4633 876.962 92.61C876.962 88.87 877.982 84.96 880.022 80.88C882.175 76.6867 884.839 72.72 888.012 68.98C889.939 66.7133 892.319 64.3333 895.152 61.84C897.985 59.3467 901.045 57.0233 904.332 54.87C907.619 52.6033 910.849 50.79 914.022 49.43C917.309 47.9567 920.199 47.22 922.692 47.22C924.052 47.22 925.299 47.56 926.432 48.24C927.565 48.8067 928.132 50.11 928.132 52.15C928.132 54.9833 926.772 57.7033 924.052 60.31C921.332 62.8033 918.272 65.1267 914.872 67.28C911.019 69.7733 906.995 71.87 902.802 73.57C898.609 75.27 894.982 76.5733 891.922 77.48C890.222 80.2 888.862 82.9767 887.842 85.81C886.822 88.6433 886.312 91.42 886.312 94.14C886.312 97.0867 886.992 99.1267 888.352 100.26C889.825 101.28 891.525 101.79 893.452 101.79C896.965 101.79 900.139 100.997 902.972 99.41C905.919 97.71 908.639 95.5567 911.132 92.95C913.625 90.3433 916.005 87.7367 918.272 85.13C918.725 85.13 918.952 85.47 918.952 86.15C918.952 87.17 918.725 87.9633 918.272 88.53C916.005 91.1367 913.512 93.7433 910.792 96.35C908.185 98.9567 905.295 101.11 902.122 102.81C898.949 104.397 895.322 105.19 891.242 105.19ZM893.962 75.1C896.909 74.08 900.365 72.6633 904.332 70.85C908.412 69.0367 911.982 67.0533 915.042 64.9C915.722 64.4467 916.912 63.54 918.612 62.18C920.312 60.7067 921.899 59.12 923.372 57.42C924.845 55.6067 925.582 54.02 925.582 52.66C925.582 50.8467 924.675 49.94 922.862 49.94C920.935 49.94 918.725 50.79 916.232 52.49C913.852 54.19 911.925 55.6633 910.452 56.91C907.732 59.4033 904.899 62.18 901.952 65.24C899.005 68.3 896.342 71.5867 893.962 75.1ZM922.752 105.19C917.539 105.19 913.855 104.057 911.702 101.79C909.549 99.5233 908.472 96.4633 908.472 92.61C908.472 88.87 909.492 84.96 911.532 80.88C913.685 76.6867 916.349 72.72 919.522 68.98C921.449 66.7133 923.829 64.3333 926.662 61.84C929.495 59.3467 932.555 57.0233 935.842 54.87C939.129 52.6033 942.359 50.79 945.532 49.43C948.819 47.9567 951.709 47.22 954.202 47.22C955.562 47.22 956.809 47.56 957.942 48.24C959.075 48.8067 959.642 50.11 959.642 52.15C959.642 54.9833 958.282 57.7033 955.562 60.31C952.842 62.8033 949.782 65.1267 946.382 67.28C942.529 69.7733 938.505 71.87 934.312 73.57C930.119 75.27 926.492 76.5733 923.432 77.48C921.732 80.2 920.372 82.9767 919.352 85.81C918.332 88.6433 917.822 91.42 917.822 94.14C917.822 97.0867 918.502 99.1267 919.862 100.26C921.335 101.28 923.035 101.79 924.962 101.79C928.475 101.79 931.649 100.997 934.482 99.41C937.429 97.71 940.149 95.5567 942.642 92.95C945.135 90.3433 947.515 87.7367 949.782 85.13C950.235 85.13 950.462 85.47 950.462 86.15C950.462 87.17 950.235 87.9633 949.782 88.53C947.515 91.1367 945.022 93.7433 942.302 96.35C939.695 98.9567 936.805 101.11 933.632 102.81C930.459 104.397 926.832 105.19 922.752 105.19ZM925.472 75.1C928.419 74.08 931.875 72.6633 935.842 70.85C939.922 69.0367 943.492 67.0533 946.552 64.9C947.232 64.4467 948.422 63.54 950.122 62.18C951.822 60.7067 953.409 59.12 954.882 57.42C956.355 55.6067 957.092 54.02 957.092 52.66C957.092 50.8467 956.185 49.94 954.372 49.94C952.445 49.94 950.235 50.79 947.742 52.49C945.362 54.19 943.435 55.6633 941.962 56.91C939.242 59.4033 936.409 62.18 933.462 65.24C930.515 68.3 927.852 71.5867 925.472 75.1ZM944.402 104.17C940.208 104.397 938.112 102.017 938.112 97.03C938.112 94.31 938.905 91.08 940.492 87.34C942.078 83.4867 944.458 79.4633 947.632 75.27C950.125 72.0967 953.298 68.64 957.152 64.9C961.005 61.16 965.198 57.76 969.732 54.7C974.265 51.5267 978.798 49.26 983.332 47.9C984.578 47.56 985.882 47.3333 987.242 47.22C988.602 46.9933 990.245 46.88 992.172 46.88C993.985 46.88 994.892 47.1067 994.892 47.56C994.892 48.1267 994.098 48.58 992.512 48.92C991.152 49.26 989.508 49.8267 987.582 50.62C985.655 51.4133 983.898 52.2633 982.312 53.17C979.025 54.9833 975.568 57.4767 971.942 60.65C968.315 63.71 964.745 67.2233 961.232 71.19C957.378 75.4967 954.205 79.7467 951.712 83.94C949.218 88.02 947.575 91.42 946.782 94.14C946.555 95.0467 946.442 95.84 946.442 96.52C946.442 98.1067 947.065 98.9 948.312 98.9C949.105 98.9 950.182 98.56 951.542 97.88C952.902 97.0867 954.658 95.7833 956.812 93.97C961.118 90.3433 965.425 86.2067 969.732 81.56C974.152 76.9133 978.118 72.0967 981.632 67.11C984.352 63.2567 987.525 59.1767 991.152 54.87C994.778 50.45 998.575 46.2 1002.54 42.12C1006.51 37.9267 1010.36 34.13 1014.1 30.73C1017.95 27.33 1021.41 24.61 1024.47 22.57C1027.98 20.19 1030.42 18.83 1031.78 18.49C1033.25 18.15 1034.5 17.98 1035.52 17.98C1034.5 18.7733 1032.29 20.8133 1028.89 24.1C1025.6 27.2733 1021.64 31.2967 1016.99 36.17C1012.46 41.0433 1007.7 46.3133 1002.71 51.98C997.838 57.6467 993.362 63.3133 989.282 68.98C986.108 73.2867 983.105 77.7633 980.272 82.41C977.438 86.9433 975.568 90.57 974.662 93.29C974.322 94.1967 974.095 94.99 973.982 95.67C973.868 96.35 973.812 96.9733 973.812 97.54C973.812 99.3533 974.548 100.26 976.022 100.26C977.042 100.26 978.232 99.8633 979.592 99.07C981.065 98.1633 982.538 97.1433 984.012 96.01C985.938 94.4233 987.808 92.6667 989.622 90.74C991.548 88.8133 993.248 86.9433 994.722 85.13C995.175 85.13 995.402 85.47 995.402 86.15C995.402 87.17 995.175 87.9633 994.722 88.53C993.248 90.23 991.435 92.1 989.282 94.14C987.242 96.18 985.202 97.9933 983.162 99.58C981.688 100.827 979.988 101.903 978.062 102.81C976.135 103.717 974.265 104.17 972.452 104.17C969.845 104.17 967.975 103.547 966.842 102.3C965.822 101.053 965.312 99.4667 965.312 97.54C965.312 95.6133 965.708 93.5167 966.502 91.25C967.295 88.9833 968.258 86.7733 969.392 84.62C967.465 86.66 965.368 88.87 963.102 91.25C960.835 93.5167 959.362 94.9333 958.682 95.5C956.188 97.7667 953.808 99.75 951.542 101.45C949.275 103.037 946.895 103.943 944.402 104.17Z" stroke="#F22A70" stroke-width="4" mask="url(#path-1-outside-1_115_32)"/>
</svg>
