<svg width="324" height="116" viewBox="0 0 324 116" fill="none" xmlns="http://www.w3.org/2000/svg">
<path d="M205.094 54.8152L205.53 58.5174L205.348 62.3471L203.389 64.6919L199.912 66.1962L195.996 66.2983L187.77 64.967L177.721 64.8448L163.684 60.8646L163.97 55.3578L163.751 55.2839L163.387 55.8838L163.045 57.4465L159.861 63.8309L155.688 67.6472L146.254 75.6281L145.102 78.2386L145.333 80.5254L141.015 85.2763L134.669 87.5825L129.044 88.4066L127.572 87.6589L128.242 86.2785L132.364 83.57L137.763 79.138L141.635 74.722L142.956 72.0681L146.867 62.2529L151.29 55.8544L152.527 52.3453L156.204 47.3176L162.911 46.2785L173.433 47.2447L180.395 48.7073L183.333 48.3533L184.78 47.0413L190.512 37.4364L196.923 31.9675L204.426 23.1836L206.579 21.0202L209.994 16.8389L215.029 9.5681L220.276 3.71463L228.445 0L228.783 0.912074L227.121 7.77272L227.089 11.7941L223.565 16.809L223.662 22.3935L220.932 26.005L219.239 29.402L216.171 31.5529L211.793 35.5231L205.163 37.7893L211.787 36.8936L223.156 28.83L231.498 20.0982L243.633 13.9217L251.938 9.78715L258.429 5.74198L264.659 2.83842L264.967 4.00092L262.014 16.042L258.621 22.3446L255.849 34.9368L252.023 37.291L252.931 43.9058L249.735 48.2889L249.723 49.8959L248.366 51.6052L243.457 52.0345L241.916 53.884L232.4 53.8073L227.314 56.4278L215.422 56.2592L203.584 53.1378L199.554 51.2725L201.82 53.6395L205.094 54.8152Z" fill="#FF639A"/>
<path d="M213.338 76.861L216.254 74.8187L220.433 73.3387L223.587 72.9899L229.528 73.9797L234.411 74.0023L243.533 72.1203L245.931 73.7973L249.297 79.9133L250.069 81.5613L251.751 86.2968L251.85 87.7759L249.914 88.3727L248.291 86.7644L246.538 84.1933L242.852 80.6618L238.638 78.361L233.736 78.7898L216.544 85.8286L211.005 86.5559L206.959 84.7088L202.093 81.9646L190.302 71.1928L187.252 65.7739L191.973 66.4445L197.176 67.4418L202.243 66.8863L205.169 64.9098L205.475 65.2386L213.338 76.861Z" fill="#FF639A"/>
<path d="M322.115 106.64C321.625 106.64 321.198 106.437 320.835 106.032C320.473 105.627 320.291 105.147 320.291 104.592C320.291 103.995 320.473 103.504 320.835 103.12C321.198 102.715 321.625 102.512 322.115 102.512C322.627 102.512 323.065 102.715 323.427 103.12C323.79 103.504 323.971 103.995 323.971 104.592C323.971 105.147 323.79 105.627 323.427 106.032C323.065 106.437 322.627 106.64 322.115 106.64Z" fill="#FF639A"/>
<path d="M314.264 106.48C313.219 106.48 312.302 106.192 311.512 105.616C310.723 105.019 310.094 104.197 309.624 103.152C309.155 102.085 308.92 100.859 308.92 99.472C308.92 98.2133 309.187 97.0613 309.72 96.016C310.254 94.9707 310.958 94.1387 311.832 93.52C312.728 92.88 313.699 92.56 314.744 92.56C315.534 92.56 316.238 92.7413 316.856 93.104C317.496 93.4453 317.987 93.936 318.328 94.576C318.691 95.1947 318.872 95.9093 318.872 96.72C318.872 97.424 318.574 97.776 317.976 97.776H312.024C311.747 97.776 311.544 97.8613 311.416 98.032C311.31 98.2027 311.256 98.512 311.256 98.96C311.256 99.8987 311.448 100.763 311.832 101.552C312.216 102.32 312.728 102.939 313.368 103.408C314.008 103.877 314.712 104.112 315.48 104.112C316.056 104.112 316.579 103.995 317.048 103.76C317.518 103.504 317.955 103.152 318.36 102.704C318.403 102.619 318.446 102.555 318.488 102.512C318.552 102.469 318.606 102.448 318.648 102.448C318.84 102.448 318.936 102.565 318.936 102.8C318.936 103.141 318.798 103.547 318.52 104.016C318.243 104.464 317.902 104.88 317.496 105.264C317.091 105.627 316.611 105.915 316.056 106.128C315.502 106.363 314.904 106.48 314.264 106.48ZM312.056 96.688H314.36C314.851 96.688 315.235 96.6773 315.512 96.656C315.811 96.6347 316.088 96.592 316.344 96.528C316.43 96.4853 316.494 96.4 316.536 96.272C316.579 96.1227 316.6 95.9413 316.6 95.728C316.6 95.1307 316.376 94.6293 315.928 94.224C315.48 93.7973 314.958 93.584 314.36 93.584C313.934 93.584 313.507 93.7227 313.08 94C312.675 94.2773 312.334 94.6293 312.056 95.056C311.8 95.4613 311.683 95.8773 311.704 96.304C311.704 96.56 311.822 96.688 312.056 96.688Z" fill="#FF639A"/>
<path d="M302.982 106.096C302.854 106.096 302.726 106.075 302.598 106.032C302.47 105.989 302.405 105.893 302.405 105.744C302.405 105.573 302.47 105.456 302.598 105.392C302.747 105.307 302.907 105.221 303.077 105.136C303.355 105.029 303.622 104.912 303.878 104.784C304.134 104.656 304.262 104.368 304.262 103.92V88.08C304.262 87.4614 304.165 86.9494 303.973 86.544C303.803 86.1174 303.472 85.8507 302.982 85.744C302.832 85.7014 302.758 85.552 302.758 85.296C302.758 85.0614 302.821 84.9227 302.949 84.88C303.461 84.7734 303.931 84.6347 304.357 84.464C304.805 84.2934 305.221 84.1227 305.605 83.952C305.989 83.7814 306.331 83.632 306.629 83.504C306.757 83.4614 306.853 83.44 306.917 83.44C306.96 83.44 306.992 83.472 307.013 83.536C307.056 83.6 307.077 83.664 307.077 83.728C307.077 83.8987 307.046 84.2614 306.982 84.816C306.939 85.3707 306.917 86.2027 306.917 87.312V103.92C306.917 104.347 307.035 104.635 307.27 104.784C307.526 104.912 307.803 105.029 308.102 105.136C308.272 105.2 308.421 105.275 308.549 105.36C308.677 105.445 308.741 105.573 308.741 105.744C308.741 105.872 308.677 105.957 308.549 106C308.421 106.043 308.293 106.064 308.165 106.064C307.803 106.064 307.483 106.053 307.206 106.032C306.95 106.011 306.694 105.989 306.438 105.968C306.182 105.947 305.883 105.936 305.542 105.936C305.222 105.936 304.933 105.947 304.677 105.968C304.443 105.989 304.197 106.011 303.941 106.032C303.685 106.075 303.366 106.096 302.982 106.096Z" fill="#FF639A"/>
<path d="M292.058 115.088C291.632 115.088 291.237 114.949 290.874 114.672C290.512 114.416 290.33 114.043 290.33 113.552C290.33 113.147 290.416 112.784 290.586 112.464C290.757 112.144 291.013 111.984 291.354 111.984C291.61 111.984 291.856 112.016 292.09 112.08C292.325 112.165 292.538 112.208 292.73 112.208C292.922 112.187 293.061 112.133 293.146 112.048C293.253 111.984 293.36 111.856 293.466 111.664C293.658 111.323 293.861 110.917 294.074 110.448C294.309 110 294.544 109.477 294.778 108.88C295.034 108.283 295.301 107.611 295.578 106.864C295.685 106.544 295.738 106.203 295.738 105.84C295.738 105.627 295.717 105.424 295.674 105.232C295.632 105.04 295.578 104.848 295.514 104.656L292.122 95.44C291.952 95.0347 291.76 94.6827 291.546 94.384C291.354 94.0853 291.088 93.8827 290.746 93.776C290.597 93.6907 290.458 93.6053 290.33 93.52C290.202 93.4347 290.138 93.3067 290.138 93.136C290.138 93.008 290.213 92.9333 290.362 92.912C290.533 92.8693 290.661 92.848 290.746 92.848C291.173 92.848 291.504 92.8587 291.738 92.88C291.973 92.9013 292.186 92.9227 292.378 92.944C292.57 92.9653 292.816 92.976 293.114 92.976C293.477 92.976 293.765 92.9653 293.978 92.944C294.192 92.9227 294.416 92.9013 294.65 92.88C294.906 92.8587 295.226 92.848 295.61 92.848C295.76 92.848 295.898 92.88 296.026 92.944C296.154 92.9867 296.218 93.072 296.218 93.2C296.218 93.3707 296.133 93.52 295.962 93.648C295.792 93.7547 295.632 93.84 295.482 93.904C295.269 93.968 295.109 94.0853 295.002 94.256C294.896 94.4053 294.842 94.6507 294.842 94.992C294.842 95.1413 294.874 95.312 294.938 95.504C295.002 95.696 295.066 95.888 295.13 96.08L297.274 101.936C297.317 102.043 297.36 102.096 297.402 102.096C297.445 102.096 297.488 102.043 297.53 101.936L299.322 96.4C299.386 96.2507 299.44 96.0587 299.482 95.824C299.525 95.568 299.546 95.3547 299.546 95.184C299.546 94.8 299.472 94.5227 299.322 94.352C299.194 94.16 299.045 94.0213 298.874 93.936C298.725 93.8507 298.554 93.7547 298.362 93.648C298.192 93.52 298.106 93.3707 298.106 93.2C298.106 93.072 298.17 92.9867 298.298 92.944C298.448 92.88 298.586 92.848 298.714 92.848C299.056 92.848 299.365 92.8693 299.642 92.912C299.941 92.9547 300.314 92.976 300.762 92.976C301.061 92.976 301.296 92.9653 301.466 92.944C301.637 92.9227 301.797 92.9013 301.946 92.88C302.117 92.8587 302.32 92.848 302.554 92.848C302.661 92.848 302.789 92.8693 302.938 92.912C303.088 92.9333 303.162 93.008 303.162 93.136C303.162 93.3067 303.098 93.4347 302.97 93.52C302.842 93.6053 302.704 93.6907 302.554 93.776C302.256 93.8827 301.946 94.128 301.626 94.512C301.306 94.896 301.05 95.344 300.858 95.856L296.794 106.608C296.752 106.8 296.634 107.141 296.442 107.632C296.272 108.123 296.058 108.699 295.802 109.36C295.546 110.021 295.28 110.715 295.002 111.44C294.725 112.187 294.448 112.901 294.17 113.584C293.978 114.075 293.69 114.448 293.306 114.704C292.944 114.96 292.528 115.088 292.058 115.088Z" fill="#FF639A"/>
<path d="M287.073 106.448C286.007 106.448 285.185 106.117 284.609 105.456C284.055 104.795 283.777 103.824 283.777 102.544V95.12C283.777 94.9493 283.713 94.832 283.585 94.768C283.479 94.6827 283.244 94.64 282.881 94.64H282.625C282.519 94.64 282.423 94.5547 282.337 94.384C282.273 94.192 282.241 94.0107 282.241 93.84C282.241 93.7973 282.263 93.744 282.305 93.68C282.348 93.5947 282.391 93.5413 282.433 93.52C282.839 93.2427 283.233 92.944 283.617 92.624C284.023 92.2827 284.385 91.9413 284.705 91.6C285.047 91.2587 285.335 90.96 285.569 90.704C285.697 90.5973 285.793 90.5013 285.857 90.416C285.943 90.3307 286.039 90.288 286.145 90.288C286.273 90.288 286.38 90.32 286.465 90.384C286.551 90.448 286.583 90.576 286.561 90.768L286.369 92.336C286.369 92.592 286.423 92.7627 286.529 92.848C286.657 92.9333 286.839 92.976 287.073 92.976H290.401C290.465 92.976 290.519 93.0507 290.561 93.2C290.625 93.3493 290.657 93.4987 290.657 93.648C290.657 93.8827 290.625 94.1067 290.561 94.32C290.519 94.5333 290.465 94.64 290.401 94.64H287.585C287.116 94.64 286.807 94.6933 286.657 94.8C286.508 94.9067 286.433 95.152 286.433 95.536V101.744C286.433 102.64 286.593 103.333 286.913 103.824C287.255 104.293 287.724 104.528 288.321 104.528C288.876 104.528 289.292 104.475 289.569 104.368C289.868 104.261 290.135 104.133 290.369 103.984C290.412 103.941 290.455 103.92 290.497 103.92C290.604 103.92 290.668 103.973 290.689 104.08C290.711 104.187 290.721 104.304 290.721 104.432C290.721 104.56 290.551 104.784 290.209 105.104C289.868 105.424 289.42 105.723 288.865 106C288.311 106.299 287.713 106.448 287.073 106.448Z" fill="#FF639A"/>
<path d="M277.001 106.448C276.383 106.448 275.796 106.352 275.241 106.16C274.708 105.968 274.239 105.691 273.833 105.328C273.705 105.051 273.609 104.613 273.545 104.016C273.481 103.419 273.449 102.875 273.449 102.384C273.449 102.171 273.599 102.064 273.897 102.064C274.004 102.064 274.1 102.096 274.185 102.16C274.271 102.203 274.324 102.267 274.345 102.352C274.644 103.355 275.049 104.112 275.561 104.624C276.073 105.136 276.639 105.392 277.257 105.392C277.791 105.392 278.228 105.2 278.569 104.816C278.911 104.411 279.081 103.931 279.081 103.376C279.081 102.8 278.9 102.32 278.537 101.936C278.175 101.531 277.62 101.072 276.873 100.56C276.255 100.155 275.721 99.76 275.273 99.376C274.847 98.9707 274.516 98.5333 274.281 98.064C274.047 97.5733 273.929 97.0187 273.929 96.4C273.929 95.6533 274.1 94.992 274.441 94.416C274.783 93.84 275.252 93.3813 275.849 93.04C276.468 92.6987 277.215 92.528 278.089 92.528C278.708 92.528 279.231 92.6027 279.657 92.752C280.084 92.88 280.393 93.0187 280.585 93.168C280.735 93.4027 280.863 93.7867 280.969 94.32C281.076 94.8533 281.129 95.3867 281.129 95.92C281.129 96.0907 281.012 96.176 280.777 96.176C280.649 96.176 280.521 96.144 280.393 96.08C280.287 96.016 280.212 95.9307 280.169 95.824C279.913 95.0773 279.593 94.512 279.209 94.128C278.847 93.744 278.399 93.552 277.865 93.552C277.396 93.552 276.98 93.712 276.617 94.032C276.255 94.3307 276.073 94.768 276.073 95.344C276.073 95.8347 276.233 96.272 276.553 96.656C276.873 97.0187 277.375 97.4133 278.057 97.84C279.209 98.544 280.052 99.216 280.585 99.856C281.14 100.475 281.417 101.307 281.417 102.352C281.417 103.589 281.023 104.581 280.233 105.328C279.444 106.075 278.367 106.448 277.001 106.448Z" fill="#FF639A"/>
<path d="M268.158 106.48C267.113 106.48 266.195 106.192 265.406 105.616C264.617 105.019 263.987 104.197 263.518 103.152C263.049 102.085 262.814 100.859 262.814 99.472C262.814 98.2133 263.081 97.0613 263.614 96.016C264.147 94.9707 264.851 94.1387 265.726 93.52C266.622 92.88 267.593 92.56 268.638 92.56C269.427 92.56 270.131 92.7413 270.75 93.104C271.39 93.4453 271.881 93.936 272.222 94.576C272.585 95.1947 272.766 95.9093 272.766 96.72C272.766 97.424 272.467 97.776 271.87 97.776H265.918C265.641 97.776 265.438 97.8613 265.31 98.032C265.203 98.2027 265.15 98.512 265.15 98.96C265.15 99.8987 265.342 100.763 265.726 101.552C266.11 102.32 266.622 102.939 267.262 103.408C267.902 103.877 268.606 104.112 269.374 104.112C269.95 104.112 270.473 103.995 270.942 103.76C271.411 103.504 271.849 103.152 272.254 102.704C272.297 102.619 272.339 102.555 272.382 102.512C272.446 102.469 272.499 102.448 272.542 102.448C272.734 102.448 272.83 102.565 272.83 102.8C272.83 103.141 272.691 103.547 272.414 104.016C272.137 104.464 271.795 104.88 271.39 105.264C270.985 105.627 270.505 105.915 269.95 106.128C269.395 106.363 268.798 106.48 268.158 106.48ZM265.95 96.688H268.254C268.745 96.688 269.129 96.6773 269.406 96.656C269.705 96.6347 269.982 96.592 270.238 96.528C270.323 96.4853 270.387 96.4 270.43 96.272C270.473 96.1227 270.494 95.9413 270.494 95.728C270.494 95.1307 270.27 94.6293 269.822 94.224C269.374 93.7973 268.851 93.584 268.254 93.584C267.827 93.584 267.401 93.7227 266.974 94C266.569 94.2773 266.227 94.6293 265.95 95.056C265.694 95.4613 265.577 95.8773 265.598 96.304C265.598 96.56 265.715 96.688 265.95 96.688Z" fill="#FF639A"/>
<path d="M255.41 106.096C255.24 106.096 255.101 106.064 254.994 106C254.888 105.936 254.834 105.84 254.834 105.712C254.834 105.541 254.888 105.424 254.994 105.36C255.122 105.275 255.272 105.211 255.442 105.168C255.912 105.04 256.232 104.88 256.402 104.688C256.573 104.496 256.658 104.197 256.658 103.792V94.736C256.466 94.736 256.242 94.736 255.986 94.736C255.752 94.7147 255.485 94.6934 255.186 94.672C255.101 94.6507 255.005 94.5654 254.898 94.416C254.813 94.2454 254.77 94.096 254.77 93.968C254.77 93.9254 254.792 93.8827 254.834 93.84C254.898 93.7974 254.952 93.7654 254.994 93.744C255.293 93.5734 255.57 93.424 255.826 93.296C256.104 93.1467 256.381 92.9974 256.658 92.848C256.701 91.0347 256.946 89.52 257.394 88.304C257.842 87.088 258.397 86.128 259.058 85.424C259.741 84.6987 260.456 84.1867 261.202 83.888C261.97 83.568 262.696 83.408 263.378 83.408C264.53 83.408 265.373 83.6 265.906 83.984C266.461 84.3467 266.738 84.8587 266.738 85.52C266.738 85.968 266.642 86.32 266.45 86.576C266.258 86.8107 266.013 86.928 265.714 86.928C265.544 86.928 265.373 86.8534 265.202 86.704C265.053 86.5334 264.882 86.3414 264.69 86.128C264.434 85.808 264.104 85.5094 263.698 85.232C263.314 84.9334 262.802 84.784 262.162 84.784C261.309 84.784 260.616 85.2 260.082 86.032C259.57 86.8427 259.314 88.1227 259.314 89.872V92.624C259.314 92.7734 259.346 92.8694 259.41 92.912C259.496 92.9547 259.592 92.976 259.698 92.976H263.154C263.261 92.976 263.346 93.0187 263.41 93.104C263.496 93.1894 263.538 93.2854 263.538 93.392C263.538 93.5627 263.528 93.744 263.506 93.936C263.485 94.1067 263.442 94.256 263.378 94.384C263.293 94.5547 263.208 94.64 263.122 94.64H260.05C259.73 94.64 259.528 94.6934 259.442 94.8C259.357 94.8854 259.314 95.0134 259.314 95.184V103.6C259.314 104.069 259.432 104.411 259.666 104.624C259.922 104.837 260.434 105.008 261.202 105.136C261.608 105.221 261.81 105.403 261.81 105.68C261.81 105.808 261.757 105.915 261.65 106C261.565 106.064 261.448 106.096 261.298 106.096C260.722 106.096 260.157 106.064 259.602 106C259.069 105.957 258.557 105.936 258.066 105.936C257.725 105.936 257.426 105.947 257.17 105.968C256.914 105.989 256.648 106.011 256.37 106.032C256.114 106.075 255.794 106.096 255.41 106.096Z" fill="#FF639A"/>
<path d="M248.776 106.096C248.626 106.096 248.498 106.064 248.392 106C248.285 105.936 248.232 105.84 248.232 105.712C248.232 105.541 248.285 105.424 248.392 105.36C248.52 105.275 248.669 105.211 248.84 105.168C249.266 105.04 249.586 104.901 249.8 104.752C250.013 104.603 250.12 104.336 250.12 103.952V97.04C250.12 96.4 250.024 95.888 249.832 95.504C249.64 95.0987 249.309 94.8533 248.84 94.768C248.733 94.7467 248.658 94.704 248.616 94.64C248.573 94.5547 248.552 94.4373 248.552 94.288C248.552 94.032 248.637 93.8933 248.808 93.872C249.64 93.6587 250.354 93.3813 250.952 93.04C251.57 92.6773 252.029 92.3893 252.328 92.176C252.541 92.0267 252.701 91.952 252.808 91.952C252.957 91.952 253.032 92.0373 253.032 92.208C253.032 92.4427 253 92.816 252.936 93.328C252.893 93.84 252.85 94.3947 252.808 94.992C252.765 95.5893 252.744 96.144 252.744 96.656V103.952C252.744 104.293 252.85 104.549 253.064 104.72C253.277 104.891 253.597 105.04 254.024 105.168C254.194 105.211 254.333 105.275 254.44 105.36C254.568 105.424 254.632 105.541 254.632 105.712C254.632 105.968 254.461 106.096 254.12 106.096C253.757 106.096 253.426 106.075 253.128 106.032C252.85 106.011 252.584 105.989 252.328 105.968C252.072 105.947 251.773 105.936 251.432 105.936C251.09 105.936 250.781 105.947 250.504 105.968C250.248 105.989 249.992 106.011 249.736 106.032C249.48 106.075 249.16 106.096 248.776 106.096Z" fill="#FF639A"/>
<path d="M233.116 106.16C232.903 106.16 232.721 106.117 232.572 106.032C232.444 105.947 232.38 105.851 232.38 105.744C232.38 105.573 232.455 105.445 232.604 105.36C232.775 105.253 232.903 105.189 232.988 105.168C233.735 104.976 234.279 104.731 234.62 104.432C234.983 104.133 235.164 103.632 235.164 102.928V88.176C235.164 87.664 235.111 87.2907 235.004 87.056C234.919 86.8 234.748 86.608 234.492 86.48C234.236 86.352 233.863 86.2347 233.372 86.128C232.817 86 232.54 85.7867 232.54 85.488C232.54 85.3387 232.604 85.232 232.732 85.168C232.881 85.104 233.063 85.072 233.276 85.072C233.767 85.072 234.204 85.0827 234.588 85.104C234.972 85.1253 235.335 85.1467 235.676 85.168C236.017 85.1893 236.401 85.2 236.828 85.2C237.276 85.2 237.703 85.2 238.108 85.2C238.513 85.1787 238.919 85.1573 239.324 85.136C239.751 85.1147 240.209 85.104 240.7 85.104C240.913 85.104 241.084 85.136 241.212 85.2C241.34 85.2427 241.404 85.3387 241.404 85.488C241.404 85.6587 241.34 85.7973 241.212 85.904C241.084 85.9893 240.871 86.064 240.572 86.128C239.847 86.32 239.271 86.5333 238.844 86.768C238.417 86.9813 238.204 87.3973 238.204 88.016V102.832C238.204 103.493 238.332 103.973 238.588 104.272C238.865 104.549 239.399 104.688 240.188 104.688H243.548C244.039 104.688 244.465 104.603 244.828 104.432C245.212 104.261 245.511 104.069 245.724 103.856C246.087 103.493 246.364 103.152 246.556 102.832C246.769 102.491 246.993 102.043 247.228 101.488C247.313 101.253 247.409 101.029 247.516 100.816C247.644 100.603 247.783 100.496 247.932 100.496C248.06 100.496 248.145 100.571 248.188 100.72C248.252 100.848 248.284 100.976 248.284 101.104C248.284 101.147 248.273 101.2 248.252 101.264C248.252 101.328 248.252 101.392 248.252 101.456C248.103 102.032 247.964 102.544 247.836 102.992C247.729 103.44 247.644 103.867 247.58 104.272C247.516 104.677 247.463 105.115 247.42 105.584C247.399 105.733 247.356 105.872 247.292 106C247.249 106.107 247.153 106.16 247.004 106.16C246.257 106.16 245.457 106.149 244.604 106.128C243.751 106.107 242.897 106.085 242.044 106.064C241.191 106.064 240.337 106.053 239.484 106.032C238.652 106.011 237.852 106 237.084 106C236.636 106 236.124 106.011 235.548 106.032C234.972 106.053 234.449 106.075 233.98 106.096C233.511 106.139 233.223 106.16 233.116 106.16Z" fill="#FF639A"/>
<path d="M222.712 106.608C222.69 106.608 222.626 106.555 222.52 106.448C222.413 106.341 222.36 106.267 222.36 106.224C222.381 105.968 222.413 105.659 222.456 105.296C222.498 104.933 222.52 104.624 222.52 104.368V104.176C222.2 104.731 221.709 105.253 221.048 105.744C220.408 106.213 219.64 106.448 218.744 106.448C217.656 106.448 216.706 106.139 215.896 105.52C215.085 104.88 214.456 104.059 214.008 103.056C213.56 102.053 213.336 100.987 213.336 99.856C213.336 98.5547 213.602 97.3493 214.136 96.24C214.669 95.1307 215.437 94.2453 216.44 93.584C217.442 92.9014 218.616 92.56 219.96 92.56C220.301 92.56 220.653 92.6027 221.016 92.688C221.4 92.752 221.698 92.8267 221.912 92.912C222.125 92.976 222.253 93.008 222.296 93.008C222.424 93.008 222.488 92.784 222.488 92.336V88.08C222.488 87.248 222.37 86.672 222.136 86.352C221.901 86.032 221.57 85.8294 221.144 85.744C220.952 85.7013 220.856 85.552 220.856 85.296C220.856 85.0827 220.941 84.944 221.112 84.88C221.922 84.6667 222.616 84.4427 223.192 84.208C223.768 83.9733 224.226 83.7813 224.568 83.632C224.696 83.5467 224.792 83.504 224.856 83.504C224.941 83.4827 225.005 83.472 225.048 83.472C225.197 83.472 225.272 83.5573 225.272 83.728C225.272 83.792 225.261 83.9627 225.24 84.24C225.24 84.5173 225.218 84.912 225.176 85.424C225.133 85.936 225.112 86.5653 225.112 87.312L225.048 102.384C225.048 103.109 225.09 103.632 225.176 103.952C225.282 104.272 225.453 104.432 225.688 104.432C225.773 104.432 225.912 104.421 226.104 104.4C226.296 104.379 226.562 104.357 226.904 104.336C227.202 104.315 227.352 104.421 227.352 104.656C227.352 104.805 227.298 104.955 227.192 105.104C227.106 105.232 227.021 105.296 226.936 105.296C226.338 105.381 225.73 105.509 225.112 105.68C224.514 105.851 223.885 106.096 223.224 106.416C223.053 106.501 222.936 106.555 222.872 106.576C222.829 106.597 222.776 106.608 222.712 106.608ZM219.928 104.592C220.354 104.592 220.802 104.475 221.272 104.24C221.741 103.984 222.136 103.653 222.456 103.248V97.008C222.456 96.5173 222.317 96.0267 222.04 95.536C221.762 95.024 221.378 94.6187 220.888 94.32C220.418 94 219.874 93.84 219.256 93.84C218.829 93.84 218.36 94.0107 217.848 94.352C217.357 94.672 216.93 95.216 216.568 95.984C216.226 96.752 216.056 97.7867 216.056 99.088C216.056 100.176 216.194 101.083 216.472 101.808C216.749 102.512 217.09 103.067 217.496 103.472C217.901 103.877 218.328 104.165 218.776 104.336C219.224 104.507 219.608 104.592 219.928 104.592Z" fill="#FF639A"/>
<path d="M208.168 106.48C207.123 106.48 206.205 106.192 205.416 105.616C204.627 105.019 203.997 104.197 203.528 103.152C203.059 102.085 202.824 100.859 202.824 99.472C202.824 98.2133 203.091 97.0613 203.624 96.016C204.157 94.9707 204.861 94.1387 205.736 93.52C206.632 92.88 207.603 92.56 208.648 92.56C209.437 92.56 210.141 92.7413 210.76 93.104C211.4 93.4453 211.891 93.936 212.232 94.576C212.595 95.1947 212.776 95.9093 212.776 96.72C212.776 97.424 212.477 97.776 211.88 97.776H205.928C205.651 97.776 205.448 97.8613 205.32 98.032C205.213 98.2027 205.16 98.512 205.16 98.96C205.16 99.8987 205.352 100.763 205.736 101.552C206.12 102.32 206.632 102.939 207.272 103.408C207.912 103.877 208.616 104.112 209.384 104.112C209.96 104.112 210.483 103.995 210.952 103.76C211.421 103.504 211.859 103.152 212.264 102.704C212.307 102.619 212.349 102.555 212.392 102.512C212.456 102.469 212.509 102.448 212.552 102.448C212.744 102.448 212.84 102.565 212.84 102.8C212.84 103.141 212.701 103.547 212.424 104.016C212.147 104.464 211.805 104.88 211.4 105.264C210.995 105.627 210.515 105.915 209.96 106.128C209.405 106.363 208.808 106.48 208.168 106.48ZM205.96 96.688H208.264C208.755 96.688 209.139 96.6773 209.416 96.656C209.715 96.6347 209.992 96.592 210.248 96.528C210.333 96.4853 210.397 96.4 210.44 96.272C210.483 96.1227 210.504 95.9413 210.504 95.728C210.504 95.1307 210.28 94.6293 209.832 94.224C209.384 93.7973 208.861 93.584 208.264 93.584C207.837 93.584 207.411 93.7227 206.984 94C206.579 94.2773 206.237 94.6293 205.96 95.056C205.704 95.4613 205.587 95.8773 205.608 96.304C205.608 96.56 205.725 96.688 205.96 96.688Z" fill="#FF639A"/>
<path d="M197.784 106.48C196.739 106.48 195.822 106.192 195.032 105.616C194.243 105.019 193.614 104.197 193.144 103.152C192.675 102.085 192.44 100.859 192.44 99.472C192.44 98.2133 192.707 97.0613 193.24 96.016C193.774 94.9707 194.478 94.1387 195.352 93.52C196.248 92.88 197.219 92.56 198.264 92.56C199.054 92.56 199.758 92.7413 200.376 93.104C201.016 93.4453 201.507 93.936 201.848 94.576C202.211 95.1947 202.392 95.9093 202.392 96.72C202.392 97.424 202.094 97.776 201.496 97.776H195.544C195.267 97.776 195.064 97.8613 194.936 98.032C194.83 98.2027 194.776 98.512 194.776 98.96C194.776 99.8987 194.968 100.763 195.352 101.552C195.736 102.32 196.248 102.939 196.888 103.408C197.528 103.877 198.232 104.112 199 104.112C199.576 104.112 200.099 103.995 200.568 103.76C201.038 103.504 201.475 103.152 201.88 102.704C201.923 102.619 201.966 102.555 202.008 102.512C202.072 102.469 202.126 102.448 202.168 102.448C202.36 102.448 202.456 102.565 202.456 102.8C202.456 103.141 202.318 103.547 202.04 104.016C201.763 104.464 201.422 104.88 201.016 105.264C200.611 105.627 200.131 105.915 199.576 106.128C199.022 106.363 198.424 106.48 197.784 106.48ZM195.576 96.688H197.88C198.371 96.688 198.755 96.6773 199.032 96.656C199.331 96.6347 199.608 96.592 199.864 96.528C199.95 96.4853 200.014 96.4 200.056 96.272C200.099 96.1227 200.12 95.9413 200.12 95.728C200.12 95.1307 199.896 94.6293 199.448 94.224C199 93.7973 198.478 93.584 197.88 93.584C197.454 93.584 197.027 93.7227 196.6 94C196.195 94.2773 195.854 94.6293 195.576 95.056C195.32 95.4613 195.203 95.8773 195.224 96.304C195.224 96.56 195.342 96.688 195.576 96.688Z" fill="#FF639A"/>
<path d="M178.502 114.864C178.396 114.864 178.268 114.832 178.118 114.768C177.969 114.725 177.894 114.64 177.894 114.512C177.894 114.341 177.958 114.213 178.086 114.128C178.236 114.043 178.396 113.968 178.566 113.904C178.886 113.797 179.164 113.669 179.398 113.52C179.633 113.371 179.75 113.093 179.75 112.688V96.784C179.75 96.592 179.708 96.336 179.622 96.016C179.537 95.696 179.398 95.3974 179.206 95.12C179.014 94.8427 178.769 94.6827 178.47 94.64C178.385 94.5974 178.31 94.544 178.246 94.48C178.204 94.3947 178.182 94.288 178.182 94.16C178.182 94.032 178.204 93.936 178.246 93.872C178.31 93.7867 178.374 93.7334 178.438 93.712C179.142 93.52 179.793 93.3067 180.39 93.072C181.009 92.8374 181.564 92.592 182.054 92.336C182.097 92.336 182.129 92.3254 182.15 92.304C182.193 92.2614 182.236 92.24 182.278 92.24C182.342 92.24 182.385 92.2827 182.406 92.368C182.449 92.432 182.47 92.496 182.47 92.56C182.47 92.752 182.449 93.0507 182.406 93.456C182.364 93.8614 182.342 94.2027 182.342 94.48C182.342 94.6507 182.353 94.7467 182.374 94.768C182.566 94.5547 182.908 94.288 183.398 93.968C183.91 93.6267 184.486 93.3174 185.126 93.04C185.788 92.7627 186.417 92.624 187.014 92.624C187.996 92.624 188.838 92.9227 189.542 93.52C190.268 94.1174 190.822 94.8854 191.206 95.824C191.59 96.7627 191.782 97.7334 191.782 98.736C191.782 99.7174 191.612 100.667 191.27 101.584C190.929 102.501 190.46 103.333 189.862 104.08C189.265 104.805 188.572 105.392 187.782 105.84C186.993 106.267 186.14 106.48 185.222 106.48C184.966 106.48 184.668 106.437 184.326 106.352C183.985 106.288 183.644 106.181 183.302 106.032C182.961 105.904 182.694 105.755 182.502 105.584C182.481 105.584 182.46 105.68 182.438 105.872C182.438 106.043 182.428 106.224 182.406 106.416C182.406 106.629 182.406 106.779 182.406 106.864V112.592C182.406 112.869 182.492 113.093 182.662 113.264C182.833 113.435 183.036 113.563 183.27 113.648C183.505 113.755 183.75 113.851 184.006 113.936C184.177 114 184.326 114.064 184.454 114.128C184.604 114.213 184.678 114.341 184.678 114.512C184.678 114.64 184.604 114.725 184.454 114.768C184.326 114.832 184.198 114.864 184.07 114.864C183.516 114.864 183.004 114.832 182.534 114.768C182.086 114.725 181.606 114.704 181.094 114.704C180.774 114.704 180.486 114.715 180.23 114.736C179.974 114.757 179.718 114.779 179.462 114.8C179.206 114.843 178.886 114.864 178.502 114.864ZM185.478 105.328C185.756 105.328 186.076 105.243 186.438 105.072C186.801 104.88 187.164 104.571 187.526 104.144C187.91 103.717 188.22 103.152 188.454 102.448C188.71 101.744 188.838 100.869 188.838 99.824C188.838 98.608 188.71 97.6374 188.454 96.912C188.198 96.1867 187.878 95.6427 187.494 95.28C187.11 94.896 186.716 94.64 186.31 94.512C185.926 94.384 185.596 94.32 185.318 94.32C184.913 94.32 184.476 94.4267 184.006 94.64C183.558 94.832 183.185 95.056 182.886 95.312C182.588 95.568 182.438 95.7707 182.438 95.92C182.438 96.304 182.438 96.7414 182.438 97.232C182.438 97.7014 182.428 98.192 182.406 98.704C182.406 99.1947 182.406 99.6427 182.406 100.048C182.406 100.453 182.406 100.741 182.406 100.912C182.406 101.637 182.545 102.341 182.822 103.024C183.121 103.707 183.505 104.261 183.974 104.688C184.465 105.115 184.966 105.328 185.478 105.328Z" fill="#FF639A"/>
<path d="M173.07 106.448C172.451 106.448 171.865 106.352 171.31 106.16C170.777 105.968 170.307 105.691 169.902 105.328C169.774 105.051 169.678 104.613 169.614 104.016C169.55 103.419 169.518 102.875 169.518 102.384C169.518 102.171 169.667 102.064 169.966 102.064C170.073 102.064 170.169 102.096 170.254 102.16C170.339 102.203 170.393 102.267 170.414 102.352C170.713 103.355 171.118 104.112 171.63 104.624C172.142 105.136 172.707 105.392 173.326 105.392C173.859 105.392 174.297 105.2 174.638 104.816C174.979 104.411 175.15 103.931 175.15 103.376C175.15 102.8 174.969 102.32 174.606 101.936C174.243 101.531 173.689 101.072 172.942 100.56C172.323 100.155 171.79 99.76 171.342 99.376C170.915 98.9707 170.585 98.5333 170.35 98.064C170.115 97.5733 169.998 97.0187 169.998 96.4C169.998 95.6533 170.169 94.992 170.51 94.416C170.851 93.84 171.321 93.3813 171.918 93.04C172.537 92.6987 173.283 92.528 174.158 92.528C174.777 92.528 175.299 92.6027 175.726 92.752C176.153 92.88 176.462 93.0187 176.654 93.168C176.803 93.4027 176.931 93.7867 177.038 94.32C177.145 94.8533 177.198 95.3867 177.198 95.92C177.198 96.0907 177.081 96.176 176.846 96.176C176.718 96.176 176.59 96.144 176.462 96.08C176.355 96.016 176.281 95.9307 176.238 95.824C175.982 95.0773 175.662 94.512 175.278 94.128C174.915 93.744 174.467 93.552 173.934 93.552C173.465 93.552 173.049 93.712 172.686 94.032C172.323 94.3307 172.142 94.768 172.142 95.344C172.142 95.8347 172.302 96.272 172.622 96.656C172.942 97.0187 173.443 97.4133 174.126 97.84C175.278 98.544 176.121 99.216 176.654 99.856C177.209 100.475 177.486 101.307 177.486 102.352C177.486 103.589 177.091 104.581 176.302 105.328C175.513 106.075 174.435 106.448 173.07 106.448Z" fill="#FF639A"/>
<path d="M165.781 106.448C164.714 106.448 163.893 106.117 163.317 105.456C162.762 104.795 162.485 103.824 162.485 102.544V95.12C162.485 94.9493 162.421 94.832 162.293 94.768C162.186 94.6827 161.952 94.64 161.589 94.64H161.333C161.226 94.64 161.13 94.5547 161.045 94.384C160.981 94.192 160.949 94.0107 160.949 93.84C160.949 93.7973 160.97 93.744 161.013 93.68C161.056 93.5947 161.098 93.5413 161.141 93.52C161.546 93.2427 161.941 92.944 162.325 92.624C162.73 92.2827 163.093 91.9413 163.413 91.6C163.754 91.2587 164.042 90.96 164.277 90.704C164.405 90.5973 164.501 90.5013 164.565 90.416C164.65 90.3307 164.746 90.288 164.853 90.288C164.981 90.288 165.088 90.32 165.173 90.384C165.258 90.448 165.29 90.576 165.269 90.768L165.077 92.336C165.077 92.592 165.13 92.7627 165.237 92.848C165.365 92.9333 165.546 92.976 165.781 92.976H169.109C169.173 92.976 169.226 93.0507 169.269 93.2C169.333 93.3493 169.365 93.4987 169.365 93.648C169.365 93.8827 169.333 94.1067 169.269 94.32C169.226 94.5333 169.173 94.64 169.109 94.64H166.293C165.824 94.64 165.514 94.6933 165.365 94.8C165.216 94.9067 165.141 95.152 165.141 95.536V101.744C165.141 102.64 165.301 103.333 165.621 103.824C165.962 104.293 166.432 104.528 167.029 104.528C167.584 104.528 168 104.475 168.277 104.368C168.576 104.261 168.842 104.133 169.077 103.984C169.12 103.941 169.162 103.92 169.205 103.92C169.312 103.92 169.376 103.973 169.397 104.08C169.418 104.187 169.429 104.304 169.429 104.432C169.429 104.56 169.258 104.784 168.917 105.104C168.576 105.424 168.128 105.723 167.573 106C167.018 106.299 166.421 106.448 165.781 106.448Z" fill="#FF639A"/>
<path d="M146.975 106.096C146.591 106.096 146.399 105.968 146.399 105.712C146.399 105.499 146.623 105.307 147.071 105.136C147.349 105.029 147.615 104.901 147.871 104.752C148.127 104.603 148.255 104.304 148.255 103.856V88.08C148.255 87.504 148.17 87.0027 147.999 86.576C147.85 86.128 147.53 85.8614 147.039 85.776C146.869 85.7334 146.783 85.5734 146.783 85.296C146.783 85.0827 146.858 84.944 147.007 84.88C147.327 84.7734 147.711 84.6454 148.159 84.496C148.629 84.3467 149.077 84.1867 149.503 84.016C149.951 83.824 150.325 83.6534 150.623 83.504C150.751 83.4614 150.847 83.44 150.911 83.44C150.975 83.44 151.029 83.472 151.071 83.536C151.114 83.5787 151.135 83.6427 151.135 83.728C151.135 83.8347 151.114 84.0054 151.071 84.24C151.029 84.4534 150.986 84.8054 150.943 85.296C150.922 85.7654 150.911 86.4374 150.911 87.312V93.52C150.911 93.8187 150.922 94.0534 150.943 94.224C150.965 94.3734 151.007 94.5014 151.071 94.608C151.37 94.352 151.733 94.064 152.159 93.744C152.607 93.424 153.098 93.1467 153.631 92.912C154.186 92.6774 154.773 92.56 155.391 92.56C156.373 92.56 157.183 92.9654 157.823 93.776C158.463 94.5867 158.783 95.6534 158.783 96.976V103.792C158.783 104.219 158.901 104.528 159.135 104.72C159.391 104.891 159.658 105.029 159.935 105.136C160.127 105.221 160.277 105.307 160.383 105.392C160.511 105.456 160.575 105.563 160.575 105.712C160.575 105.968 160.373 106.096 159.967 106.096C159.562 106.096 159.242 106.075 159.007 106.032C158.794 106.011 158.581 105.989 158.367 105.968C158.154 105.947 157.866 105.936 157.503 105.936C157.141 105.936 156.853 105.947 156.639 105.968C156.447 105.989 156.234 106.011 155.999 106.032C155.786 106.075 155.466 106.096 155.039 106.096C154.634 106.096 154.431 105.968 154.431 105.712C154.431 105.541 154.485 105.424 154.591 105.36C154.719 105.296 154.879 105.221 155.071 105.136C155.349 105.051 155.594 104.912 155.807 104.72C156.042 104.528 156.159 104.208 156.159 103.76V97.296C156.159 96.784 156.031 96.3254 155.775 95.92C155.541 95.4934 155.242 95.1627 154.879 94.928C154.538 94.6934 154.175 94.576 153.791 94.576C153.429 94.576 153.034 94.6294 152.607 94.736C152.181 94.8427 151.818 95.024 151.519 95.28C151.285 95.4934 151.125 95.728 151.039 95.984C150.954 96.2187 150.911 96.6134 150.911 97.168V103.856C150.933 104.283 151.039 104.581 151.231 104.752C151.445 104.901 151.69 105.029 151.967 105.136C152.159 105.2 152.309 105.275 152.415 105.36C152.543 105.445 152.607 105.563 152.607 105.712C152.607 105.968 152.415 106.096 152.031 106.096C151.647 106.096 151.327 106.075 151.071 106.032C150.837 106.011 150.602 105.989 150.367 105.968C150.154 105.947 149.877 105.936 149.535 105.936C149.215 105.936 148.927 105.947 148.671 105.968C148.437 105.989 148.191 106.011 147.935 106.032C147.679 106.075 147.359 106.096 146.975 106.096Z" fill="#FF639A"/>
<path d="M139.484 115.28C137.777 115.28 136.422 114.939 135.42 114.256C134.438 113.573 133.948 112.656 133.948 111.504C133.948 110.907 134.022 110.416 134.172 110.032C134.321 109.648 134.577 109.296 134.94 108.976C135.26 108.72 135.622 108.411 136.028 108.048C136.454 107.685 136.86 107.333 137.244 106.992L138.556 107.216C137.724 107.771 137.137 108.315 136.796 108.848C136.454 109.403 136.284 110.064 136.284 110.832C136.284 111.707 136.614 112.432 137.276 113.008C137.958 113.584 138.801 113.872 139.804 113.872C140.998 113.872 141.916 113.584 142.556 113.008C143.004 112.624 143.345 112.133 143.58 111.536C143.814 110.939 143.932 110.32 143.932 109.68C143.932 109.253 143.793 108.901 143.516 108.624C143.26 108.347 142.833 108.123 142.236 107.952C141.638 107.781 140.838 107.653 139.836 107.568C137.958 107.397 136.646 107.077 135.9 106.608C135.153 106.139 134.78 105.467 134.78 104.592C134.78 104.379 134.833 104.176 134.94 103.984C135.046 103.792 135.228 103.589 135.484 103.376C135.868 103.035 136.166 102.768 136.38 102.576C136.614 102.384 136.796 102.224 136.924 102.096C137.052 101.947 137.158 101.776 137.244 101.584L138.396 102.128C137.99 102.299 137.649 102.523 137.372 102.8C137.116 103.077 136.988 103.323 136.988 103.536C136.988 103.813 137.116 104.059 137.372 104.272C137.649 104.464 138.076 104.613 138.652 104.72C139.228 104.827 139.953 104.923 140.828 105.008C142.705 105.136 144.081 105.467 144.956 106C145.852 106.533 146.3 107.291 146.3 108.272C146.3 109.125 146.097 109.957 145.692 110.768C145.308 111.6 144.785 112.357 144.124 113.04C143.484 113.723 142.758 114.267 141.948 114.672C141.137 115.077 140.316 115.28 139.484 115.28ZM139.868 101.488C140.55 101.488 141.105 101.093 141.532 100.304C141.958 99.5147 142.172 98.5014 142.172 97.264C142.172 96.5814 142.054 95.9627 141.82 95.408C141.606 94.8534 141.308 94.416 140.924 94.096C140.561 93.7547 140.145 93.584 139.676 93.584C139.249 93.584 138.854 93.7547 138.492 94.096C138.129 94.4374 137.841 94.896 137.628 95.472C137.414 96.0267 137.308 96.6454 137.308 97.328C137.308 98.096 137.414 98.8 137.628 99.44C137.862 100.059 138.172 100.56 138.556 100.944C138.961 101.307 139.398 101.488 139.868 101.488ZM139.612 102.704C138.801 102.704 138.022 102.48 137.276 102.032C136.529 101.584 135.91 100.987 135.42 100.24C134.95 99.472 134.716 98.6294 134.716 97.712C134.716 96.6667 134.961 95.76 135.452 94.992C135.964 94.2027 136.625 93.5947 137.436 93.168C138.268 92.72 139.132 92.496 140.028 92.496C140.604 92.496 141.116 92.5814 141.564 92.752C142.012 92.9014 142.481 93.0294 142.972 93.136C143.398 93.264 143.761 93.3494 144.06 93.392C144.358 93.4134 144.689 93.424 145.052 93.424C145.286 93.424 145.564 93.4134 145.884 93.392C146.225 93.3494 146.47 93.328 146.62 93.328C146.897 93.328 147.036 93.52 147.036 93.904C147.036 94.1814 146.929 94.448 146.716 94.704C146.588 94.832 146.492 94.896 146.428 94.896H145.628C145.137 94.896 144.838 94.9814 144.732 95.152C144.71 95.216 144.678 95.312 144.636 95.44C144.614 95.5467 144.593 95.696 144.572 95.888C144.572 96.08 144.572 96.3254 144.572 96.624C144.572 97.7334 144.337 98.7467 143.868 99.664C143.42 100.581 142.822 101.317 142.076 101.872C141.35 102.427 140.529 102.704 139.612 102.704Z" fill="#FF639A"/>
<path d="M128.273 106.096C128.124 106.096 127.996 106.064 127.889 106C127.783 105.936 127.729 105.84 127.729 105.712C127.729 105.541 127.783 105.424 127.889 105.36C128.017 105.275 128.167 105.211 128.337 105.168C128.764 105.04 129.084 104.901 129.297 104.752C129.511 104.603 129.617 104.336 129.617 103.952V97.04C129.617 96.4 129.521 95.888 129.329 95.504C129.137 95.0987 128.807 94.8533 128.337 94.768C128.231 94.7467 128.156 94.704 128.113 94.64C128.071 94.5547 128.049 94.4373 128.049 94.288C128.049 94.032 128.135 93.8933 128.305 93.872C129.137 93.6587 129.852 93.3813 130.449 93.04C131.068 92.6773 131.527 92.3893 131.825 92.176C132.039 92.0267 132.199 91.952 132.305 91.952C132.455 91.952 132.529 92.0373 132.529 92.208C132.529 92.4427 132.497 92.816 132.433 93.328C132.391 93.84 132.348 94.3947 132.305 94.992C132.263 95.5893 132.241 96.144 132.241 96.656V103.952C132.241 104.293 132.348 104.549 132.561 104.72C132.775 104.891 133.095 105.04 133.521 105.168C133.692 105.211 133.831 105.275 133.937 105.36C134.065 105.424 134.129 105.541 134.129 105.712C134.129 105.968 133.959 106.096 133.617 106.096C133.255 106.096 132.924 106.075 132.625 106.032C132.348 106.011 132.081 105.989 131.825 105.968C131.569 105.947 131.271 105.936 130.929 105.936C130.588 105.936 130.279 105.947 130.001 105.968C129.745 105.989 129.489 106.011 129.233 106.032C128.977 106.075 128.657 106.096 128.273 106.096Z" fill="#FF639A"/>
<path d="M112.614 106.16C112.4 106.16 112.219 106.117 112.07 106.032C111.942 105.947 111.878 105.851 111.878 105.744C111.878 105.573 111.952 105.445 112.102 105.36C112.272 105.253 112.4 105.189 112.486 105.168C113.232 104.976 113.776 104.731 114.118 104.432C114.48 104.133 114.662 103.632 114.662 102.928V88.176C114.662 87.664 114.608 87.2907 114.502 87.056C114.416 86.8 114.246 86.608 113.99 86.48C113.734 86.352 113.36 86.2347 112.87 86.128C112.315 86 112.038 85.7867 112.038 85.488C112.038 85.3387 112.102 85.232 112.23 85.168C112.379 85.104 112.56 85.072 112.774 85.072C113.264 85.072 113.702 85.0827 114.086 85.104C114.47 85.1253 114.832 85.1467 115.174 85.168C115.515 85.1893 115.899 85.2 116.326 85.2C116.774 85.2 117.2 85.2 117.606 85.2C118.011 85.1787 118.416 85.1573 118.822 85.136C119.248 85.1147 119.707 85.104 120.198 85.104C120.411 85.104 120.582 85.136 120.71 85.2C120.838 85.2427 120.902 85.3387 120.902 85.488C120.902 85.6587 120.838 85.7973 120.71 85.904C120.582 85.9893 120.368 86.064 120.07 86.128C119.344 86.32 118.768 86.5333 118.342 86.768C117.915 86.9813 117.702 87.3973 117.702 88.016V102.832C117.702 103.493 117.83 103.973 118.086 104.272C118.363 104.549 118.896 104.688 119.686 104.688H123.046C123.536 104.688 123.963 104.603 124.326 104.432C124.71 104.261 125.008 104.069 125.222 103.856C125.584 103.493 125.862 103.152 126.054 102.832C126.267 102.491 126.491 102.043 126.726 101.488C126.811 101.253 126.907 101.029 127.014 100.816C127.142 100.603 127.28 100.496 127.43 100.496C127.558 100.496 127.643 100.571 127.686 100.72C127.75 100.848 127.782 100.976 127.782 101.104C127.782 101.147 127.771 101.2 127.75 101.264C127.75 101.328 127.75 101.392 127.75 101.456C127.6 102.032 127.462 102.544 127.334 102.992C127.227 103.44 127.142 103.867 127.078 104.272C127.014 104.677 126.96 105.115 126.918 105.584C126.896 105.733 126.854 105.872 126.79 106C126.747 106.107 126.651 106.16 126.502 106.16C125.755 106.16 124.955 106.149 124.102 106.128C123.248 106.107 122.395 106.085 121.542 106.064C120.688 106.064 119.835 106.053 118.982 106.032C118.15 106.011 117.35 106 116.582 106C116.134 106 115.622 106.011 115.046 106.032C114.47 106.053 113.947 106.075 113.478 106.096C113.008 106.139 112.72 106.16 112.614 106.16Z" fill="#FF639A"/>
<path d="M101.549 106.48C100.504 106.48 99.5866 106.192 98.7972 105.616C98.0079 105.019 97.3786 104.197 96.9092 103.152C96.4399 102.085 96.2052 100.859 96.2052 99.472C96.2052 98.2133 96.4719 97.0613 97.0052 96.016C97.5386 94.9707 98.2426 94.1387 99.1172 93.52C100.013 92.88 100.984 92.56 102.029 92.56C102.819 92.56 103.523 92.7413 104.141 93.104C104.781 93.4453 105.272 93.936 105.613 94.576C105.976 95.1947 106.157 95.9093 106.157 96.72C106.157 97.424 105.859 97.776 105.261 97.776H99.3092C99.0319 97.776 98.8292 97.8613 98.7012 98.032C98.5946 98.2027 98.5413 98.512 98.5413 98.96C98.5413 99.8987 98.7332 100.763 99.1172 101.552C99.5012 102.32 100.013 102.939 100.653 103.408C101.293 103.877 101.997 104.112 102.765 104.112C103.341 104.112 103.864 103.995 104.333 103.76C104.803 103.504 105.24 103.152 105.645 102.704C105.688 102.619 105.731 102.555 105.773 102.512C105.837 102.469 105.891 102.448 105.933 102.448C106.125 102.448 106.221 102.565 106.221 102.8C106.221 103.141 106.083 103.547 105.805 104.016C105.528 104.464 105.187 104.88 104.781 105.264C104.376 105.627 103.896 105.915 103.341 106.128C102.787 106.363 102.189 106.48 101.549 106.48ZM99.3412 96.688H101.645C102.136 96.688 102.52 96.6773 102.797 96.656C103.096 96.6347 103.373 96.592 103.629 96.528C103.715 96.4853 103.779 96.4 103.821 96.272C103.864 96.1227 103.885 95.9413 103.885 95.728C103.885 95.1307 103.661 94.6293 103.213 94.224C102.765 93.7973 102.243 93.584 101.645 93.584C101.219 93.584 100.792 93.7227 100.365 94C99.9599 94.2773 99.6186 94.6293 99.3412 95.056C99.0852 95.4613 98.9679 95.8773 98.9893 96.304C98.9893 96.56 99.1066 96.688 99.3412 96.688Z" fill="#FF639A"/>
<path d="M82.2353 106.096C81.8513 106.096 81.6593 105.968 81.6593 105.712C81.6593 105.499 81.8833 105.307 82.3313 105.136C82.6086 105.029 82.8753 104.901 83.1313 104.752C83.3873 104.603 83.5153 104.304 83.5153 103.856V88.08C83.5153 87.504 83.4299 87.0027 83.2593 86.576C83.1099 86.128 82.7899 85.8614 82.2993 85.776C82.1286 85.7334 82.0433 85.5734 82.0433 85.296C82.0433 85.0827 82.1179 84.944 82.2673 84.88C82.5873 84.7734 82.9713 84.6454 83.4193 84.496C83.8886 84.3467 84.3366 84.1867 84.7633 84.016C85.2113 83.824 85.5846 83.6534 85.8833 83.504C86.0113 83.4614 86.1073 83.44 86.1713 83.44C86.2353 83.44 86.2886 83.472 86.3313 83.536C86.3739 83.5787 86.3953 83.6427 86.3953 83.728C86.3953 83.8347 86.3739 84.0054 86.3313 84.24C86.2886 84.4534 86.2459 84.8054 86.2033 85.296C86.1819 85.7654 86.1713 86.4374 86.1713 87.312V93.52C86.1713 93.8187 86.1819 94.0534 86.2033 94.224C86.2246 94.3734 86.2673 94.5014 86.3313 94.608C86.6299 94.352 86.9926 94.064 87.4193 93.744C87.8673 93.424 88.3579 93.1467 88.8913 92.912C89.4459 92.6774 90.0326 92.56 90.6513 92.56C91.6326 92.56 92.4433 92.9654 93.0833 93.776C93.7233 94.5867 94.0433 95.6534 94.0433 96.976V103.792C94.0433 104.219 94.1606 104.528 94.3953 104.72C94.6513 104.891 94.9179 105.029 95.1953 105.136C95.3873 105.221 95.5366 105.307 95.6433 105.392C95.7713 105.456 95.8353 105.563 95.8353 105.712C95.8353 105.968 95.6326 106.096 95.2273 106.096C94.8219 106.096 94.5019 106.075 94.2673 106.032C94.0539 106.011 93.8406 105.989 93.6273 105.968C93.4139 105.947 93.1259 105.936 92.7633 105.936C92.4006 105.936 92.1126 105.947 91.8993 105.968C91.7073 105.989 91.4939 106.011 91.2593 106.032C91.0459 106.075 90.7259 106.096 90.2993 106.096C89.8939 106.096 89.6913 105.968 89.6913 105.712C89.6913 105.541 89.7446 105.424 89.8513 105.36C89.9793 105.296 90.1393 105.221 90.3313 105.136C90.6086 105.051 90.8539 104.912 91.0673 104.72C91.3019 104.528 91.4193 104.208 91.4193 103.76V97.296C91.4193 96.784 91.2913 96.3254 91.0353 95.92C90.8006 95.4934 90.5019 95.1627 90.1393 94.928C89.7979 94.6934 89.4353 94.576 89.0513 94.576C88.6886 94.576 88.2939 94.6294 87.8673 94.736C87.4406 94.8427 87.0779 95.024 86.7793 95.28C86.5446 95.4934 86.3846 95.728 86.2993 95.984C86.2139 96.2187 86.1713 96.6134 86.1713 97.168V103.856C86.1926 104.283 86.2993 104.581 86.4913 104.752C86.7046 104.901 86.9499 105.029 87.2273 105.136C87.4193 105.2 87.5686 105.275 87.6753 105.36C87.8033 105.445 87.8673 105.563 87.8673 105.712C87.8673 105.968 87.6753 106.096 87.2913 106.096C86.9073 106.096 86.5873 106.075 86.3313 106.032C86.0966 106.011 85.8619 105.989 85.6273 105.968C85.4139 105.947 85.1366 105.936 84.7953 105.936C84.4753 105.936 84.1873 105.947 83.9313 105.968C83.6966 105.989 83.4513 106.011 83.1953 106.032C82.9393 106.075 82.6193 106.096 82.2353 106.096Z" fill="#FF639A"/>
<path d="M78.2422 106.448C77.1756 106.448 76.3542 106.117 75.7782 105.456C75.2236 104.795 74.9462 103.824 74.9462 102.544V95.12C74.9462 94.9493 74.8822 94.832 74.7542 94.768C74.6476 94.6827 74.4129 94.64 74.0502 94.64H73.7942C73.6876 94.64 73.5916 94.5547 73.5062 94.384C73.4422 94.192 73.4102 94.0107 73.4102 93.84C73.4102 93.7973 73.4316 93.744 73.4742 93.68C73.5169 93.5947 73.5596 93.5413 73.6022 93.52C74.0076 93.2427 74.4022 92.944 74.7862 92.624C75.1916 92.2827 75.5542 91.9413 75.8742 91.6C76.2156 91.2587 76.5036 90.96 76.7382 90.704C76.8662 90.5973 76.9622 90.5013 77.0262 90.416C77.1116 90.3307 77.2076 90.288 77.3142 90.288C77.4422 90.288 77.5489 90.32 77.6342 90.384C77.7196 90.448 77.7516 90.576 77.7302 90.768L77.5382 92.336C77.5382 92.592 77.5916 92.7627 77.6982 92.848C77.8263 92.9333 78.0076 92.976 78.2422 92.976H81.5702C81.6342 92.976 81.6876 93.0507 81.7302 93.2C81.7942 93.3493 81.8262 93.4987 81.8262 93.648C81.8262 93.8827 81.7942 94.1067 81.7302 94.32C81.6876 94.5333 81.6342 94.64 81.5702 94.64H78.7542C78.2849 94.64 77.9756 94.6933 77.8262 94.8C77.6769 94.9067 77.6022 95.152 77.6022 95.536V101.744C77.6022 102.64 77.7622 103.333 78.0822 103.824C78.4236 104.293 78.8929 104.528 79.4902 104.528C80.0449 104.528 80.4609 104.475 80.7382 104.368C81.0369 104.261 81.3036 104.133 81.5382 103.984C81.5809 103.941 81.6236 103.92 81.6662 103.92C81.7729 103.92 81.8369 103.973 81.8582 104.08C81.8796 104.187 81.8902 104.304 81.8902 104.432C81.8902 104.56 81.7196 104.784 81.3783 105.104C81.0369 105.424 80.5889 105.723 80.0342 106C79.4796 106.299 78.8822 106.448 78.2422 106.448Z" fill="#FF639A"/>
<path d="M60.9138 115.28C59.2071 115.28 57.8524 114.939 56.8498 114.256C55.8684 113.573 55.3778 112.656 55.3778 111.504C55.3778 110.907 55.4524 110.416 55.6018 110.032C55.7511 109.648 56.0071 109.296 56.3698 108.976C56.6898 108.72 57.0524 108.411 57.4578 108.048C57.8844 107.685 58.2898 107.333 58.6738 106.992L59.9858 107.216C59.1538 107.771 58.5671 108.315 58.2258 108.848C57.8844 109.403 57.7138 110.064 57.7138 110.832C57.7138 111.707 58.0444 112.432 58.7058 113.008C59.3884 113.584 60.2311 113.872 61.2338 113.872C62.4284 113.872 63.3458 113.584 63.9858 113.008C64.4338 112.624 64.7751 112.133 65.0098 111.536C65.2444 110.939 65.3618 110.32 65.3618 109.68C65.3618 109.253 65.2231 108.901 64.9458 108.624C64.6898 108.347 64.2631 108.123 63.6658 107.952C63.0684 107.781 62.2684 107.653 61.2658 107.568C59.3884 107.397 58.0764 107.077 57.3298 106.608C56.5831 106.139 56.2098 105.467 56.2098 104.592C56.2098 104.379 56.2631 104.176 56.3698 103.984C56.4764 103.792 56.6578 103.589 56.9138 103.376C57.2978 103.035 57.5964 102.768 57.8098 102.576C58.0444 102.384 58.2258 102.224 58.3538 102.096C58.4818 101.947 58.5884 101.776 58.6738 101.584L59.8258 102.128C59.4204 102.299 59.0791 102.523 58.8018 102.8C58.5458 103.077 58.4178 103.323 58.4178 103.536C58.4178 103.813 58.5458 104.059 58.8018 104.272C59.0791 104.464 59.5058 104.613 60.0818 104.72C60.6578 104.827 61.3831 104.923 62.2578 105.008C64.1351 105.136 65.5111 105.467 66.3858 106C67.2818 106.533 67.7298 107.291 67.7298 108.272C67.7298 109.125 67.5271 109.957 67.1217 110.768C66.7377 111.6 66.2151 112.357 65.5538 113.04C64.9138 113.723 64.1884 114.267 63.3778 114.672C62.5671 115.077 61.7458 115.28 60.9138 115.28ZM61.2978 101.488C61.9804 101.488 62.5351 101.093 62.9618 100.304C63.3884 99.5147 63.6017 98.5014 63.6017 97.264C63.6017 96.5814 63.4844 95.9627 63.2498 95.408C63.0364 94.8534 62.7378 94.416 62.3538 94.096C61.9911 93.7547 61.5751 93.584 61.1058 93.584C60.6791 93.584 60.2844 93.7547 59.9218 94.096C59.5591 94.4374 59.2711 94.896 59.0578 95.472C58.8444 96.0267 58.7378 96.6454 58.7378 97.328C58.7378 98.096 58.8444 98.8 59.0578 99.44C59.2924 100.059 59.6018 100.56 59.9858 100.944C60.3911 101.307 60.8284 101.488 61.2978 101.488ZM61.0418 102.704C60.2311 102.704 59.4524 102.48 58.7058 102.032C57.9591 101.584 57.3404 100.987 56.8498 100.24C56.3804 99.472 56.1458 98.6294 56.1458 97.712C56.1458 96.6667 56.3911 95.76 56.8818 94.992C57.3938 94.2027 58.0551 93.5947 58.8658 93.168C59.6978 92.72 60.5618 92.496 61.4578 92.496C62.0338 92.496 62.5458 92.5814 62.9938 92.752C63.4418 92.9014 63.9111 93.0294 64.4017 93.136C64.8284 93.264 65.1911 93.3494 65.4897 93.392C65.7884 93.4134 66.1191 93.424 66.4818 93.424C66.7164 93.424 66.9938 93.4134 67.3138 93.392C67.6551 93.3494 67.9004 93.328 68.0498 93.328C68.3271 93.328 68.4658 93.52 68.4658 93.904C68.4658 94.1814 68.3591 94.448 68.1458 94.704C68.0178 94.832 67.9218 94.896 67.8578 94.896H67.0578C66.5671 94.896 66.2684 94.9814 66.1618 95.152C66.1404 95.216 66.1084 95.312 66.0658 95.44C66.0444 95.5467 66.0231 95.696 66.0018 95.888C66.0018 96.08 66.0018 96.3254 66.0018 96.624C66.0018 97.7334 65.7671 98.7467 65.2978 99.664C64.8498 100.581 64.2524 101.317 63.5057 101.872C62.7804 102.427 61.9591 102.704 61.0418 102.704Z" fill="#FF639A"/>
<path d="M41.7353 106.096C41.5859 106.096 41.4473 106.064 41.3193 106C41.2126 105.936 41.1593 105.84 41.1593 105.712C41.1593 105.541 41.2126 105.424 41.3193 105.36C41.4473 105.275 41.6073 105.2 41.7993 105.136C42.0979 105.051 42.3646 104.933 42.5993 104.784C42.8553 104.635 42.9832 104.347 42.9832 103.92V96.88C42.9832 96.3467 42.9299 95.8987 42.8232 95.536C42.7166 95.152 42.4393 94.896 41.9913 94.768C41.9059 94.7467 41.8313 94.704 41.7673 94.64C41.7246 94.5547 41.7033 94.448 41.7033 94.32C41.7033 94.0427 41.7886 93.8934 41.9593 93.872C42.6206 93.68 43.2286 93.4454 43.7833 93.168C44.3379 92.8907 44.8393 92.5814 45.2873 92.24C45.3513 92.1974 45.4153 92.1547 45.4793 92.112C45.5433 92.0694 45.6073 92.048 45.6713 92.048C45.7566 92.048 45.8099 92.08 45.8313 92.144C45.8526 92.1867 45.8633 92.2507 45.8633 92.336C45.8633 92.4854 45.8419 92.7734 45.7993 93.2C45.7566 93.6267 45.7353 93.9894 45.7353 94.288C45.7353 94.3734 45.7353 94.4587 45.7353 94.544C45.7566 94.6294 45.7779 94.6827 45.7993 94.704C46.4606 94 47.1539 93.4667 47.8793 93.104C48.6046 92.7414 49.4153 92.56 50.3113 92.56C51.2713 92.56 52.0606 92.976 52.6793 93.808C53.3193 94.64 53.6393 95.7174 53.6393 97.04V103.952C53.6393 104.379 53.7673 104.656 54.0233 104.784C54.3006 104.912 54.5779 105.029 54.8553 105.136C55.0046 105.2 55.1433 105.275 55.2713 105.36C55.4206 105.445 55.4953 105.573 55.4953 105.744C55.4953 105.893 55.4313 105.989 55.3033 106.032C55.1753 106.075 55.0579 106.096 54.9513 106.096C54.5673 106.096 54.2473 106.075 53.9913 106.032C53.7353 106.011 53.4793 105.989 53.2233 105.968C52.9886 105.947 52.7006 105.936 52.3593 105.936C52.0393 105.936 51.7513 105.947 51.4953 105.968C51.2393 105.989 50.9833 106.011 50.7273 106.032C50.4713 106.075 50.1513 106.096 49.7673 106.096C49.6606 106.096 49.5433 106.075 49.4153 106.032C49.2873 105.989 49.2233 105.893 49.2233 105.744C49.2233 105.573 49.2873 105.445 49.4153 105.36C49.5433 105.275 49.6819 105.2 49.8313 105.136C50.1299 105.029 50.3966 104.912 50.6313 104.784C50.8873 104.656 51.0153 104.379 51.0153 103.952V97.328C51.0153 96.432 50.8019 95.7387 50.3753 95.248C49.9486 94.7574 49.3833 94.5014 48.6793 94.48C48.1033 94.48 47.5806 94.5867 47.1113 94.8C46.6633 94.992 46.2473 95.2587 45.8633 95.6C45.7993 95.6854 45.7459 95.792 45.7033 95.92C45.6606 96.048 45.6393 96.1654 45.6393 96.272V103.952C45.6393 104.379 45.7566 104.667 45.9913 104.816C46.2473 104.944 46.5139 105.051 46.7913 105.136C47.2179 105.285 47.4313 105.477 47.4313 105.712C47.4313 105.84 47.3779 105.936 47.2713 106C47.1859 106.064 47.0579 106.096 46.8873 106.096C46.5033 106.096 46.1833 106.075 45.9272 106.032C45.6713 106.011 45.4259 105.989 45.1912 105.968C44.9779 105.947 44.7006 105.936 44.3593 105.936C44.0179 105.936 43.7193 105.947 43.4633 105.968C43.2286 105.989 42.9726 106.011 42.6953 106.032C42.4393 106.075 42.1193 106.096 41.7353 106.096Z" fill="#FF639A"/>
<path d="M35.1007 106.096C34.9514 106.096 34.8234 106.064 34.7168 106C34.6101 105.936 34.5568 105.84 34.5568 105.712C34.5568 105.541 34.6101 105.424 34.7168 105.36C34.8448 105.275 34.9941 105.211 35.1647 105.168C35.5914 105.04 35.9114 104.901 36.1248 104.752C36.3381 104.603 36.4448 104.336 36.4448 103.952V97.04C36.4448 96.4 36.3487 95.888 36.1567 95.504C35.9647 95.0987 35.6341 94.8533 35.1647 94.768C35.0581 94.7467 34.9834 94.704 34.9408 94.64C34.8981 94.5547 34.8768 94.4373 34.8768 94.288C34.8768 94.032 34.9621 93.8933 35.1328 93.872C35.9648 93.6587 36.6794 93.3813 37.2768 93.04C37.8954 92.6773 38.3541 92.3893 38.6528 92.176C38.8661 92.0267 39.0261 91.952 39.1328 91.952C39.2821 91.952 39.3568 92.0373 39.3568 92.208C39.3568 92.4427 39.3247 92.816 39.2607 93.328C39.2181 93.84 39.1754 94.3947 39.1328 94.992C39.0901 95.5893 39.0688 96.144 39.0688 96.656V103.952C39.0688 104.293 39.1754 104.549 39.3888 104.72C39.6021 104.891 39.9221 105.04 40.3488 105.168C40.5194 105.211 40.6581 105.275 40.7648 105.36C40.8928 105.424 40.9568 105.541 40.9568 105.712C40.9568 105.968 40.7861 106.096 40.4448 106.096C40.0821 106.096 39.7514 106.075 39.4528 106.032C39.1754 106.011 38.9088 105.989 38.6528 105.968C38.3968 105.947 38.0981 105.936 37.7568 105.936C37.4154 105.936 37.1061 105.947 36.8288 105.968C36.5728 105.989 36.3167 106.011 36.0607 106.032C35.8047 106.075 35.4847 106.096 35.1007 106.096ZM37.6608 89.744C37.1914 89.744 36.7861 89.5627 36.4448 89.2C36.1034 88.816 35.9328 88.3573 35.9328 87.824C35.9328 87.2693 36.1034 86.8107 36.4448 86.448C36.7861 86.064 37.1914 85.872 37.6608 85.872C38.1728 85.872 38.5994 86.064 38.9408 86.448C39.2821 86.8107 39.4528 87.2693 39.4528 87.824C39.4528 88.3573 39.2821 88.816 38.9408 89.2C38.5994 89.5627 38.1728 89.744 37.6608 89.744Z" fill="#FF639A"/>
<path d="M28.2143 106.672C28.1076 106.672 27.9903 106.512 27.8623 106.192C27.7556 105.893 27.6703 105.627 27.6063 105.392C27.4783 105.029 27.3396 104.635 27.1903 104.208C27.0409 103.781 26.9129 103.387 26.8063 103.024C26.3583 101.723 25.8783 100.453 25.3663 99.216C24.8756 97.9787 24.3956 96.72 23.9263 95.44C23.7556 95.0133 23.5423 94.6507 23.2863 94.352C23.0303 94.032 22.7529 93.8187 22.4543 93.712C22.2836 93.6267 22.1449 93.552 22.0383 93.488C21.9529 93.4027 21.9103 93.2853 21.9103 93.136C21.9103 92.9867 21.9849 92.9013 22.1343 92.88C22.3049 92.8373 22.4329 92.816 22.5183 92.816C22.9449 92.816 23.2543 92.8267 23.4463 92.848C23.6596 92.8693 23.8623 92.9013 24.0543 92.944C24.2676 92.9653 24.5449 92.976 24.8863 92.976C25.2703 92.976 25.5689 92.9653 25.7823 92.944C26.0169 92.9013 26.2516 92.8693 26.4863 92.848C26.7209 92.8267 27.0409 92.816 27.4463 92.816C27.5529 92.816 27.6809 92.8373 27.8303 92.88C27.9796 92.9227 28.0543 93.008 28.0543 93.136C28.0543 93.3067 27.9903 93.4347 27.8623 93.52C27.7343 93.584 27.5849 93.6587 27.4143 93.744C27.2009 93.8293 27.0409 93.9893 26.9343 94.224C26.8489 94.4587 26.8063 94.736 26.8063 95.056C26.8063 95.2267 26.8063 95.3973 26.8063 95.568C26.8276 95.7173 26.8596 95.856 26.9023 95.984L29.0783 102.192C29.0996 102.213 29.1103 102.224 29.1103 102.224C29.1316 102.224 29.1423 102.213 29.1423 102.192L31.1583 96.368C31.2436 96.176 31.2969 95.9733 31.3183 95.76C31.3609 95.5253 31.3823 95.3227 31.3823 95.152C31.3823 94.7467 31.3183 94.4373 31.1903 94.224C31.0623 94.0107 30.8489 93.8507 30.5503 93.744C30.3369 93.6587 30.1769 93.584 30.0703 93.52C29.9636 93.4347 29.9103 93.3173 29.9103 93.168C29.9103 93.0187 29.9743 92.9227 30.1023 92.88C30.2303 92.8373 30.3689 92.816 30.5183 92.816C30.8383 92.8373 31.1583 92.8693 31.4783 92.912C31.7983 92.9333 32.1716 92.944 32.5983 92.944C33.0036 92.944 33.3129 92.9333 33.5263 92.912C33.7396 92.8693 34.0169 92.8373 34.3582 92.816C34.5076 92.816 34.6462 92.8373 34.7743 92.88C34.9236 92.9227 34.9983 93.008 34.9983 93.136C34.9983 93.392 34.7849 93.5947 34.3582 93.744C34.0596 93.8507 33.7396 94.096 33.3983 94.48C33.0783 94.864 32.8223 95.3227 32.6303 95.856L30.3903 101.968C30.3263 102.075 30.2409 102.277 30.1343 102.576C30.0276 102.853 29.9209 103.163 29.8143 103.504C29.7076 103.824 29.6116 104.112 29.5263 104.368C29.4409 104.624 29.3876 104.773 29.3663 104.816C29.3236 104.88 29.2489 105.04 29.1423 105.296C29.0569 105.531 28.9609 105.776 28.8543 106.032C28.7476 106.309 28.6516 106.523 28.5663 106.672H28.2143Z" fill="#FF639A"/>
<path d="M16.3958 106.096C16.2464 106.096 16.1184 106.064 16.0118 106C15.9051 105.936 15.8518 105.84 15.8518 105.712C15.8518 105.541 15.9051 105.424 16.0118 105.36C16.1398 105.275 16.2891 105.211 16.4598 105.168C16.8864 105.04 17.2064 104.901 17.4198 104.752C17.6331 104.603 17.7398 104.336 17.7398 103.952V97.04C17.7398 96.4 17.6438 95.888 17.4518 95.504C17.2598 95.0987 16.9291 94.8533 16.4598 94.768C16.3531 94.7467 16.2784 94.704 16.2358 94.64C16.1931 94.5547 16.1718 94.4373 16.1718 94.288C16.1718 94.032 16.2571 93.8933 16.4278 93.872C17.2598 93.6587 17.9744 93.3813 18.5718 93.04C19.1904 92.6773 19.6491 92.3893 19.9478 92.176C20.1611 92.0267 20.3211 91.952 20.4278 91.952C20.5771 91.952 20.6518 92.0373 20.6518 92.208C20.6518 92.4427 20.6198 92.816 20.5558 93.328C20.5131 93.84 20.4704 94.3947 20.4278 94.992C20.3851 95.5893 20.3638 96.144 20.3638 96.656V103.952C20.3638 104.293 20.4704 104.549 20.6838 104.72C20.8971 104.891 21.2171 105.04 21.6438 105.168C21.8144 105.211 21.9531 105.275 22.0598 105.36C22.1878 105.424 22.2518 105.541 22.2518 105.712C22.2518 105.968 22.0811 106.096 21.7398 106.096C21.3771 106.096 21.0464 106.075 20.7478 106.032C20.4704 106.011 20.2038 105.989 19.9478 105.968C19.6918 105.947 19.3931 105.936 19.0518 105.936C18.7104 105.936 18.4011 105.947 18.1238 105.968C17.8678 105.989 17.6118 106.011 17.3558 106.032C17.0998 106.075 16.7798 106.096 16.3958 106.096ZM18.9558 89.744C18.4864 89.744 18.0811 89.5627 17.7398 89.2C17.3984 88.816 17.2278 88.3573 17.2278 87.824C17.2278 87.2693 17.3984 86.8107 17.7398 86.448C18.0811 86.064 18.4864 85.872 18.9558 85.872C19.4678 85.872 19.8944 86.064 20.2358 86.448C20.5771 86.8107 20.7478 87.2693 20.7478 87.824C20.7478 88.3573 20.5771 88.816 20.2358 89.2C19.8944 89.5627 19.4678 89.744 18.9558 89.744Z" fill="#FF639A"/>
<path d="M0.736 106.16C0.522667 106.16 0.341333 106.117 0.192 106.032C0.0640001 105.947 0 105.851 0 105.744C0 105.573 0.0746667 105.445 0.224 105.36C0.394667 105.253 0.522667 105.189 0.608 105.168C1.35467 104.976 1.89867 104.731 2.24 104.432C2.60267 104.133 2.784 103.632 2.784 102.928V88.176C2.784 87.664 2.73067 87.2907 2.624 87.056C2.53867 86.8 2.368 86.608 2.112 86.48C1.856 86.352 1.48267 86.2347 0.992 86.128C0.437333 86 0.16 85.7867 0.16 85.488C0.16 85.3387 0.224 85.232 0.352 85.168C0.501333 85.104 0.682667 85.072 0.896 85.072C1.38667 85.072 1.824 85.0827 2.208 85.104C2.592 85.1253 2.95467 85.1467 3.296 85.168C3.63733 85.1893 4.02133 85.2 4.448 85.2C4.896 85.2 5.32267 85.2 5.728 85.2C6.13333 85.1787 6.53867 85.1573 6.944 85.136C7.37067 85.1147 7.82933 85.104 8.32 85.104C8.53333 85.104 8.704 85.136 8.832 85.2C8.96 85.2427 9.024 85.3387 9.024 85.488C9.024 85.6587 8.96 85.7973 8.832 85.904C8.704 85.9893 8.49067 86.064 8.192 86.128C7.46667 86.32 6.89067 86.5333 6.464 86.768C6.03733 86.9813 5.824 87.3973 5.824 88.016V102.832C5.824 103.493 5.952 103.973 6.208 104.272C6.48533 104.549 7.01867 104.688 7.808 104.688H11.168C11.6587 104.688 12.0853 104.603 12.448 104.432C12.832 104.261 13.1307 104.069 13.344 103.856C13.7067 103.493 13.984 103.152 14.176 102.832C14.3893 102.491 14.6133 102.043 14.848 101.488C14.9333 101.253 15.0293 101.029 15.136 100.816C15.264 100.603 15.4027 100.496 15.552 100.496C15.68 100.496 15.7653 100.571 15.808 100.72C15.872 100.848 15.904 100.976 15.904 101.104C15.904 101.147 15.8933 101.2 15.872 101.264C15.872 101.328 15.872 101.392 15.872 101.456C15.7227 102.032 15.584 102.544 15.456 102.992C15.3493 103.44 15.264 103.867 15.2 104.272C15.136 104.677 15.0827 105.115 15.04 105.584C15.0187 105.733 14.976 105.872 14.912 106C14.8693 106.107 14.7733 106.16 14.624 106.16C13.8773 106.16 13.0773 106.149 12.224 106.128C11.3707 106.107 10.5173 106.085 9.664 106.064C8.81067 106.064 7.95733 106.053 7.104 106.032C6.272 106.011 5.472 106 4.704 106C4.256 106 3.744 106.011 3.168 106.032C2.592 106.053 2.06933 106.075 1.6 106.096C1.13067 106.139 0.842667 106.16 0.736 106.16Z" fill="#FF639A"/>
</svg>
