<svg width="307" height="105" viewBox="0 0 307 105" fill="none" xmlns="http://www.w3.org/2000/svg">
<path d="M307 99.1991C307 99.6076 306.85 99.9577 306.551 100.25C306.259 100.534 305.909 100.676 305.501 100.676C305.092 100.676 304.739 100.534 304.44 100.25C304.148 99.9577 304.002 99.6076 304.002 99.1991C304.002 98.7907 304.148 98.4406 304.44 98.1488C304.739 97.8497 305.092 97.7002 305.501 97.7002C305.909 97.7002 306.259 97.8497 306.551 98.1488C306.85 98.4406 307 98.7907 307 99.1991Z" fill="#FF639A"/>
<path d="M302 97.9188C301.548 98.7796 300.942 99.4652 300.184 99.9758C299.425 100.486 298.554 100.742 297.569 100.742C296.701 100.742 295.939 100.589 295.282 100.282C294.633 99.9758 294.097 99.56 293.674 99.0348C293.251 98.5097 292.933 97.897 292.722 97.1967C292.518 96.4965 292.416 95.7561 292.416 94.9756C292.416 94.2754 292.525 93.5898 292.744 92.9187C292.97 92.2403 293.298 91.6313 293.728 91.0915C294.144 90.5736 294.658 90.1579 295.271 89.8442C295.891 89.5233 296.584 89.3628 297.35 89.3628C298.138 89.3628 298.813 89.4868 299.374 89.7348C299.936 89.9828 300.392 90.322 300.742 90.7523C301.077 91.1608 301.325 91.6422 301.486 92.1966C301.654 92.7509 301.737 93.3527 301.737 94.0019V94.724H294.593C294.593 95.4315 294.658 96.0734 294.79 96.6497C294.928 97.2259 295.144 97.7328 295.435 98.1705C295.72 98.5936 296.092 98.9291 296.551 99.1771C297.011 99.4178 297.558 99.5381 298.193 99.5381C298.842 99.5381 299.4 99.3886 299.867 99.0896C300.341 98.7832 300.797 98.2361 301.234 97.4484L302 97.9188ZM299.582 93.8049C299.582 93.3965 299.546 92.9588 299.473 92.492C299.407 92.0252 299.298 91.6349 299.144 91.3213C298.977 90.9857 298.747 90.7122 298.455 90.5007C298.163 90.2892 297.788 90.1834 297.328 90.1834C296.562 90.1834 295.924 90.5043 295.413 91.1462C294.91 91.7808 294.637 92.667 294.593 93.8049H299.582Z" fill="#FF639A"/>
<path d="M291.059 100.457H285.796V99.7352C285.964 99.7206 286.142 99.706 286.332 99.6914C286.522 99.6695 286.678 99.6404 286.802 99.6039C287.007 99.5382 287.16 99.4252 287.262 99.2647C287.364 99.0969 287.415 98.8818 287.415 98.6192V86.1243C287.415 85.8617 287.357 85.6173 287.24 85.3912C287.131 85.1578 286.985 84.9754 286.802 84.8442C286.671 84.7566 286.43 84.6764 286.08 84.6034C285.73 84.5305 285.449 84.4867 285.238 84.4722V83.7719L289.297 83.5203L289.45 83.6844V98.4879C289.45 98.7432 289.498 98.9547 289.592 99.1225C289.687 99.2829 289.84 99.4069 290.052 99.4945C290.212 99.5674 290.369 99.6221 290.522 99.6586C290.683 99.6951 290.862 99.7206 291.059 99.7352V100.457Z" fill="#FF639A"/>
<path d="M274.155 103.98C274.155 103.616 274.253 103.317 274.45 103.083C274.654 102.857 274.906 102.744 275.205 102.744C275.438 102.744 275.639 102.788 275.807 102.875C275.974 102.963 276.124 103.076 276.255 103.214C276.365 103.324 276.481 103.473 276.605 103.663C276.729 103.853 276.828 104.01 276.901 104.134C277.266 103.937 277.7 103.422 278.203 102.591C278.713 101.759 279.082 101.03 279.308 100.403C278.615 98.6738 277.988 97.1275 277.426 95.7635C276.864 94.3995 276.277 92.988 275.664 91.5292C275.526 91.1937 275.292 90.9347 274.964 90.7524C274.636 90.5627 274.308 90.4424 273.979 90.3913V89.6692H278.903V90.4351C278.684 90.4424 278.422 90.4898 278.115 90.5773C277.809 90.6575 277.656 90.7524 277.656 90.8618C277.656 90.9055 277.67 90.9785 277.7 91.0806C277.736 91.1827 277.776 91.2885 277.82 91.3979C278.097 92.12 278.52 93.1631 279.089 94.5271C279.658 95.8838 280.099 96.9706 280.413 97.7876C280.741 97.0071 281.08 96.2011 281.43 95.3696C281.788 94.5307 282.185 93.5424 282.623 92.4045C282.674 92.2659 282.747 92.0763 282.842 91.8356C282.937 91.5876 282.984 91.376 282.984 91.201C282.984 91.0113 282.816 90.8363 282.481 90.6758C282.153 90.508 281.839 90.4059 281.54 90.3694V89.6692H285.544V90.3475C285.326 90.384 285.037 90.5117 284.68 90.7305C284.323 90.942 284.056 91.2447 283.881 91.6386C283.013 93.6518 282.24 95.4863 281.562 97.1421C280.891 98.7978 280.38 100.016 280.03 100.796C279.57 101.818 279.158 102.613 278.794 103.182C278.436 103.758 278.086 104.21 277.743 104.538C277.408 104.845 277.101 105.049 276.824 105.151C276.554 105.26 276.274 105.315 275.982 105.315C275.413 105.315 274.964 105.18 274.636 104.91C274.315 104.64 274.155 104.33 274.155 103.98Z" fill="#FF639A"/>
<path d="M273.892 99.9868C273.418 100.184 272.97 100.348 272.546 100.479C272.123 100.618 271.606 100.687 270.993 100.687C270.088 100.687 269.45 100.461 269.078 100.009C268.713 99.5491 268.531 98.9036 268.531 98.0721V90.7633H266.583V89.713H268.575V86.354H270.566V89.713H273.662V90.7633H270.588V96.7919C270.588 97.2442 270.603 97.6235 270.632 97.9298C270.668 98.2289 270.748 98.4915 270.872 98.7176C270.989 98.9291 271.164 99.0896 271.398 99.199C271.631 99.3084 271.945 99.3631 272.339 99.3631C272.521 99.3631 272.787 99.3485 273.137 99.3194C273.495 99.2829 273.746 99.2391 273.892 99.1881V99.9868Z" fill="#FF639A"/>
<path d="M264.658 95.1725C264.957 95.4351 265.187 95.7378 265.347 96.0807C265.508 96.4235 265.588 96.8429 265.588 97.3389C265.588 98.3382 265.213 99.1552 264.461 99.7897C263.717 100.424 262.751 100.742 261.562 100.742C260.935 100.742 260.355 100.629 259.822 100.402C259.297 100.176 258.921 99.9685 258.695 99.7788L258.476 100.49H257.656L257.546 96.7371H258.301C258.36 97.0216 258.484 97.3535 258.673 97.7328C258.863 98.1121 259.093 98.4549 259.363 98.7613C259.647 99.0822 259.986 99.3521 260.38 99.5709C260.781 99.7897 261.23 99.8992 261.726 99.8992C262.426 99.8992 262.966 99.7423 263.345 99.4287C263.725 99.1077 263.914 98.6519 263.914 98.061C263.914 97.7547 263.852 97.4921 263.728 97.2733C263.611 97.0471 263.436 96.8502 263.203 96.6824C262.962 96.5147 262.667 96.3651 262.317 96.2338C261.967 96.0953 261.576 95.9603 261.146 95.829C260.803 95.7269 260.42 95.5883 259.997 95.4133C259.581 95.2309 259.224 95.0194 258.925 94.7787C258.604 94.5234 258.341 94.2097 258.137 93.8377C257.933 93.4657 257.831 93.0281 257.831 92.5248C257.831 91.6422 258.159 90.8945 258.816 90.2818C259.472 89.6691 260.351 89.3627 261.452 89.3627C261.875 89.3627 262.306 89.4175 262.743 89.5269C263.188 89.6363 263.549 89.7676 263.827 89.9208L264.078 89.3518H264.866L265.03 92.8202H264.275C264.122 92.047 263.79 91.4197 263.28 90.9383C262.776 90.4496 262.16 90.2052 261.431 90.2052C260.832 90.2052 260.362 90.3548 260.019 90.6538C259.676 90.9529 259.505 91.3139 259.505 91.737C259.505 92.0652 259.56 92.3388 259.669 92.5576C259.786 92.7764 259.957 92.9624 260.183 93.1156C260.402 93.2615 260.676 93.4001 261.004 93.5314C261.339 93.6554 261.751 93.7976 262.24 93.9581C262.722 94.1112 263.174 94.29 263.597 94.4942C264.027 94.6984 264.381 94.9245 264.658 95.1725Z" fill="#FF639A"/>
<path d="M256.288 97.9188C255.835 98.7796 255.23 99.4652 254.471 99.9758C253.713 100.486 252.841 100.742 251.856 100.742C250.988 100.742 250.226 100.589 249.57 100.282C248.921 99.9758 248.384 99.56 247.961 99.0348C247.538 98.5097 247.221 97.897 247.009 97.1967C246.805 96.4965 246.703 95.7561 246.703 94.9756C246.703 94.2754 246.813 93.5898 247.031 92.9187C247.257 92.2403 247.586 91.6313 248.016 91.0915C248.432 90.5736 248.946 90.1579 249.559 89.8442C250.179 89.5233 250.872 89.3628 251.638 89.3628C252.425 89.3628 253.1 89.4868 253.662 89.7348C254.223 89.9828 254.679 90.322 255.029 90.7523C255.365 91.1608 255.613 91.6422 255.773 92.1966C255.941 92.7509 256.025 93.3527 256.025 94.0019V94.724H248.88C248.88 95.4315 248.946 96.0734 249.077 96.6497C249.216 97.2259 249.431 97.7328 249.723 98.1705C250.007 98.5936 250.379 98.9291 250.839 99.1771C251.298 99.4178 251.846 99.5381 252.48 99.5381C253.129 99.5381 253.687 99.3886 254.154 99.0896C254.628 98.7832 255.084 98.2361 255.522 97.4484L256.288 97.9188ZM253.87 93.8049C253.87 93.3965 253.833 92.9588 253.76 92.492C253.695 92.0252 253.585 91.6349 253.432 91.3213C253.264 90.9857 253.034 90.7122 252.743 90.5007C252.451 90.2892 252.075 90.1834 251.616 90.1834C250.85 90.1834 250.212 90.5043 249.701 91.1462C249.198 91.7808 248.924 92.667 248.88 93.8049H253.87Z" fill="#FF639A"/>
<path d="M247.447 84.8222C247.447 85.1505 247.36 85.4276 247.185 85.6538C247.01 85.8799 246.743 85.9929 246.386 85.9929C246.16 85.9929 245.959 85.9455 245.784 85.8507C245.616 85.7559 245.46 85.6282 245.314 85.4678C245.168 85.3073 245.033 85.1249 244.909 84.9207C244.785 84.7165 244.679 84.5523 244.591 84.4283C244.103 84.4502 243.723 84.793 243.454 85.4568C243.191 86.1133 243.06 87.1637 243.06 88.6079V89.713H245.839V90.7633H243.06V98.5097C243.06 98.765 243.107 98.9729 243.202 99.1334C243.304 99.2938 243.461 99.4142 243.672 99.4944C243.847 99.5601 244.081 99.6148 244.373 99.6585C244.664 99.695 244.916 99.7205 245.128 99.7351V100.457H239.438V99.7351C239.606 99.7205 239.777 99.706 239.952 99.6914C240.135 99.6768 240.292 99.6476 240.423 99.6038C240.627 99.5382 240.777 99.4251 240.871 99.2647C240.974 99.0969 241.025 98.8817 241.025 98.6191V90.7633H238.891V89.713H241.025V89.0237C241.025 87.3825 241.448 86.0549 242.294 85.0411C243.147 84.0199 244.212 83.5093 245.489 83.5093C246.138 83.5093 246.627 83.6369 246.955 83.8922C247.283 84.1475 247.447 84.4575 247.447 84.8222Z" fill="#FF639A"/>
<path d="M238.092 100.457H232.873V99.7353C233.041 99.7207 233.212 99.7061 233.387 99.6916C233.569 99.677 233.726 99.6478 233.858 99.604C234.062 99.5384 234.211 99.4253 234.306 99.2648C234.408 99.0971 234.459 98.8819 234.459 98.6193V91.9561C234.459 91.7227 234.405 91.5112 234.295 91.3215C234.193 91.1246 234.047 90.9604 233.858 90.8292C233.719 90.7416 233.518 90.6687 233.256 90.6103C232.993 90.5447 232.753 90.5046 232.534 90.49V89.7788L236.341 89.5381L236.494 89.6913V98.488C236.494 98.7433 236.542 98.9548 236.637 99.1226C236.739 99.2904 236.896 99.4144 237.107 99.4946C237.268 99.5603 237.424 99.615 237.578 99.6587C237.731 99.6952 237.902 99.7207 238.092 99.7353V100.457Z" fill="#FF639A"/>
<path d="M232.075 95.8403L231.747 100.458H219.613V99.6807C219.788 99.6661 220.04 99.6406 220.368 99.6041C220.703 99.5676 220.937 99.5202 221.068 99.4619C221.287 99.367 221.444 99.2284 221.538 99.0461C221.641 98.8637 221.692 98.6303 221.692 98.3458V87.2295C221.692 86.9815 221.648 86.7627 221.56 86.5731C221.48 86.3834 221.316 86.2302 221.068 86.1135C220.9 86.026 220.663 85.9421 220.357 85.8619C220.058 85.7744 219.81 85.7233 219.613 85.7087V84.9319H226.167V85.7087C225.962 85.716 225.696 85.7525 225.368 85.8181C225.047 85.8838 224.814 85.9421 224.668 85.9932C224.42 86.0807 224.248 86.2302 224.153 86.4418C224.066 86.6533 224.022 86.8794 224.022 87.1201V97.5471C224.022 98.0285 224.044 98.4042 224.088 98.6741C224.139 98.9367 224.252 99.1409 224.427 99.2868C224.595 99.4181 224.843 99.5056 225.171 99.5494C225.506 99.5859 225.973 99.6041 226.571 99.6041C226.841 99.6041 227.122 99.5968 227.414 99.5822C227.706 99.5676 227.983 99.5384 228.245 99.4947C228.501 99.4509 228.734 99.3926 228.946 99.3196C229.164 99.2394 229.325 99.1409 229.427 99.0242C229.726 98.6887 230.073 98.1817 230.467 97.5034C230.868 96.8177 231.145 96.2634 231.298 95.8403H232.075Z" fill="#FF639A"/>
<path d="M212.873 100.26L209.109 100.501L208.945 100.348V99.3413L208.857 99.3194C208.478 99.7425 208.007 100.089 207.446 100.359C206.891 100.629 206.319 100.764 205.728 100.764C205.115 100.764 204.521 100.629 203.945 100.359C203.376 100.082 202.88 99.6951 202.457 99.1991C202.026 98.6958 201.683 98.0903 201.428 97.3828C201.18 96.6753 201.056 95.8948 201.056 95.0414C201.056 94.2609 201.191 93.5206 201.461 92.8203C201.731 92.1201 202.103 91.5074 202.577 90.9822C203.022 90.4935 203.565 90.1032 204.207 89.8115C204.856 89.5197 205.517 89.3738 206.188 89.3738C206.691 89.3738 207.183 89.4395 207.665 89.5708C208.153 89.6948 208.573 89.8552 208.923 90.0522V86.2993C208.923 85.993 208.872 85.7158 208.77 85.4678C208.668 85.2125 208.525 85.0192 208.343 84.8879C208.139 84.7493 207.862 84.6509 207.511 84.5925C207.169 84.5269 206.797 84.4794 206.395 84.4503V83.7719L210.805 83.5203L210.969 83.6844V98.2362C210.969 98.4915 211.016 98.7104 211.111 98.8927C211.213 99.0678 211.359 99.2173 211.549 99.3413C211.687 99.4288 211.888 99.4835 212.151 99.5054C212.413 99.5273 212.654 99.5419 212.873 99.5492V100.26ZM208.923 98.3675V92.0544C208.865 91.8648 208.77 91.6605 208.638 91.4417C208.507 91.2229 208.343 91.0223 208.146 90.84C207.935 90.6576 207.687 90.5081 207.402 90.3914C207.118 90.2674 206.786 90.2054 206.406 90.2054C205.969 90.2054 205.564 90.3184 205.192 90.5445C204.827 90.7707 204.503 91.0952 204.218 91.5183C203.948 91.9268 203.733 92.4483 203.573 93.0829C203.419 93.7102 203.343 94.4068 203.343 95.1727C203.343 95.7854 203.401 96.3434 203.518 96.8467C203.635 97.3427 203.832 97.8059 204.109 98.2362C204.364 98.6447 204.689 98.9729 205.083 99.2209C205.484 99.4689 205.958 99.5929 206.505 99.5929C207.088 99.5929 207.57 99.4653 207.949 99.21C208.336 98.9547 208.66 98.6739 208.923 98.3675Z" fill="#FF639A"/>
<path d="M199.809 97.9188C199.357 98.7796 198.751 99.4652 197.993 99.9758C197.234 100.486 196.363 100.742 195.378 100.742C194.51 100.742 193.748 100.589 193.091 100.282C192.442 99.9758 191.906 99.56 191.483 99.0348C191.06 98.5097 190.742 97.897 190.531 97.1967C190.327 96.4965 190.225 95.7561 190.225 94.9756C190.225 94.2754 190.334 93.5898 190.553 92.9187C190.779 92.2403 191.107 91.6313 191.538 91.0915C191.953 90.5736 192.468 90.1579 193.08 89.8442C193.7 89.5233 194.393 89.3628 195.159 89.3628C195.947 89.3628 196.622 89.4868 197.183 89.7348C197.745 89.9828 198.201 90.322 198.551 90.7523C198.886 91.1608 199.134 91.6422 199.295 92.1966C199.463 92.7509 199.547 93.3527 199.547 94.0019V94.724H192.402C192.402 95.4315 192.468 96.0734 192.599 96.6497C192.737 97.2259 192.953 97.7328 193.244 98.1705C193.529 98.5936 193.901 98.9291 194.36 99.1771C194.82 99.4178 195.367 99.5381 196.002 99.5381C196.651 99.5381 197.209 99.3886 197.676 99.0896C198.15 98.7832 198.606 98.2361 199.043 97.4484L199.809 97.9188ZM197.391 93.8049C197.391 93.3965 197.355 92.9588 197.282 92.492C197.216 92.0252 197.107 91.6349 196.953 91.3213C196.786 90.9857 196.556 90.7122 196.264 90.5007C195.972 90.2892 195.597 90.1834 195.137 90.1834C194.371 90.1834 193.733 90.5043 193.223 91.1462C192.719 91.7808 192.446 92.667 192.402 93.8049H197.391Z" fill="#FF639A"/>
<path d="M188.977 97.9188C188.525 98.7796 187.919 99.4652 187.161 99.9758C186.402 100.486 185.531 100.742 184.546 100.742C183.678 100.742 182.916 100.589 182.259 100.282C181.61 99.9758 181.074 99.56 180.651 99.0348C180.228 98.5097 179.91 97.897 179.699 97.1967C179.495 96.4965 179.393 95.7561 179.393 94.9756C179.393 94.2754 179.502 93.5898 179.721 92.9187C179.947 92.2403 180.275 91.6313 180.706 91.0915C181.121 90.5736 181.636 90.1579 182.248 89.8442C182.868 89.5233 183.561 89.3628 184.327 89.3628C185.115 89.3628 185.79 89.4868 186.351 89.7348C186.913 89.9828 187.369 90.322 187.719 90.7523C188.054 91.1608 188.302 91.6422 188.463 92.1966C188.631 92.7509 188.715 93.3527 188.715 94.0019V94.724H181.57C181.57 95.4315 181.636 96.0734 181.767 96.6497C181.905 97.2259 182.121 97.7328 182.412 98.1705C182.697 98.5936 183.069 98.9291 183.528 99.1771C183.988 99.4178 184.535 99.5381 185.17 99.5381C185.819 99.5381 186.377 99.3886 186.844 99.0896C187.318 98.7832 187.774 98.2361 188.211 97.4484L188.977 97.9188ZM186.559 93.8049C186.559 93.3965 186.523 92.9588 186.45 92.492C186.384 92.0252 186.275 91.6349 186.121 91.3213C185.954 90.9857 185.724 90.7122 185.432 90.5007C185.14 90.2892 184.765 90.1834 184.305 90.1834C183.539 90.1834 182.901 90.5043 182.39 91.1462C181.887 91.7808 181.614 92.667 181.57 93.8049H186.559Z" fill="#FF639A"/>
<path d="M176.449 90.9493C176.88 91.4599 177.212 92.0544 177.445 92.7327C177.686 93.4038 177.806 94.1733 177.806 95.0413C177.806 95.8948 177.664 96.6752 177.379 97.3828C177.095 98.083 176.719 98.6811 176.252 99.1771C175.764 99.6804 175.22 100.067 174.622 100.337C174.024 100.607 173.389 100.742 172.718 100.742C172.069 100.742 171.537 100.669 171.121 100.523C170.705 100.377 170.366 100.206 170.103 100.009H170.016V103.247C170.016 103.51 170.067 103.729 170.169 103.904C170.271 104.079 170.428 104.206 170.64 104.287C170.815 104.352 171.063 104.414 171.384 104.473C171.712 104.538 171.982 104.575 172.193 104.582V105.315H166.165V104.582C166.391 104.568 166.609 104.549 166.821 104.527C167.033 104.506 167.222 104.469 167.39 104.418C167.609 104.345 167.762 104.217 167.85 104.035C167.937 103.853 167.981 103.638 167.981 103.39V91.9121C167.981 91.6933 167.926 91.4818 167.817 91.2776C167.707 91.0733 167.565 90.9092 167.39 90.7852C167.259 90.6977 167.076 90.632 166.843 90.5883C166.609 90.5372 166.383 90.5044 166.165 90.4898V89.7786L169.841 89.5379L169.994 89.6692V90.8837L170.082 90.9056C170.461 90.4679 170.931 90.1032 171.493 89.8114C172.055 89.5197 172.613 89.3738 173.167 89.3738C173.838 89.3738 174.451 89.516 175.005 89.8005C175.567 90.085 176.048 90.4679 176.449 90.9493ZM174.666 98.7067C174.958 98.2544 175.173 97.7292 175.311 97.1311C175.45 96.533 175.519 95.8656 175.519 95.1289C175.519 94.5891 175.461 94.0384 175.344 93.4767C175.228 92.9151 175.045 92.4264 174.797 92.0106C174.549 91.5876 174.225 91.2447 173.823 90.9821C173.422 90.7196 172.941 90.5883 172.379 90.5883C171.839 90.5883 171.38 90.7086 171.001 90.9493C170.621 91.1827 170.293 91.4636 170.016 91.7918V98.1705C170.082 98.3675 170.187 98.5717 170.333 98.7832C170.486 98.9948 170.654 99.1771 170.836 99.3303C171.063 99.5127 171.307 99.6622 171.57 99.7789C171.832 99.8883 172.153 99.943 172.532 99.943C172.941 99.943 173.335 99.8373 173.714 99.6257C174.093 99.4069 174.411 99.1005 174.666 98.7067Z" fill="#FF639A"/>
<path d="M164.02 95.1725C164.319 95.4351 164.549 95.7378 164.709 96.0807C164.87 96.4235 164.95 96.8429 164.95 97.3389C164.95 98.3382 164.574 99.1552 163.823 99.7897C163.079 100.424 162.113 100.742 160.924 100.742C160.296 100.742 159.716 100.629 159.184 100.402C158.659 100.176 158.283 99.9685 158.057 99.7788L157.838 100.49H157.018L156.908 96.7371H157.663C157.722 97.0216 157.846 97.3535 158.035 97.7328C158.225 98.1121 158.455 98.4549 158.724 98.7613C159.009 99.0822 159.348 99.3521 159.742 99.5709C160.143 99.7897 160.592 99.8992 161.088 99.8992C161.788 99.8992 162.328 99.7423 162.707 99.4287C163.086 99.1077 163.276 98.6519 163.276 98.061C163.276 97.7547 163.214 97.4921 163.09 97.2733C162.973 97.0471 162.798 96.8502 162.565 96.6824C162.324 96.5147 162.029 96.3651 161.679 96.2338C161.328 96.0953 160.938 95.9603 160.508 95.829C160.165 95.7269 159.782 95.5883 159.359 95.4133C158.943 95.2309 158.586 95.0194 158.287 94.7787C157.966 94.5234 157.703 94.2097 157.499 93.8377C157.295 93.4657 157.193 93.0281 157.193 92.5248C157.193 91.6422 157.521 90.8945 158.177 90.2818C158.834 89.6691 159.713 89.3627 160.814 89.3627C161.237 89.3627 161.668 89.4175 162.105 89.5269C162.55 89.6363 162.911 89.7676 163.188 89.9208L163.44 89.3518H164.228L164.392 92.8202H163.637C163.484 92.047 163.152 91.4197 162.641 90.9383C162.138 90.4496 161.522 90.2052 160.792 90.2052C160.194 90.2052 159.724 90.3548 159.381 90.6538C159.038 90.9529 158.867 91.3139 158.867 91.737C158.867 92.0652 158.921 92.3388 159.031 92.5576C159.148 92.7764 159.319 92.9624 159.545 93.1156C159.764 93.2615 160.037 93.4001 160.366 93.5314C160.701 93.6554 161.113 93.7976 161.602 93.9581C162.083 94.1112 162.536 94.29 162.959 94.4942C163.389 94.6984 163.743 94.9245 164.02 95.1725Z" fill="#FF639A"/>
<path d="M155.814 99.9868C155.34 100.184 154.891 100.348 154.468 100.479C154.045 100.618 153.527 100.687 152.914 100.687C152.01 100.687 151.371 100.461 150.999 100.009C150.635 99.5491 150.452 98.9036 150.452 98.0721V90.7633H148.505V89.713H150.496V86.354H152.487V89.713H155.584V90.7633H152.509V96.7919C152.509 97.2442 152.524 97.6235 152.553 97.9298C152.59 98.2289 152.67 98.4915 152.794 98.7176C152.911 98.9291 153.086 99.0896 153.319 99.199C153.552 99.3084 153.866 99.3631 154.26 99.3631C154.442 99.3631 154.709 99.3485 155.059 99.3194C155.416 99.2829 155.668 99.2391 155.814 99.1881V99.9868Z" fill="#FF639A"/>
<path d="M147.827 100.457H142.531V99.7352C142.699 99.7206 142.885 99.706 143.089 99.6914C143.294 99.6768 143.461 99.6477 143.593 99.6039C143.797 99.5382 143.946 99.4252 144.041 99.2647C144.143 99.0969 144.194 98.8818 144.194 98.6192V93.072C144.194 92.3061 144.012 91.7153 143.647 91.2995C143.29 90.8837 142.852 90.6758 142.334 90.6758C141.955 90.6758 141.601 90.7378 141.273 90.8618C140.952 90.9785 140.664 91.1244 140.409 91.2995C140.161 91.4818 139.971 91.6642 139.84 91.8465C139.709 92.0289 139.606 92.1821 139.533 92.3061V98.5098C139.533 98.7578 139.581 98.962 139.676 99.1225C139.778 99.2829 139.931 99.4069 140.135 99.4945C140.296 99.5674 140.46 99.6221 140.628 99.6586C140.803 99.6951 140.992 99.7206 141.197 99.7352V100.457H135.901V99.7352C136.069 99.7206 136.244 99.706 136.426 99.6914C136.608 99.6695 136.762 99.6404 136.886 99.6039C137.09 99.5382 137.243 99.4252 137.345 99.2647C137.447 99.0969 137.498 98.8818 137.498 98.6192V86.0586C137.498 85.8106 137.44 85.5626 137.323 85.3146C137.214 85.0666 137.068 84.8806 136.886 84.7566C136.754 84.6618 136.521 84.5962 136.185 84.5597C135.857 84.5159 135.591 84.4867 135.387 84.4722V83.7719L139.38 83.5203L139.533 83.6844V91.212H139.577C139.818 90.9712 140.037 90.7597 140.234 90.5774C140.431 90.3877 140.69 90.1908 141.011 89.9865C141.288 89.8115 141.612 89.6656 141.984 89.5489C142.364 89.4322 142.787 89.3738 143.253 89.3738C144.216 89.3738 144.957 89.6802 145.475 90.2929C145.992 90.8983 146.251 91.7736 146.251 92.9188V98.5316C146.251 98.7869 146.295 98.9948 146.383 99.1553C146.477 99.3085 146.631 99.4288 146.842 99.5164C147.01 99.582 147.159 99.6331 147.291 99.6695C147.429 99.6987 147.608 99.7206 147.827 99.7352V100.457Z" fill="#FF639A"/>
<path d="M133.932 99.3412C134.224 99.6184 134.454 99.932 134.621 100.282C134.789 100.632 134.873 101.066 134.873 101.584C134.873 102.102 134.76 102.587 134.534 103.039C134.308 103.499 133.965 103.896 133.505 104.232C133.017 104.575 132.433 104.841 131.755 105.031C131.076 105.22 130.237 105.315 129.238 105.315C127.604 105.315 126.383 105.074 125.573 104.593C124.763 104.119 124.358 103.422 124.358 102.503C124.358 101.759 124.65 101.172 125.234 100.742C125.817 100.311 126.561 100.078 127.466 100.041V99.8883C127.247 99.8226 127.021 99.7424 126.787 99.6476C126.554 99.5454 126.353 99.4287 126.186 99.2974C125.996 99.1443 125.843 98.9656 125.726 98.7613C125.609 98.5498 125.551 98.2908 125.551 97.9845C125.551 97.5979 125.686 97.2441 125.956 96.9232C126.233 96.595 126.649 96.3141 127.203 96.0807V95.9166C126.503 95.5884 125.959 95.1689 125.573 94.6584C125.186 94.1405 124.993 93.5423 124.993 92.864C124.993 91.8428 125.372 91.004 126.131 90.3475C126.897 89.691 127.874 89.3628 129.063 89.3628C129.391 89.3628 129.716 89.3956 130.037 89.4613C130.365 89.5269 130.697 89.6108 131.033 89.7129H134.796V90.7633H132.258V90.8289C132.528 91.1426 132.728 91.489 132.86 91.8683C132.991 92.2476 133.057 92.6196 133.057 92.9843C133.057 93.9326 132.67 94.7349 131.897 95.3914C131.131 96.0479 130.237 96.3761 129.216 96.3761H127.892C127.725 96.4345 127.55 96.5402 127.367 96.6934C127.185 96.8466 127.094 97.0545 127.094 97.3171C127.094 97.587 127.17 97.7948 127.323 97.9407C127.477 98.0793 127.663 98.1741 127.881 98.2252C128.093 98.2835 128.337 98.32 128.615 98.3346C128.899 98.3492 129.191 98.3601 129.49 98.3674C129.811 98.3747 130.248 98.3966 130.803 98.4331C131.364 98.4696 131.762 98.4914 131.995 98.4987C132.331 98.5133 132.666 98.5936 133.002 98.7394C133.345 98.8853 133.655 99.0859 133.932 99.3412ZM130.978 92.9406C130.978 92.0872 130.803 91.4088 130.453 90.9055C130.11 90.3949 129.625 90.1396 128.997 90.1396C128.655 90.1396 128.359 90.2126 128.111 90.3584C127.871 90.497 127.674 90.6976 127.52 90.9602C127.375 91.2009 127.269 91.4927 127.203 91.8355C127.145 92.171 127.116 92.5175 127.116 92.8749C127.116 93.6846 127.291 94.3447 127.641 94.8553C127.998 95.3659 128.458 95.6212 129.019 95.6212C129.647 95.6212 130.128 95.3695 130.464 94.8662C130.806 94.3556 130.978 93.7138 130.978 92.9406ZM133.079 101.989C133.079 101.581 132.984 101.245 132.794 100.982C132.604 100.72 132.316 100.541 131.93 100.446C131.725 100.417 131.306 100.384 130.671 100.348C130.037 100.311 129.3 100.293 128.461 100.293C127.674 100.446 127.112 100.702 126.776 101.059C126.448 101.424 126.284 101.891 126.284 102.459C126.284 102.715 126.339 102.959 126.448 103.193C126.558 103.426 126.747 103.641 127.017 103.838C127.272 104.028 127.615 104.181 128.046 104.298C128.476 104.422 129.001 104.484 129.621 104.484C130.693 104.484 131.536 104.276 132.149 103.86C132.769 103.451 133.079 102.828 133.079 101.989Z" fill="#FF639A"/>
<path d="M123.362 100.457H118.143V99.7353C118.311 99.7207 118.482 99.7061 118.657 99.6916C118.839 99.677 118.996 99.6478 119.128 99.604C119.332 99.5384 119.481 99.4253 119.576 99.2648C119.678 99.0971 119.729 98.8819 119.729 98.6193V91.9561C119.729 91.7227 119.675 91.5112 119.565 91.3215C119.463 91.1246 119.317 90.9604 119.128 90.8292C118.989 90.7416 118.788 90.6687 118.526 90.6103C118.263 90.5447 118.023 90.5046 117.804 90.49V89.7788L121.611 89.5381L121.764 89.6913V98.488C121.764 98.7433 121.812 98.9548 121.907 99.1226C122.009 99.2904 122.166 99.4144 122.377 99.4946C122.538 99.5603 122.694 99.615 122.848 99.6587C123.001 99.6952 123.172 99.7207 123.362 99.7353V100.457Z" fill="#FF639A"/>
<path d="M117.345 95.8403L117.017 100.458H104.883V99.6807C105.058 99.6661 105.31 99.6406 105.638 99.6041C105.973 99.5676 106.207 99.5202 106.338 99.4619C106.557 99.367 106.714 99.2284 106.808 99.0461C106.911 98.8637 106.962 98.6303 106.962 98.3458V87.2295C106.962 86.9815 106.918 86.7627 106.83 86.5731C106.75 86.3834 106.586 86.2302 106.338 86.1135C106.17 86.026 105.933 85.9421 105.627 85.8619C105.328 85.7744 105.08 85.7233 104.883 85.7087V84.9319H111.437V85.7087C111.232 85.716 110.966 85.7525 110.638 85.8181C110.317 85.8838 110.084 85.9421 109.938 85.9932C109.69 86.0807 109.518 86.2302 109.423 86.4418C109.336 86.6533 109.292 86.8794 109.292 87.1201V97.5471C109.292 98.0285 109.314 98.4042 109.358 98.6741C109.409 98.9367 109.522 99.1409 109.697 99.2868C109.865 99.4181 110.113 99.5056 110.441 99.5494C110.776 99.5859 111.243 99.6041 111.841 99.6041C112.111 99.6041 112.392 99.5968 112.684 99.5822C112.976 99.5676 113.253 99.5384 113.515 99.4947C113.771 99.4509 114.004 99.3926 114.216 99.3196C114.435 99.2394 114.595 99.1409 114.697 99.0242C114.996 98.6887 115.343 98.1817 115.737 97.5034C116.138 96.8177 116.415 96.2634 116.568 95.8403H117.345Z" fill="#FF639A"/>
<path d="M97.9459 97.9188C97.4936 98.7796 96.8882 99.4652 96.1296 99.9758C95.371 100.486 94.4994 100.742 93.5147 100.742C92.6466 100.742 91.8844 100.589 91.2279 100.282C90.5788 99.9758 90.0426 99.56 89.6196 99.0348C89.1965 98.5097 88.8792 97.897 88.6677 97.1967C88.4634 96.4965 88.3613 95.7561 88.3613 94.9756C88.3613 94.2754 88.4707 93.5898 88.6896 92.9187C88.9157 92.2403 89.2439 91.6313 89.6743 91.0915C90.09 90.5736 90.6043 90.1579 91.217 89.8442C91.837 89.5233 92.5299 89.3628 93.2958 89.3628C94.0836 89.3628 94.7583 89.4868 95.32 89.7348C95.8816 89.9828 96.3375 90.322 96.6876 90.7523C97.0231 91.1608 97.2711 91.6422 97.4316 92.1966C97.5994 92.7509 97.6833 93.3527 97.6833 94.0019V94.724H90.5386C90.5386 95.4315 90.6043 96.0734 90.7356 96.6497C90.8742 97.2259 91.0893 97.7328 91.3811 98.1705C91.6656 98.5936 92.0376 98.9291 92.4971 99.1771C92.9566 99.4178 93.5037 99.5381 94.1383 99.5381C94.7875 99.5381 95.3455 99.3886 95.8123 99.0896C96.2864 98.7832 96.7423 98.2361 97.18 97.4484L97.9459 97.9188ZM95.5278 93.8049C95.5278 93.3965 95.4914 92.9588 95.4184 92.492C95.3528 92.0252 95.2434 91.6349 95.0902 91.3213C94.9224 90.9857 94.6927 90.7122 94.4009 90.5007C94.1091 90.2892 93.7335 90.1834 93.2739 90.1834C92.5081 90.1834 91.8698 90.5043 91.3592 91.1462C90.8559 91.7808 90.5824 92.667 90.5386 93.8049H95.5278Z" fill="#FF639A"/>
<path d="M87.0374 100.457H81.7418V99.7352C81.9096 99.7206 82.0956 99.706 82.2998 99.6914C82.504 99.6768 82.6718 99.6477 82.8031 99.6039C83.0073 99.5382 83.1569 99.4252 83.2517 99.2647C83.3538 99.0969 83.4049 98.8818 83.4049 98.6192V93.072C83.4049 92.3061 83.2225 91.7153 82.8578 91.2995C82.5004 90.8837 82.0627 90.6758 81.5449 90.6758C81.1656 90.6758 80.8118 90.7378 80.4836 90.8618C80.1626 90.9785 79.8745 91.1244 79.6192 91.2995C79.3712 91.4818 79.1815 91.6642 79.0503 91.8465C78.919 92.0289 78.8168 92.1821 78.7439 92.3061V98.5098C78.7439 98.7578 78.7913 98.962 78.8861 99.1225C78.9883 99.2829 79.1414 99.4069 79.3457 99.4945C79.5061 99.5674 79.6703 99.6221 79.838 99.6586C80.0131 99.6951 80.2027 99.7206 80.407 99.7352V100.457H75.1114V99.7352C75.2792 99.7206 75.4542 99.706 75.6366 99.6914C75.8189 99.6695 75.9721 99.6404 76.0961 99.6039C76.3004 99.5382 76.4535 99.4252 76.5556 99.2647C76.6578 99.0969 76.7088 98.8818 76.7088 98.6192V86.0586C76.7088 85.8106 76.6505 85.5626 76.5338 85.3146C76.4244 85.0666 76.2785 84.8806 76.0961 84.7566C75.9648 84.6618 75.7314 84.5962 75.3959 84.5597C75.0676 84.5159 74.8014 84.4867 74.5972 84.4722V83.7719L78.5907 83.5203L78.7439 83.6844V91.212H78.7877C79.0284 90.9712 79.2472 90.7597 79.4441 90.5774C79.6411 90.3877 79.9 90.1908 80.221 89.9865C80.4981 89.8115 80.8227 89.6656 81.1947 89.5489C81.574 89.4322 81.9971 89.3738 82.4639 89.3738C83.4267 89.3738 84.1671 89.6802 84.685 90.2929C85.2029 90.8983 85.4618 91.7736 85.4618 92.9188V98.5316C85.4618 98.7869 85.5056 98.9948 85.5931 99.1553C85.6879 99.3085 85.8411 99.4288 86.0526 99.5164C86.2204 99.582 86.3699 99.6331 86.5012 99.6695C86.6398 99.6987 86.8185 99.7206 87.0374 99.7352V100.457Z" fill="#FF639A"/>
<path d="M74.2365 99.9868C73.7624 100.184 73.3138 100.348 72.8907 100.479C72.4676 100.618 71.9498 100.687 71.3371 100.687C70.4326 100.687 69.7943 100.461 69.4223 100.009C69.0576 99.5491 68.8753 98.9036 68.8753 98.0721V90.7633H66.9277V89.713H68.919V86.354H70.9103V89.713H74.0067V90.7633H70.9322V96.7919C70.9322 97.2442 70.9468 97.6235 70.976 97.9298C71.0125 98.2289 71.0927 98.4915 71.2167 98.7176C71.3334 98.9291 71.5085 99.0896 71.7419 99.199C71.9753 99.3084 72.2889 99.3631 72.6828 99.3631C72.8652 99.3631 73.1314 99.3485 73.4815 99.3194C73.839 99.2829 74.0906 99.2391 74.2365 99.1881V99.9868Z" fill="#FF639A"/>
<path d="M59.9906 99.3412C60.2823 99.6184 60.5121 99.932 60.6799 100.282C60.8476 100.632 60.9315 101.066 60.9315 101.584C60.9315 102.102 60.8185 102.587 60.5923 103.039C60.3662 103.499 60.0234 103.896 59.5639 104.232C59.0752 104.575 58.4916 104.841 57.8133 105.031C57.1349 105.22 56.2961 105.315 55.2968 105.315C53.6629 105.315 52.4411 105.074 51.6315 104.593C50.8218 104.119 50.417 103.422 50.417 102.503C50.417 101.759 50.7088 101.172 51.2923 100.742C51.8758 100.311 52.6198 100.078 53.5243 100.041V99.8883C53.3055 99.8226 53.0794 99.7424 52.8459 99.6476C52.6125 99.5454 52.4119 99.4287 52.2442 99.2974C52.0545 99.1443 51.9014 98.9656 51.7846 98.7613C51.6679 98.5498 51.6096 98.2908 51.6096 97.9845C51.6096 97.5979 51.7445 97.2441 52.0144 96.9232C52.2916 96.595 52.7074 96.3141 53.2617 96.0807V95.9166C52.5615 95.5884 52.0181 95.1689 51.6315 94.6584C51.2449 94.1405 51.0516 93.5423 51.0516 92.864C51.0516 91.8428 51.4309 91.004 52.1895 90.3475C52.9554 89.691 53.9328 89.3628 55.1217 89.3628C55.45 89.3628 55.7746 89.3956 56.0955 89.4613C56.4237 89.5269 56.7556 89.6108 57.0911 89.7129H60.8549V90.7633H58.3166V90.8289C58.5865 91.1426 58.787 91.489 58.9183 91.8683C59.0496 92.2476 59.1153 92.6196 59.1153 92.9843C59.1153 93.9326 58.7287 94.7349 57.9555 95.3914C57.1896 96.0479 56.2961 96.3761 55.2749 96.3761H53.951C53.7832 96.4345 53.6082 96.5402 53.4258 96.6934C53.2435 96.8466 53.1523 97.0545 53.1523 97.3171C53.1523 97.587 53.2289 97.7948 53.3821 97.9407C53.5352 98.0793 53.7212 98.1741 53.9401 98.2252C54.1516 98.2835 54.396 98.32 54.6731 98.3346C54.9576 98.3492 55.2494 98.3601 55.5484 98.3674C55.8694 98.3747 56.307 98.3966 56.8614 98.4331C57.423 98.4696 57.8206 98.4914 58.054 98.4987C58.3895 98.5133 58.725 98.5936 59.0606 98.7394C59.4034 98.8853 59.7134 99.0859 59.9906 99.3412ZM57.0364 92.9406C57.0364 92.0872 56.8614 91.4088 56.5113 90.9055C56.1684 90.3949 55.6834 90.1396 55.0561 90.1396C54.7133 90.1396 54.4178 90.2126 54.1698 90.3584C53.9291 90.497 53.7322 90.6976 53.579 90.9602C53.4331 91.2009 53.3274 91.4927 53.2617 91.8355C53.2034 92.171 53.1742 92.5175 53.1742 92.8749C53.1742 93.6846 53.3492 94.3447 53.6994 94.8553C54.0568 95.3659 54.5163 95.6212 55.078 95.6212C55.7053 95.6212 56.1867 95.3695 56.5222 94.8662C56.865 94.3556 57.0364 93.7138 57.0364 92.9406ZM59.1372 101.989C59.1372 101.581 59.0423 101.245 58.8527 100.982C58.663 100.72 58.3749 100.541 57.9883 100.446C57.7841 100.417 57.3647 100.384 56.7301 100.348C56.0955 100.311 55.3588 100.293 54.52 100.293C53.7322 100.446 53.1705 100.702 52.835 101.059C52.5068 101.424 52.3427 101.891 52.3427 102.459C52.3427 102.715 52.3974 102.959 52.5068 103.193C52.6162 103.426 52.8058 103.641 53.0757 103.838C53.331 104.028 53.6738 104.181 54.1042 104.298C54.5345 104.422 55.0597 104.484 55.6797 104.484C56.752 104.484 57.5944 104.276 58.2072 103.86C58.8272 103.451 59.1372 102.828 59.1372 101.989Z" fill="#FF639A"/>
<path d="M49.4216 100.457H44.137V99.7351C44.3047 99.7205 44.4871 99.706 44.684 99.6914C44.8883 99.6768 45.056 99.6476 45.1873 99.6038C45.3916 99.5382 45.5411 99.4251 45.6359 99.2647C45.738 99.0969 45.7891 98.8817 45.7891 98.6191V93.0719C45.7891 92.306 45.6067 91.7152 45.242 91.2994C44.8846 90.8837 44.447 90.6758 43.9291 90.6758C43.5425 90.6758 43.1887 90.7378 42.8678 90.8618C42.5468 90.9785 42.2624 91.1244 42.0144 91.2994C41.7737 91.4672 41.5804 91.6496 41.4345 91.8465C41.2959 92.0361 41.1938 92.1893 41.1281 92.306V98.5097C41.1281 98.7577 41.1792 98.962 41.2813 99.1224C41.3834 99.2829 41.5366 99.4069 41.7408 99.4944C41.894 99.5674 42.0581 99.6221 42.2332 99.6585C42.4156 99.695 42.6016 99.7205 42.7912 99.7351V100.457H37.5066V99.7351C37.6743 99.7205 37.8458 99.706 38.0208 99.6914C38.2032 99.6768 38.36 99.6476 38.4913 99.6038C38.6955 99.5382 38.8451 99.4251 38.9399 99.2647C39.042 99.0969 39.0931 98.8817 39.0931 98.6191V91.9559C39.0931 91.7079 39.0384 91.4818 38.9289 91.2776C38.8268 91.066 38.6809 90.8946 38.4913 90.7633C38.3527 90.6758 38.1886 90.6138 37.9989 90.5773C37.8093 90.5336 37.6051 90.5044 37.3862 90.4898V89.7786L40.975 89.5379L41.1281 89.6911V91.2119H41.1828C41.3579 91.0368 41.5767 90.829 41.8393 90.5883C42.1019 90.3403 42.3499 90.1397 42.5833 89.9865C42.8532 89.8114 43.1741 89.6655 43.5461 89.5488C43.9182 89.4321 44.3376 89.3738 44.8044 89.3738C45.8402 89.3738 46.606 89.6984 47.1021 90.3475C47.6053 90.9894 47.857 91.8465 47.857 92.9187V98.5316C47.857 98.7869 47.9008 98.9948 47.9883 99.1552C48.0758 99.3084 48.2254 99.4288 48.4369 99.5163C48.6119 99.5893 48.7615 99.6403 48.8855 99.6695C49.0168 99.6987 49.1955 99.7205 49.4216 99.7351V100.457Z" fill="#FF639A"/>
<path d="M36.1827 100.457H30.9637V99.7352C31.1315 99.7206 31.3029 99.706 31.4779 99.6914C31.6603 99.6769 31.8171 99.6477 31.9484 99.6039C32.1526 99.5383 32.3022 99.4252 32.397 99.2647C32.4991 99.097 32.5502 98.8818 32.5502 98.6192V91.956C32.5502 91.7226 32.4955 91.511 32.3861 91.3214C32.2839 91.1244 32.138 90.9603 31.9484 90.829C31.8098 90.7415 31.6092 90.6686 31.3466 90.6102C31.084 90.5446 30.8433 90.5044 30.6245 90.4899V89.7787L34.4321 89.538L34.5852 89.6911V98.4879C34.5852 98.7432 34.6327 98.9547 34.7275 99.1225C34.8296 99.2903 34.9864 99.4143 35.1979 99.4945C35.3584 99.5601 35.5152 99.6149 35.6684 99.6586C35.8216 99.6951 35.993 99.7206 36.1827 99.7352V100.457ZM34.8041 85.2818C34.8041 85.6976 34.6655 86.0623 34.3883 86.376C34.1184 86.6823 33.7829 86.8355 33.3817 86.8355C33.0097 86.8355 32.6851 86.6896 32.4079 86.3978C32.138 86.0988 32.0031 85.7596 32.0031 85.3803C32.0031 84.9791 32.138 84.629 32.4079 84.3299C32.6851 84.0309 33.0097 83.8813 33.3817 83.8813C33.7975 83.8813 34.1366 84.0236 34.3992 84.3081C34.6691 84.5852 34.8041 84.9098 34.8041 85.2818Z" fill="#FF639A"/>
<path d="M30.4605 90.3366C30.1323 90.395 29.8186 90.5153 29.5196 90.6977C29.2278 90.8727 28.9762 91.1864 28.7646 91.6386C28.3343 92.616 27.8893 93.6372 27.4298 94.7022C26.9703 95.7598 26.4925 96.8722 25.9965 98.0392C25.8506 98.3748 25.6938 98.7723 25.526 99.2318C25.3656 99.6914 25.216 100.133 25.0774 100.556H24.224C23.5311 98.8416 22.8928 97.2806 22.3093 95.8729C21.7258 94.4578 21.1204 93.0099 20.4931 91.5292C20.3472 91.1937 20.1101 90.9347 19.7819 90.7524C19.4609 90.5627 19.1363 90.4424 18.8081 90.3913V89.6692H23.7973V90.4351C23.5785 90.4424 23.305 90.4898 22.9767 90.5773C22.6485 90.6575 22.4844 90.7706 22.4844 90.9165C22.4844 90.9384 22.5026 90.9967 22.5391 91.0916C22.5755 91.1791 22.612 91.2812 22.6485 91.3979C22.9475 92.1419 23.3706 93.1813 23.9177 94.5162C24.4647 95.851 24.9097 96.9269 25.2525 97.7438C25.5151 97.1165 25.8433 96.3361 26.2372 95.4024C26.6384 94.4687 27.0687 93.4257 27.5283 92.2732C27.6012 92.0763 27.6705 91.8939 27.7362 91.7261C27.8018 91.5511 27.8346 91.376 27.8346 91.201C27.8346 91.077 27.7726 90.9675 27.6486 90.8727C27.5319 90.7706 27.3897 90.6831 27.2219 90.6101C27.0542 90.5372 26.89 90.4825 26.7296 90.446C26.5691 90.4095 26.4378 90.384 26.3357 90.3694V89.6692H30.4605V90.3366Z" fill="#FF639A"/>
<path d="M18.479 100.457H13.2601V99.7352C13.4278 99.7206 13.5993 99.706 13.7743 99.6914C13.9567 99.6769 14.1135 99.6477 14.2448 99.6039C14.449 99.5383 14.5986 99.4252 14.6934 99.2647C14.7955 99.097 14.8466 98.8818 14.8466 98.6192V91.956C14.8466 91.7226 14.7919 91.511 14.6824 91.3214C14.5803 91.1244 14.4344 90.9603 14.2448 90.829C14.1062 90.7415 13.9056 90.6686 13.643 90.6102C13.3804 90.5446 13.1397 90.5044 12.9209 90.4899V89.7787L16.7284 89.538L16.8816 89.6911V98.4879C16.8816 98.7432 16.929 98.9547 17.0239 99.1225C17.126 99.2903 17.2828 99.4143 17.4943 99.4945C17.6548 99.5601 17.8116 99.6149 17.9648 99.6586C18.118 99.6951 18.2894 99.7206 18.479 99.7352V100.457ZM17.1005 85.2818C17.1005 85.6976 16.9619 86.0623 16.6847 86.376C16.4148 86.6823 16.0793 86.8355 15.6781 86.8355C15.3061 86.8355 14.9815 86.6896 14.7043 86.3978C14.4344 86.0988 14.2995 85.7596 14.2995 85.3803C14.2995 84.9791 14.4344 84.629 14.7043 84.3299C14.9815 84.0309 15.3061 83.8813 15.6781 83.8813C16.0939 83.8813 16.433 84.0236 16.6956 84.3081C16.9655 84.5852 17.1005 84.9098 17.1005 85.2818Z" fill="#FF639A"/>
<path d="M12.4621 95.8403L12.1338 100.458H0V99.6807C0.17506 99.6661 0.426708 99.6406 0.754946 99.6041C1.09048 99.5676 1.32389 99.5202 1.45518 99.4619C1.67401 99.367 1.83083 99.2284 1.92566 99.0461C2.02778 98.8637 2.07884 98.6303 2.07884 98.3458V87.2295C2.07884 86.9815 2.03507 86.7627 1.94754 86.5731C1.8673 86.3834 1.70319 86.2302 1.45518 86.1135C1.28742 86.026 1.05036 85.9421 0.744004 85.8619C0.444944 85.7744 0.196942 85.7233 0 85.7087V84.9319H6.5538V85.7087C6.34957 85.716 6.08333 85.7525 5.75509 85.8181C5.43415 85.8838 5.20074 85.9421 5.05485 85.9932C4.80685 86.0807 4.63544 86.2302 4.54061 86.4418C4.45308 86.6533 4.40932 86.8794 4.40932 87.1201V97.5471C4.40932 98.0285 4.4312 98.4042 4.47497 98.6741C4.52603 98.9367 4.63909 99.1409 4.81415 99.2868C4.98191 99.4181 5.22991 99.5056 5.55815 99.5494C5.89368 99.5859 6.36051 99.6041 6.95863 99.6041C7.22851 99.6041 7.50934 99.5968 7.8011 99.5822C8.09287 99.5676 8.37005 99.5384 8.63264 99.4947C8.88793 99.4509 9.12135 99.3926 9.33288 99.3196C9.5517 99.2394 9.71217 99.1409 9.81429 99.0242C10.1134 98.6887 10.4598 98.1817 10.8537 97.5034C11.2549 96.8177 11.5321 96.2634 11.6852 95.8403H12.4621Z" fill="#FF639A"/>
<path d="M192.351 54.7451L192.767 58.2724L192.593 61.9211L190.726 64.1552L187.414 65.5883L183.683 65.6857L175.845 64.4173L166.272 64.3008L152.897 60.5087L153.17 55.2621L152.962 55.1917L152.615 55.7633L152.289 57.2521L149.256 63.3349L145.28 66.9708L136.291 74.5746L135.194 77.0618L135.414 79.2405L131.3 83.7669L125.254 85.9642L119.894 86.7493L118.492 86.0369L119.13 84.7217L123.057 82.1413L128.201 77.9186L131.891 73.7113L133.149 71.1828L136.875 61.8314L141.09 55.7352L142.268 52.3919L145.771 47.6018L152.161 46.6118L162.186 47.5324L168.82 48.9258L171.619 48.5885L172.997 47.3386L178.459 38.1875L184.567 32.977L191.715 24.6082L193.766 22.547L197.02 18.5633L201.817 11.6361L206.816 6.05918L214.599 2.52007L214.921 3.38905L213.338 9.92552L213.307 13.7569L209.949 18.5349L210.041 23.8555L207.441 27.2963L205.828 30.5327L202.905 32.582L198.734 36.3646L192.417 38.5238L198.728 37.6703L209.559 29.9878L217.508 21.6686L229.069 15.7839L236.982 11.8448L243.166 7.99073L249.101 5.22437L249.395 6.33194L246.582 17.8041L243.349 23.8088L240.708 35.806L237.062 38.049L237.928 44.3513L234.883 48.5272L234.871 50.0583L233.579 51.6868L228.901 52.0958L227.433 53.8579L218.367 53.7849L213.521 56.2815L202.191 56.1209L190.913 53.147L189.093 52.3056L187.073 51.3698L189.232 53.625L192.351 54.7451Z" fill="#FF639A"/>
<path d="M200.206 75.7492L202.984 73.8034L206.966 72.3933L209.971 72.0611L215.631 73.0041L220.283 73.0256L228.974 71.2325L231.258 72.8303L234.465 78.6573L235.201 80.2274L236.804 84.7391L236.898 86.1483L235.053 86.717L233.507 85.1847L231.837 82.735L228.325 79.3704L224.31 77.1783L219.64 77.5869L203.26 84.2931L197.983 84.986L194.128 83.2262L189.491 80.6117L178.258 70.3488L175.353 65.186L179.85 65.8249L184.807 66.7751L189.635 66.2458L192.422 64.3627L192.714 64.6759L200.206 75.7492Z" fill="#FF639A"/>
</svg>
